<svg xmlns="http://www.w3.org/2000/svg" xmlns:xlink="http://www.w3.org/1999/xlink" width="500" zoomAndPan="magnify" viewBox="0 0 375 374.999991" height="500" preserveAspectRatio="xMidYMid meet" version="1.0"><defs><g/><clipPath id="ea5547f9f8"><path d="M 63 63 L 312 63 L 312 312 L 63 312 Z M 63 63 " clip-rule="nonzero"/></clipPath><clipPath id="37c320c83d"><path d="M 63.710938 62.320312 L 312.679688 63.710938 L 311.289062 312.679688 L 62.320312 311.289062 Z M 63.710938 62.320312 " clip-rule="nonzero"/></clipPath><clipPath id="79451d5ffb"><path d="M 188.195312 63.015625 C 119.445312 62.632812 63.402344 118.054688 63.015625 186.804688 C 62.632812 255.554688 118.054688 311.597656 186.804688 311.984375 C 255.554688 312.367188 311.597656 256.945312 311.984375 188.195312 C 312.367188 119.445312 256.945312 63.402344 188.195312 63.015625 Z M 188.195312 63.015625 " clip-rule="nonzero"/></clipPath><clipPath id="594e8a8948"><path d="M 68.78125 68.78125 L 306.214844 68.78125 L 306.214844 306.214844 L 68.78125 306.214844 Z M 68.78125 68.78125 " clip-rule="nonzero"/></clipPath><clipPath id="ff313555b9"><path d="M 187.496094 68.78125 C 121.933594 68.78125 68.78125 121.933594 68.78125 187.496094 C 68.78125 253.0625 121.933594 306.214844 187.496094 306.214844 C 253.0625 306.214844 306.214844 253.0625 306.214844 187.496094 C 306.214844 121.933594 253.0625 68.78125 187.496094 68.78125 Z M 187.496094 68.78125 " clip-rule="nonzero"/></clipPath><clipPath id="529417a438"><path d="M 97.484375 97.484375 L 277.484375 97.484375 L 277.484375 277.484375 L 97.484375 277.484375 Z M 97.484375 97.484375 " clip-rule="nonzero"/></clipPath><clipPath id="62bcdb53ae"><path d="M 187.496094 97.484375 C 137.785156 97.484375 97.484375 137.785156 97.484375 187.496094 C 97.484375 237.207031 137.785156 277.507812 187.496094 277.507812 C 237.207031 277.507812 277.507812 237.207031 277.507812 187.496094 C 277.507812 137.785156 237.207031 97.484375 187.496094 97.484375 Z M 187.496094 97.484375 " clip-rule="nonzero"/></clipPath><clipPath id="70708e8360"><path d="M 170.015625 117.25 L 204.984375 117.25 L 204.984375 150.578125 L 170.015625 150.578125 Z M 170.015625 117.25 " clip-rule="nonzero"/></clipPath><clipPath id="dcc3434bf3"><path d="M 187.5 117.25 L 191.628906 129.980469 L 204.984375 129.980469 L 194.179688 137.847656 L 198.304688 150.578125 L 187.5 142.710938 L 176.695312 150.578125 L 180.820312 137.847656 L 170.015625 129.980469 L 183.371094 129.980469 Z M 187.5 117.25 " clip-rule="nonzero"/></clipPath><clipPath id="3e617b0e6e"><path d="M 170.015625 214.816406 L 204.984375 214.816406 L 204.984375 248.144531 L 170.015625 248.144531 Z M 170.015625 214.816406 " clip-rule="nonzero"/></clipPath><clipPath id="426e66f683"><path d="M 187.5 214.816406 L 191.628906 227.546875 L 204.984375 227.546875 L 194.179688 235.414062 L 198.304688 248.144531 L 187.5 240.277344 L 176.695312 248.144531 L 180.820312 235.414062 L 170.015625 227.546875 L 183.371094 227.546875 Z M 187.5 214.816406 " clip-rule="nonzero"/></clipPath></defs><rect x="-37.5" width="450" fill="#ffffff" y="-37.499999" height="449.999989" fill-opacity="1"/><rect x="-37.5" width="450" fill="#ff88f7" y="-37.499999" height="449.999989" fill-opacity="1"/><g clip-path="url(#ea5547f9f8)"><g clip-path="url(#37c320c83d)"><g clip-path="url(#79451d5ffb)"><path fill="#f6f5f2" d="M 63.710938 62.320312 L 312.679688 63.710938 L 311.289062 312.679688 L 62.320312 311.289062 Z M 63.710938 62.320312 " fill-opacity="1" fill-rule="nonzero"/></g></g></g><g clip-path="url(#594e8a8948)"><g clip-path="url(#ff313555b9)"><path fill="#e485be" d="M 177.449219 74.46875 C 175.777344 74.617188 174.113281 74.800781 172.453125 75.019531 L 171.074219 64.609375 C 172.886719 64.371094 174.707031 64.167969 176.53125 64.007812 Z M 167.496094 75.785156 C 165.851562 76.078125 164.210938 76.410156 162.582031 76.773438 L 160.289062 66.527344 C 162.070312 66.128906 163.859375 65.769531 165.660156 65.449219 Z M 157.707031 77.980469 C 156.097656 78.417969 154.496094 78.890625 152.90625 79.398438 L 149.710938 69.398438 C 151.445312 68.839844 153.195312 68.324219 154.957031 67.847656 Z M 148.152344 81.035156 C 146.589844 81.613281 145.039062 82.226562 143.5 82.875 L 139.425781 73.199219 C 141.105469 72.488281 142.800781 71.820312 144.511719 71.1875 Z M 138.910156 84.929688 C 137.402344 85.644531 135.90625 86.394531 134.429688 87.179688 L 129.511719 77.902344 C 131.128906 77.046875 132.757812 76.226562 134.410156 75.441406 Z M 130.046875 89.628906 C 128.605469 90.476562 127.183594 91.355469 125.78125 92.265625 L 120.0625 83.460938 C 121.59375 82.464844 123.148438 81.503906 124.722656 80.578125 Z M 121.632812 95.09375 C 120.269531 96.066406 118.929688 97.066406 117.613281 98.097656 L 111.140625 89.832031 C 112.578125 88.703125 114.042969 87.609375 115.53125 86.546875 Z M 113.730469 101.277344 C 112.457031 102.367188 111.210938 103.484375 109.988281 104.628906 L 102.816406 96.960938 C 104.152344 95.710938 105.511719 94.492188 106.898438 93.304688 Z M 106.402344 108.136719 C 105.230469 109.332031 104.085938 110.554688 102.96875 111.800781 L 95.148438 104.792969 C 96.371094 103.433594 97.617188 102.097656 98.898438 100.792969 Z M 99.699219 115.613281 C 98.640625 116.90625 97.609375 118.222656 96.605469 119.5625 L 88.199219 113.269531 C 89.296875 111.808594 90.421875 110.371094 91.582031 108.957031 Z M 93.683594 123.648438 C 92.742188 125.03125 91.832031 126.433594 90.953125 127.851562 L 82.023438 122.324219 C 82.984375 120.773438 83.980469 119.242188 85.011719 117.734375 Z M 88.402344 132.179688 C 87.585938 133.640625 86.804688 135.117188 86.054688 136.609375 L 76.671875 131.894531 C 77.492188 130.261719 78.347656 128.648438 79.242188 127.054688 Z M 83.898438 141.144531 C 83.214844 142.667969 82.566406 144.210938 81.949219 145.765625 L 72.1875 141.902344 C 72.859375 140.203125 73.570312 138.515625 74.316406 136.847656 Z M 80.207031 150.46875 C 79.664062 152.050781 79.152344 153.644531 78.675781 155.25 L 68.609375 152.269531 C 69.128906 150.515625 69.6875 148.773438 70.285156 147.042969 Z M 77.363281 160.082031 C 76.960938 161.710938 76.59375 163.347656 76.261719 164.992188 L 65.96875 162.921875 C 66.328125 161.125 66.730469 159.335938 67.171875 157.554688 Z M 75.382812 169.914062 C 75.125 171.570312 74.90625 173.234375 74.722656 174.90625 L 64.285156 173.753906 C 64.484375 171.929688 64.726562 170.109375 65.007812 168.300781 Z M 74.28125 179.886719 C 74.171875 181.558594 74.097656 183.230469 74.058594 184.910156 L 63.5625 184.675781 C 63.601562 182.84375 63.683594 181.015625 63.804688 179.191406 Z M 74.058594 189.976562 C 74.09375 191.65625 74.164062 193.332031 74.273438 195 L 63.796875 195.683594 C 63.679688 193.863281 63.597656 192.035156 63.558594 190.203125 Z M 74.710938 199.984375 C 74.890625 201.652344 75.113281 203.316406 75.367188 204.976562 L 64.992188 206.578125 C 64.710938 204.769531 64.472656 202.949219 64.273438 201.125 Z M 76.242188 209.898438 C 76.570312 211.542969 76.9375 213.179688 77.339844 214.808594 L 67.144531 217.328125 C 66.703125 215.546875 66.304688 213.757812 65.945312 211.957031 Z M 78.648438 219.644531 C 79.121094 221.25 79.628906 222.84375 80.175781 224.425781 L 70.246094 227.839844 C 69.648438 226.109375 69.09375 224.367188 68.574219 222.613281 Z M 81.910156 229.132812 C 82.523438 230.6875 83.171875 232.226562 83.855469 233.753906 L 74.269531 238.039062 C 73.523438 236.371094 72.816406 234.6875 72.144531 232.984375 Z M 86.003906 238.289062 C 86.753906 239.785156 87.535156 241.261719 88.351562 242.722656 L 79.183594 247.839844 C 78.292969 246.242188 77.4375 244.628906 76.621094 242.996094 Z M 90.894531 247.050781 C 91.773438 248.472656 92.683594 249.875 93.625 251.257812 L 84.945312 257.164062 C 83.917969 255.65625 82.921875 254.121094 81.964844 252.570312 Z M 96.542969 255.347656 C 97.542969 256.6875 98.574219 258.003906 99.632812 259.296875 L 91.507812 265.949219 C 90.351562 264.535156 89.222656 263.09375 88.132812 261.632812 Z M 102.898438 263.113281 C 104.011719 264.359375 105.15625 265.582031 106.324219 266.78125 L 98.816406 274.117188 C 97.539062 272.8125 96.289062 271.476562 95.070312 270.113281 Z M 109.910156 270.292969 C 111.132812 271.4375 112.378906 272.554688 113.648438 273.644531 L 106.8125 281.613281 C 105.425781 280.425781 104.0625 279.203125 102.730469 277.953125 Z M 117.527344 276.828125 C 118.847656 277.863281 120.183594 278.867188 121.546875 279.839844 L 115.433594 288.378906 C 113.949219 287.316406 112.488281 286.21875 111.046875 285.089844 Z M 125.691406 282.671875 C 127.09375 283.582031 128.515625 284.464844 129.957031 285.3125 L 124.621094 294.359375 C 123.046875 293.429688 121.496094 292.46875 119.964844 291.46875 Z M 134.335938 287.765625 C 135.8125 288.550781 137.304688 289.300781 138.8125 290.019531 L 134.304688 299.503906 C 132.65625 298.71875 131.023438 297.898438 129.410156 297.039062 Z M 143.402344 292.078125 C 144.9375 292.726562 146.488281 293.34375 148.054688 293.921875 L 144.402344 303.765625 C 142.691406 303.132812 140.996094 302.460938 139.316406 301.75 Z M 152.804688 295.5625 C 154.394531 296.074219 155.992188 296.546875 157.601562 296.988281 L 154.84375 307.117188 C 153.082031 306.636719 151.335938 306.121094 149.597656 305.5625 Z M 162.476562 298.199219 C 164.109375 298.566406 165.746094 298.894531 167.390625 299.1875 L 165.542969 309.527344 C 163.746094 309.203125 161.953125 308.84375 160.171875 308.441406 Z M 172.347656 299.960938 C 174.007812 300.183594 175.671875 300.367188 177.34375 300.515625 L 176.417969 310.976562 C 174.589844 310.8125 172.773438 310.613281 170.957031 310.371094 Z M 182.335938 300.847656 C 184.019531 300.925781 185.703125 300.960938 187.390625 300.964844 L 187.378906 311.464844 C 185.539062 311.460938 183.703125 311.421875 181.867188 311.339844 Z M 192.441406 300.859375 C 194.113281 300.785156 195.777344 300.679688 197.4375 300.535156 L 198.347656 310.996094 C 196.53125 311.152344 194.714844 311.269531 192.890625 311.347656 Z M 202.433594 299.992188 C 204.09375 299.773438 205.746094 299.519531 207.394531 299.226562 L 209.222656 309.566406 C 207.421875 309.882812 205.617188 310.164062 203.804688 310.402344 Z M 212.308594 298.246094 C 213.941406 297.878906 215.566406 297.480469 217.183594 297.042969 L 219.925781 307.179688 C 218.15625 307.65625 216.378906 308.09375 214.59375 308.492188 Z M 221.984375 295.628906 C 223.582031 295.121094 225.167969 294.578125 226.742188 293.996094 L 230.371094 303.847656 C 228.652344 304.480469 226.917969 305.078125 225.171875 305.632812 Z M 231.398438 292.160156 C 232.941406 291.511719 234.472656 290.828125 235.988281 290.113281 L 240.480469 299.601562 C 238.824219 300.386719 237.152344 301.132812 235.464844 301.84375 Z M 240.46875 287.867188 C 241.949219 287.085938 243.410156 286.269531 244.855469 285.421875 L 250.171875 294.476562 C 248.59375 295.402344 246.996094 296.292969 245.378906 297.148438 Z M 249.125 282.785156 C 250.527344 281.875 251.910156 280.9375 253.273438 279.964844 L 259.367188 288.515625 C 257.878906 289.578125 256.367188 290.605469 254.835938 291.597656 Z M 257.296875 276.960938 C 258.617188 275.933594 259.910156 274.871094 261.183594 273.785156 L 268.007812 281.765625 C 266.617188 282.953125 265.203125 284.109375 263.761719 285.234375 Z M 264.925781 270.441406 C 266.152344 269.296875 267.347656 268.128906 268.519531 266.933594 L 276.015625 274.285156 C 274.738281 275.589844 273.429688 276.867188 272.09375 278.113281 Z M 271.953125 263.273438 C 273.074219 262.027344 274.164062 260.757812 275.226562 259.464844 L 283.339844 266.128906 C 282.179688 267.542969 280.988281 268.929688 279.765625 270.289062 Z M 278.324219 255.519531 C 279.328125 254.179688 280.304688 252.816406 281.25 251.433594 L 289.917969 257.359375 C 288.886719 258.867188 287.820312 260.355469 286.722656 261.820312 Z M 283.984375 247.234375 C 284.871094 245.808594 285.71875 244.367188 286.539062 242.90625 L 295.699219 248.042969 C 294.804688 249.640625 293.875 251.214844 292.910156 252.769531 Z M 288.894531 238.480469 C 289.648438 236.988281 290.367188 235.476562 291.050781 233.949219 L 300.628906 238.253906 C 299.878906 239.921875 299.09375 241.570312 298.269531 243.207031 Z M 293.003906 229.332031 C 293.621094 227.777344 294.203125 226.207031 294.75 224.628906 L 304.671875 228.0625 C 304.074219 229.792969 303.4375 231.503906 302.765625 233.203125 Z M 296.289062 219.847656 C 296.761719 218.246094 297.203125 216.636719 297.605469 215.015625 L 307.792969 217.554688 C 307.351562 219.328125 306.871094 221.085938 306.351562 222.835938 Z M 298.710938 210.105469 C 299.042969 208.472656 299.335938 206.835938 299.59375 205.1875 L 309.96875 206.8125 C 309.6875 208.609375 309.363281 210.402344 309.003906 212.1875 Z M 300.261719 200.199219 C 300.445312 198.542969 300.59375 196.882812 300.707031 195.214844 L 311.183594 195.917969 C 311.058594 197.738281 310.898438 199.550781 310.699219 201.359375 Z M 300.933594 190.191406 C 300.953125 189.296875 300.964844 188.398438 300.964844 187.496094 C 300.964844 186.707031 300.957031 185.917969 300.941406 185.125 L 311.4375 184.910156 C 311.457031 185.773438 311.464844 186.632812 311.464844 187.496094 C 311.464844 188.480469 311.453125 189.457031 311.429688 190.4375 Z M 300.726562 180.101562 C 300.621094 178.433594 300.476562 176.773438 300.296875 175.121094 L 310.734375 173.988281 C 310.933594 175.796875 311.089844 177.609375 311.207031 179.425781 Z M 299.644531 170.125 C 299.390625 168.476562 299.101562 166.835938 298.777344 165.203125 L 309.074219 163.148438 C 309.429688 164.9375 309.746094 166.730469 310.023438 168.53125 Z M 297.683594 160.289062 C 297.285156 158.667969 296.847656 157.054688 296.378906 155.453125 L 306.453125 152.496094 C 306.96875 154.246094 307.441406 156.007812 307.878906 157.78125 Z M 294.855469 150.671875 C 294.3125 149.089844 293.734375 147.519531 293.125 145.964844 L 302.894531 142.117188 C 303.5625 143.820312 304.195312 145.535156 304.789062 147.265625 Z M 291.183594 141.339844 C 290.503906 139.8125 289.785156 138.296875 289.039062 136.800781 L 298.429688 132.101562 C 299.246094 133.738281 300.027344 135.394531 300.773438 137.0625 Z M 286.695312 132.367188 C 285.882812 130.90625 285.035156 129.460938 284.15625 128.035156 L 293.09375 122.523438 C 294.054688 124.082031 294.980469 125.660156 295.871094 127.257812 Z M 281.429688 123.828125 C 280.488281 122.441406 279.519531 121.078125 278.515625 119.734375 L 286.933594 113.457031 C 288.027344 114.925781 289.089844 116.414062 290.117188 117.925781 Z M 275.429688 115.78125 C 274.371094 114.484375 273.285156 113.210938 272.167969 111.960938 L 280 104.96875 C 281.21875 106.332031 282.40625 107.722656 283.5625 109.136719 Z M 268.746094 108.289062 C 267.574219 107.09375 266.382812 105.921875 265.160156 104.773438 L 272.351562 97.121094 C 273.683594 98.371094 274.984375 99.652344 276.261719 100.960938 Z M 261.429688 101.417969 C 260.160156 100.328125 258.867188 99.265625 257.550781 98.230469 L 264.039062 89.976562 C 265.476562 91.105469 266.886719 92.265625 268.273438 93.457031 Z M 253.535156 95.21875 C 252.175781 94.242188 250.796875 93.296875 249.394531 92.382812 L 255.128906 83.589844 C 256.660156 84.585938 258.167969 85.617188 259.65625 86.683594 Z M 245.132812 89.738281 C 243.691406 88.882812 242.230469 88.066406 240.753906 87.277344 L 245.6875 78.011719 C 247.300781 78.871094 248.898438 79.765625 250.472656 80.695312 Z M 236.277344 85.019531 C 234.765625 84.300781 233.234375 83.613281 231.691406 82.957031 L 235.785156 73.289062 C 237.472656 74.003906 239.144531 74.753906 240.796875 75.542969 Z M 227.042969 81.109375 C 225.472656 80.527344 223.886719 79.976562 222.292969 79.464844 L 225.511719 69.46875 C 227.253906 70.03125 228.984375 70.628906 230.703125 71.269531 Z M 217.496094 78.035156 C 215.878906 77.59375 214.257812 77.191406 212.621094 76.820312 L 214.9375 66.578125 C 216.722656 66.984375 218.5 67.425781 220.265625 67.910156 Z M 207.710938 75.824219 C 206.0625 75.527344 204.414062 75.269531 202.753906 75.046875 L 204.152344 64.640625 C 205.964844 64.882812 207.769531 65.167969 209.566406 65.488281 Z M 197.757812 74.488281 C 196.097656 74.339844 194.433594 74.226562 192.765625 74.152344 L 193.242188 63.660156 C 195.066406 63.746094 196.882812 63.867188 198.695312 64.03125 Z M 187.71875 74.03125 L 187.492188 74.03125 C 185.808594 74.03125 184.125 74.066406 182.445312 74.140625 L 181.984375 63.652344 C 183.820312 63.570312 185.660156 63.53125 187.503906 63.53125 L 187.730469 63.53125 Z M 187.71875 74.03125 " fill-opacity="1" fill-rule="nonzero"/></g></g><g clip-path="url(#529417a438)"><g clip-path="url(#62bcdb53ae)"><path fill="#ff5ebf" d="M 160.269531 119.996094 C 155.957031 121.734375 151.84375 123.878906 147.929688 126.421875 L 129.136719 97.488281 C 134.910156 93.738281 140.984375 90.578125 147.355469 88.003906 Z M 137.015625 135.09375 C 133.648438 138.335938 130.625 141.867188 127.941406 145.683594 L 99.726562 125.828125 C 103.675781 120.210938 108.125 115.019531 113.074219 110.253906 Z M 121.054688 157.78125 C 119.152344 162.03125 117.671875 166.421875 116.621094 170.953125 L 83.015625 163.148438 C 84.570312 156.445312 86.757812 149.953125 89.570312 143.671875 Z M 114.785156 184.753906 C 114.75 185.667969 114.734375 186.582031 114.734375 187.496094 C 114.734375 191.28125 115.019531 195.023438 115.59375 198.726562 L 81.5 204 C 80.65625 198.550781 80.234375 193.046875 80.234375 187.496094 C 80.234375 186.15625 80.257812 184.820312 80.308594 183.484375 Z M 119.03125 212.195312 C 120.609375 216.570312 122.59375 220.761719 124.988281 224.765625 L 95.375 242.46875 C 91.84375 236.558594 88.910156 230.371094 86.578125 223.90625 Z M 133.246094 235.988281 C 136.363281 239.46875 139.777344 242.625 143.492188 245.449219 L 122.601562 272.90625 C 117.136719 268.75 112.117188 264.113281 107.535156 258.992188 Z M 155.328125 252.785156 C 159.507812 254.847656 163.839844 256.488281 168.328125 257.710938 L 159.265625 291 C 152.628906 289.191406 146.226562 286.765625 140.050781 283.71875 Z M 182.042969 260.058594 C 183.855469 260.191406 185.671875 260.257812 187.496094 260.257812 C 190.363281 260.257812 193.210938 260.09375 196.035156 259.765625 L 200.027344 294.03125 C 195.875 294.515625 191.699219 294.757812 187.496094 294.757812 C 184.824219 294.757812 182.160156 294.660156 179.503906 294.464844 Z M 209.628906 256.835938 C 214.058594 255.421875 218.320312 253.59375 222.410156 251.355469 L 238.992188 281.605469 C 232.953125 284.917969 226.660156 287.617188 220.109375 289.707031 Z M 233.929688 243.519531 C 237.523438 240.535156 240.804688 237.238281 243.765625 233.628906 L 270.433594 255.519531 C 266.074219 260.828125 261.25 265.675781 255.964844 270.0625 Z M 251.542969 222.066406 C 253.761719 217.964844 255.566406 213.695312 256.953125 209.253906 L 289.878906 219.554688 C 287.828125 226.117188 285.160156 232.425781 281.882812 238.484375 Z M 259.808594 195.640625 C 260.109375 192.945312 260.257812 190.230469 260.257812 187.496094 C 260.257812 185.539062 260.179688 183.59375 260.027344 181.65625 L 294.421875 178.933594 C 294.644531 181.777344 294.757812 184.632812 294.757812 187.496094 C 294.757812 191.503906 294.539062 195.488281 294.097656 199.449219 Z M 257.609375 167.949219 C 256.363281 163.46875 254.695312 159.144531 252.609375 154.976562 L 283.460938 139.535156 C 286.542969 145.691406 289.003906 152.082031 290.847656 158.707031 Z M 245.210938 143.179688 C 242.363281 139.480469 239.191406 136.082031 235.695312 132.988281 L 258.558594 107.152344 C 263.703125 111.703125 268.371094 116.703125 272.554688 122.144531 Z M 224.425781 124.789062 C 220.410156 122.414062 216.210938 120.453125 211.828125 118.898438 L 223.363281 86.382812 C 229.839844 88.679688 236.039062 91.578125 241.96875 95.082031 Z M 198.339844 115.535156 C 194.761719 115 191.148438 114.734375 187.496094 114.734375 C 182.796875 114.734375 178.167969 115.175781 173.605469 116.054688 L 167.066406 82.179688 C 173.789062 80.882812 180.597656 80.234375 187.496094 80.234375 C 192.855469 80.234375 198.164062 80.628906 203.429688 81.414062 Z M 198.339844 115.535156 " fill-opacity="1" fill-rule="nonzero"/></g></g><g fill="#c48593" fill-opacity="0.4"><g transform="translate(147.766124, 98.024897)"><g><path d="M 6.171875 -2.453125 L 3.625 -4.125 C 3.414062 -4.03125 3.253906 -3.960938 3.140625 -3.921875 L 1.28125 -3.171875 L 2.203125 -0.875 L 1.125 -0.453125 L -1.875 -7.984375 L 1.0625 -9.15625 C 2.039062 -9.539062 2.898438 -9.609375 3.640625 -9.359375 C 4.390625 -9.117188 4.925781 -8.59375 5.25 -7.78125 C 5.476562 -7.195312 5.53125 -6.640625 5.40625 -6.109375 C 5.289062 -5.585938 5.003906 -5.128906 4.546875 -4.734375 L 7.328125 -2.921875 Z M 2.75 -4.8125 C 3.425781 -5.082031 3.882812 -5.4375 4.125 -5.875 C 4.375 -6.3125 4.390625 -6.800781 4.171875 -7.34375 C 3.953125 -7.882812 3.601562 -8.226562 3.125 -8.375 C 2.65625 -8.53125 2.082031 -8.472656 1.40625 -8.203125 L -0.421875 -7.46875 L 0.921875 -4.078125 Z M 2.75 -4.8125 "/></g></g></g><g fill="#c48593" fill-opacity="0.4"><g transform="translate(159.652055, 93.662595)"><g><path d="M -1.015625 -8.140625 L 0.09375 -8.453125 L 2.28125 -0.640625 L 1.171875 -0.328125 Z M -1.015625 -8.140625 "/></g></g></g><g fill="#c48593" fill-opacity="0.4"><g transform="translate(167.211469, 91.615552)"><g><path d="M 6.75 -9.328125 L 8.078125 -1.328125 L 6.9375 -1.140625 L 6.34375 -4.703125 L 1.75 -3.953125 L 2.34375 -0.390625 L 1.203125 -0.203125 L -0.125 -8.203125 L 1.015625 -8.390625 L 1.59375 -4.953125 L 6.1875 -5.703125 L 5.609375 -9.140625 Z M 6.75 -9.328125 "/></g></g></g><g fill="#c48593" fill-opacity="0.4"><g transform="translate(180.624786, 89.715414)"><g><path d="M 6.3125 -2.21875 L 2.015625 -2.09375 L 1.1875 -0.03125 L -0.015625 0 L 3.421875 -8.21875 L 4.578125 -8.25 L 8.484375 -0.25 L 7.265625 -0.21875 Z M 5.890625 -3.125 L 4.015625 -7.046875 L 2.40625 -3.03125 Z M 5.890625 -3.125 "/></g></g></g><g fill="#c48593" fill-opacity="0.4"><g transform="translate(193.249212, 89.596542)"><g><path d="M 9 -7.203125 L 8.140625 0.859375 L 7.1875 0.765625 L 3 -5.765625 L 2.359375 0.25 L 1.21875 0.125 L 2.078125 -7.9375 L 3.015625 -7.828125 L 7.203125 -1.3125 L 7.84375 -7.328125 Z M 9 -7.203125 "/></g></g></g><g fill="#c48593" fill-opacity="0.4"><g transform="translate(206.674055, 91.307117)"><g><path d="M 9.90625 -5.890625 L 7.9375 1.984375 L 7.015625 1.75 L 3.765625 -5.28125 L 2.296875 0.578125 L 1.1875 0.296875 L 3.15625 -7.578125 L 4.078125 -7.34375 L 7.328125 -0.296875 L 8.796875 -6.171875 Z M 9.90625 -5.890625 "/></g></g></g><g fill="#c48593" fill-opacity="0.4"><g transform="translate(219.739369, 94.888282)"><g><path d="M 6.671875 0.46875 L 2.6875 -1.125 L 1.109375 0.4375 L -0.015625 0 L 6.390625 -6.171875 L 7.46875 -5.75 L 7.875 3.140625 L 6.75 2.6875 Z M 6.640625 -0.546875 L 6.484375 -4.875 L 3.40625 -1.828125 Z M 6.640625 -0.546875 "/></g></g></g><g fill="#c48593" fill-opacity="1"><g transform="translate(147.254425, 97.513191)"><g><path d="M 6.171875 -2.453125 L 3.625 -4.125 C 3.414062 -4.03125 3.253906 -3.960938 3.140625 -3.921875 L 1.28125 -3.171875 L 2.203125 -0.875 L 1.125 -0.453125 L -1.875 -7.984375 L 1.0625 -9.15625 C 2.039062 -9.539062 2.898438 -9.609375 3.640625 -9.359375 C 4.390625 -9.117188 4.925781 -8.59375 5.25 -7.78125 C 5.476562 -7.195312 5.53125 -6.640625 5.40625 -6.109375 C 5.289062 -5.585938 5.003906 -5.128906 4.546875 -4.734375 L 7.328125 -2.921875 Z M 2.75 -4.8125 C 3.425781 -5.082031 3.882812 -5.4375 4.125 -5.875 C 4.375 -6.3125 4.390625 -6.800781 4.171875 -7.34375 C 3.953125 -7.882812 3.601562 -8.226562 3.125 -8.375 C 2.65625 -8.53125 2.082031 -8.472656 1.40625 -8.203125 L -0.421875 -7.46875 L 0.921875 -4.078125 Z M 2.75 -4.8125 "/></g></g></g><g fill="#c48593" fill-opacity="1"><g transform="translate(159.140342, 93.150888)"><g><path d="M -1.015625 -8.140625 L 0.09375 -8.453125 L 2.28125 -0.640625 L 1.171875 -0.328125 Z M -1.015625 -8.140625 "/></g></g></g><g fill="#c48593" fill-opacity="1"><g transform="translate(166.699753, 91.103853)"><g><path d="M 6.75 -9.328125 L 8.078125 -1.328125 L 6.9375 -1.140625 L 6.34375 -4.703125 L 1.75 -3.953125 L 2.34375 -0.390625 L 1.203125 -0.203125 L -0.125 -8.203125 L 1.015625 -8.390625 L 1.59375 -4.953125 L 6.1875 -5.703125 L 5.609375 -9.140625 Z M 6.75 -9.328125 "/></g></g></g><g fill="#c48593" fill-opacity="1"><g transform="translate(180.113087, 89.2037)"><g><path d="M 6.3125 -2.21875 L 2.015625 -2.09375 L 1.1875 -0.03125 L -0.015625 0 L 3.421875 -8.21875 L 4.578125 -8.25 L 8.484375 -0.25 L 7.265625 -0.21875 Z M 5.890625 -3.125 L 4.015625 -7.046875 L 2.40625 -3.03125 Z M 5.890625 -3.125 "/></g></g></g><g fill="#c48593" fill-opacity="1"><g transform="translate(192.737499, 89.084843)"><g><path d="M 9 -7.203125 L 8.140625 0.859375 L 7.1875 0.765625 L 3 -5.765625 L 2.359375 0.25 L 1.21875 0.125 L 2.078125 -7.9375 L 3.015625 -7.828125 L 7.203125 -1.3125 L 7.84375 -7.328125 Z M 9 -7.203125 "/></g></g></g><g fill="#c48593" fill-opacity="1"><g transform="translate(206.162341, 90.79541)"><g><path d="M 9.90625 -5.890625 L 7.9375 1.984375 L 7.015625 1.75 L 3.765625 -5.28125 L 2.296875 0.578125 L 1.1875 0.296875 L 3.15625 -7.578125 L 4.078125 -7.34375 L 7.328125 -0.296875 L 8.796875 -6.171875 Z M 9.90625 -5.890625 "/></g></g></g><g fill="#c48593" fill-opacity="1"><g transform="translate(219.227655, 94.376582)"><g><path d="M 6.671875 0.46875 L 2.6875 -1.125 L 1.109375 0.4375 L -0.015625 0 L 6.390625 -6.171875 L 7.46875 -5.75 L 7.875 3.140625 L 6.75 2.6875 Z M 6.640625 -0.546875 L 6.484375 -4.875 L 3.40625 -1.828125 Z M 6.640625 -0.546875 "/></g></g></g><g fill="#c48593" fill-opacity="0.4"><g transform="translate(145.13138, 287.766307)"><g><path d="M 6.171875 2.453125 L 5.46875 -0.5 C 5.257812 -0.570312 5.097656 -0.628906 4.984375 -0.671875 L 3.125 -1.421875 L 2.203125 0.875 L 1.125 0.453125 L 4.125 -7.078125 L 7.0625 -5.90625 C 8.039062 -5.519531 8.710938 -4.976562 9.078125 -4.28125 C 9.453125 -3.59375 9.476562 -2.84375 9.15625 -2.03125 C 8.925781 -1.445312 8.582031 -1.003906 8.125 -0.703125 C 7.675781 -0.410156 7.148438 -0.285156 6.546875 -0.328125 L 7.328125 2.921875 Z M 5.3125 -1.59375 C 5.988281 -1.320312 6.5625 -1.265625 7.03125 -1.421875 C 7.507812 -1.578125 7.859375 -1.925781 8.078125 -2.46875 C 8.296875 -3.007812 8.28125 -3.492188 8.03125 -3.921875 C 7.789062 -4.359375 7.332031 -4.710938 6.65625 -4.984375 L 4.828125 -5.71875 L 3.484375 -2.328125 Z M 5.3125 -1.59375 "/></g></g></g><g fill="#c48593" fill-opacity="0.4"><g transform="translate(157.727453, 292.369238)"><g><path d="M 3.359375 -7.484375 L 4.46875 -7.171875 L 2.28125 0.640625 L 1.171875 0.328125 Z M 3.359375 -7.484375 "/></g></g></g><g fill="#c48593" fill-opacity="0.4"><g transform="translate(166.052616, 294.586558)"><g><path d="M 9.40625 -6.671875 L 8.078125 1.328125 L 6.9375 1.140625 L 7.53125 -2.421875 L 2.9375 -3.171875 L 2.34375 0.390625 L 1.203125 0.203125 L 2.53125 -7.796875 L 3.671875 -7.609375 L 3.09375 -4.171875 L 7.6875 -3.421875 L 8.265625 -6.859375 Z M 9.40625 -6.671875 "/></g></g></g><g fill="#c48593" fill-opacity="0.4"><g transform="translate(180.417874, 296.578732)"><g><path d="M 6.4375 -1.84375 L 2.140625 -1.96875 L 1.1875 0.03125 L -0.015625 0 L 3.890625 -8 L 5.046875 -7.96875 L 8.484375 0.25 L 7.265625 0.21875 Z M 6.046875 -2.78125 L 4.421875 -6.796875 L 2.5625 -2.875 Z M 6.046875 -2.78125 "/></g></g></g><g fill="#c48593" fill-opacity="0.4"><g transform="translate(193.997993, 296.661069)"><g><path d="M 7.28125 -8.921875 L 8.140625 -0.859375 L 7.1875 -0.765625 L 1.71875 -6.265625 L 2.359375 -0.25 L 1.21875 -0.125 L 0.359375 -8.1875 L 1.296875 -8.296875 L 6.765625 -2.78125 L 6.125 -8.796875 Z M 7.28125 -8.921875 "/></g></g></g><g fill="#c48593" fill-opacity="0.4"><g transform="translate(208.396655, 294.778309)"><g><path d="M 5.96875 -9.859375 L 7.9375 -1.984375 L 7.015625 -1.75 L 0.828125 -6.4375 L 2.296875 -0.578125 L 1.1875 -0.296875 L -0.78125 -8.171875 L 0.140625 -8.40625 L 6.328125 -3.703125 L 4.859375 -9.578125 Z M 5.96875 -9.859375 "/></g></g></g><g fill="#c48593" fill-opacity="0.4"><g transform="translate(222.372224, 290.903682)"><g><path d="M 5.171875 -4.25 L 1.1875 -2.65625 L 1.109375 -0.4375 L -0.015625 0 L 0.390625 -8.890625 L 1.46875 -9.3125 L 7.875 -3.140625 L 6.75 -2.6875 Z M 4.453125 -4.953125 L 1.359375 -8 L 1.21875 -3.671875 Z M 4.453125 -4.953125 "/></g></g></g><g fill="#c48593" fill-opacity="1"><g transform="translate(144.619667, 287.254608)"><g><path d="M 6.171875 2.453125 L 5.46875 -0.5 C 5.257812 -0.570312 5.097656 -0.628906 4.984375 -0.671875 L 3.125 -1.421875 L 2.203125 0.875 L 1.125 0.453125 L 4.125 -7.078125 L 7.0625 -5.90625 C 8.039062 -5.519531 8.710938 -4.976562 9.078125 -4.28125 C 9.453125 -3.59375 9.476562 -2.84375 9.15625 -2.03125 C 8.925781 -1.445312 8.582031 -1.003906 8.125 -0.703125 C 7.675781 -0.410156 7.148438 -0.285156 6.546875 -0.328125 L 7.328125 2.921875 Z M 5.3125 -1.59375 C 5.988281 -1.320312 6.5625 -1.265625 7.03125 -1.421875 C 7.507812 -1.578125 7.859375 -1.925781 8.078125 -2.46875 C 8.296875 -3.007812 8.28125 -3.492188 8.03125 -3.921875 C 7.789062 -4.359375 7.332031 -4.710938 6.65625 -4.984375 L 4.828125 -5.71875 L 3.484375 -2.328125 Z M 5.3125 -1.59375 "/></g></g></g><g fill="#c48593" fill-opacity="1"><g transform="translate(157.21574, 291.857538)"><g><path d="M 3.359375 -7.484375 L 4.46875 -7.171875 L 2.28125 0.640625 L 1.171875 0.328125 Z M 3.359375 -7.484375 "/></g></g></g><g fill="#c48593" fill-opacity="1"><g transform="translate(165.540903, 294.074859)"><g><path d="M 9.40625 -6.671875 L 8.078125 1.328125 L 6.9375 1.140625 L 7.53125 -2.421875 L 2.9375 -3.171875 L 2.34375 0.390625 L 1.203125 0.203125 L 2.53125 -7.796875 L 3.671875 -7.609375 L 3.09375 -4.171875 L 7.6875 -3.421875 L 8.265625 -6.859375 Z M 9.40625 -6.671875 "/></g></g></g><g fill="#c48593" fill-opacity="1"><g transform="translate(179.906161, 296.067033)"><g><path d="M 6.4375 -1.84375 L 2.140625 -1.96875 L 1.1875 0.03125 L -0.015625 0 L 3.890625 -8 L 5.046875 -7.96875 L 8.484375 0.25 L 7.265625 0.21875 Z M 6.046875 -2.78125 L 4.421875 -6.796875 L 2.5625 -2.875 Z M 6.046875 -2.78125 "/></g></g></g><g fill="#c48593" fill-opacity="1"><g transform="translate(193.486279, 296.149399)"><g><path d="M 7.28125 -8.921875 L 8.140625 -0.859375 L 7.1875 -0.765625 L 1.71875 -6.265625 L 2.359375 -0.25 L 1.21875 -0.125 L 0.359375 -8.1875 L 1.296875 -8.296875 L 6.765625 -2.78125 L 6.125 -8.796875 Z M 7.28125 -8.921875 "/></g></g></g><g fill="#c48593" fill-opacity="1"><g transform="translate(207.884956, 294.26661)"><g><path d="M 5.96875 -9.859375 L 7.9375 -1.984375 L 7.015625 -1.75 L 0.828125 -6.4375 L 2.296875 -0.578125 L 1.1875 -0.296875 L -0.78125 -8.171875 L 0.140625 -8.40625 L 6.328125 -3.703125 L 4.859375 -9.578125 Z M 5.96875 -9.859375 "/></g></g></g><g fill="#c48593" fill-opacity="1"><g transform="translate(221.860539, 290.391983)"><g><path d="M 5.171875 -4.25 L 1.1875 -2.65625 L 1.109375 -0.4375 L -0.015625 0 L 0.390625 -8.890625 L 1.46875 -9.3125 L 7.875 -3.140625 L 6.75 -2.6875 Z M 4.453125 -4.953125 L 1.359375 -8 L 1.21875 -3.671875 Z M 4.453125 -4.953125 "/></g></g></g><g clip-path="url(#70708e8360)"><g clip-path="url(#dcc3434bf3)"><path fill="#ff009a" d="M 170.015625 117.25 L 204.984375 117.25 L 204.984375 150.578125 L 170.015625 150.578125 Z M 170.015625 117.25 " fill-opacity="1" fill-rule="nonzero"/></g></g><g clip-path="url(#3e617b0e6e)"><g clip-path="url(#426e66f683)"><path fill="#ff009a" d="M 170.015625 214.816406 L 204.984375 214.816406 L 204.984375 248.144531 L 170.015625 248.144531 Z M 170.015625 214.816406 " fill-opacity="1" fill-rule="nonzero"/></g></g><g fill="#ff5ebf" fill-opacity="0.4"><g transform="translate(137.510694, 190.731717)"><g><path d="M 5.789062 -8.417969 C 8.394531 -5.472656 7.28125 3.078125 14.824219 3.078125 C 15.269531 3.078125 16.5 2.816406 16.5 2.292969 C 16.5 1.792969 14.769531 0.796875 14.363281 0.378906 C 12.085938 -2.03125 10.632812 -6.3125 9.140625 -8.890625 C 11.128906 -9.285156 16.65625 -11 16.65625 -16 C 16.65625 -19.273438 14.546875 -20.847656 10.804688 -20.847656 C 8.25 -20.847656 3.769531 -19.289062 3.769531 -19.289062 C 3.769531 -19.289062 -1.101562 -4.570312 -1.101562 -1.820312 C -1.101562 -0.234375 0.589844 0.171875 2.015625 0.171875 C 3.117188 -2.683594 3.574219 -5.695312 4.320312 -8.367188 C 4.871094 -8.40625 5.238281 -8.417969 5.789062 -8.417969 Z M 5.183594 -10.882812 C 5.183594 -11.757812 6.3125 -14.691406 6.757812 -16.394531 C 7.398438 -16.722656 8.746094 -16.957031 10.109375 -16.957031 C 11.996094 -16.957031 13.894531 -16.511719 13.894531 -15.230469 C 13.894531 -13.355469 9.363281 -10.855469 5.8125 -10.855469 C 5.605469 -10.855469 5.394531 -10.867188 5.183594 -10.882812 Z M 5.183594 -10.882812 "/></g></g></g><g fill="#ff5ebf" fill-opacity="0.4"><g transform="translate(152.954086, 190.731717)"><g><path d="M 3.71875 -11.941406 C 3.5625 -12.046875 3.417969 -12.097656 3.273438 -12.097656 C 1.726562 -12.097656 -0.863281 -6.195312 -0.863281 -3.457031 C -0.863281 -2.761719 -0.734375 -2.160156 -0.417969 -1.703125 C -0.078125 -1.203125 2.800781 0.25 3.808594 0.25 C 5.382812 0.25 9.179688 -4.882812 9.976562 -6.585938 C 9.992188 -6.652344 9.390625 -7.070312 8.890625 -7.765625 C 7.398438 -6.285156 4.820312 -3.667969 3.0625 -2.800781 C 3.011719 -2.972656 2.984375 -3.183594 2.984375 -3.40625 C 2.984375 -5.160156 4.453125 -8.300781 5.328125 -9.296875 C 5.015625 -10.382812 4.675781 -11.25 3.71875 -11.941406 Z M 3.5625 -15.058594 C 3.5625 -13.800781 4.792969 -12.859375 6.296875 -12.859375 C 7.085938 -12.859375 7.359375 -13.304688 7.359375 -13.878906 C 7.359375 -15.453125 6.335938 -16.683594 5.578125 -16.683594 C 4.976562 -16.683594 4.085938 -16.605469 4.085938 -16.605469 C 3.757812 -16.105469 3.5625 -15.59375 3.5625 -15.058594 Z M 3.5625 -15.058594 "/></g></g></g><g fill="#ff5ebf" fill-opacity="0.4"><g transform="translate(161.408694, 190.731717)"><g><path d="M 12.007812 -19.941406 C 11.96875 -20.859375 10.476562 -22.234375 9.507812 -22.234375 C 6.3125 -22.234375 3.222656 -15.777344 2.34375 -13.421875 C 1.664062 -11.574219 0.746094 -9.335938 0.0507812 -7.308594 C -0.472656 -5.761719 -1.308594 -1.636719 -1.492188 -0.523438 C -1.492188 -0.484375 -1.507812 -0.457031 -1.507812 -0.433594 C -1.507812 0.0664062 -0.796875 0.261719 -0.394531 0.261719 C 1.453125 0.261719 2.109375 -1.726562 3.261719 -3.222656 C 4.214844 -4.464844 6.820312 -7.320312 8.445312 -7.347656 C 7.660156 -5.421875 6.050781 -3.601562 5.75 -1.519531 C 5.734375 -1.414062 5.722656 -1.308594 5.722656 -1.21875 C 5.722656 0.40625 7.371094 0.667969 8.707031 0.667969 C 11.195312 0.667969 14.757812 -4.046875 16.199219 -6.246094 L 15.148438 -7.816406 C 12.898438 -5.394531 10.148438 -2.699219 8.785156 -1.820312 C 9.46875 -4.03125 11.796875 -6.390625 11.796875 -8.707031 C 11.796875 -9.625 11.535156 -10.84375 10.867188 -10.84375 C 8.601562 -10.84375 5.472656 -7.4375 4.542969 -7.058594 C 4.53125 -7.058594 4.519531 -7.042969 4.503906 -7.042969 C 4.464844 -7.042969 4.425781 -7.070312 4.398438 -7.085938 C 4.609375 -7.832031 7.476562 -10.332031 8.039062 -11.078125 C 9.652344 -13.210938 12.007812 -17.007812 12.007812 -19.941406 Z M 9.207031 -17.886719 C 9.21875 -17.914062 9.285156 -17.898438 9.441406 -17.914062 C 8.65625 -15.203125 7.816406 -13.644531 4.949219 -10.109375 L 4.949219 -10.1875 C 4.949219 -12.035156 7.871094 -16.261719 9.207031 -17.886719 Z M 9.207031 -17.886719 "/></g></g></g><g fill="#ff5ebf" fill-opacity="0.4"><g transform="translate(176.093007, 190.731717)"><g><path d="M 9.113281 0.96875 C 10.042969 0.96875 11.039062 0.71875 11.96875 0.222656 C 14.167969 -0.929688 16.105469 -2.59375 17.496094 -4.675781 C 17.664062 -4.921875 17.808594 -5.316406 17.808594 -5.761719 C 17.808594 -6.257812 17.625 -6.847656 17.0625 -7.410156 C 15.148438 -5.394531 10.722656 -1.636719 9.613281 -1.636719 C 9.441406 -1.636719 9.335938 -1.714844 9.335938 -1.910156 C 9.335938 -1.964844 9.347656 -2.015625 9.363281 -2.082031 C 9.664062 -3.507812 10.277344 -4.753906 11.234375 -6.179688 C 11.746094 -6.953125 11.980469 -7.371094 11.980469 -7.738281 C 11.980469 -8.144531 11.695312 -8.511719 11.105469 -9.207031 C 10.816406 -9.546875 10.488281 -9.675781 10.1875 -9.675781 C 9.832031 -9.675781 9.492188 -9.492188 9.285156 -9.257812 C 7.882812 -10.566406 6.574219 -11.167969 5.328125 -11.167969 C 3.851562 -11.167969 2.449219 -10.320312 1.0625 -8.839844 C 0.0507812 -7.75 -0.589844 -6.441406 -0.589844 -4.882812 C -0.589844 -3.835938 -0.300781 -2.683594 0.355469 -1.414062 C 0.535156 -1.074219 1.464844 -0.746094 2.671875 -0.746094 C 3.785156 -0.746094 5.132812 -1.019531 6.324219 -1.820312 C 6.207031 -1.480469 6.074219 -1.125 6.074219 -0.785156 C 6.074219 0.496094 8.132812 0.96875 9.113281 0.96875 Z M 6.863281 -8.800781 C 7.648438 -8.800781 8.511719 -8.238281 8.511719 -7.871094 C 8.511719 -7.84375 8.511719 -7.816406 8.5 -7.792969 C 7.570312 -5.828125 5.917969 -3.285156 3.851562 -3.285156 C 3.40625 -3.285156 3.0625 -3.40625 3.0625 -3.941406 C 3.0625 -5.34375 5.511719 -8.539062 6.535156 -8.761719 C 6.640625 -8.785156 6.742188 -8.800781 6.863281 -8.800781 Z M 6.863281 -8.800781 "/></g></g></g><g fill="#ff5ebf" fill-opacity="0.4"><g transform="translate(193.041482, 190.731717)"><g><path d="M 0.3125 -0.511719 C 0.5625 -0.105469 1.625 0.300781 2.460938 0.300781 C 4.019531 0.300781 4.949219 -5.449219 6.558594 -5.878906 C 6.679688 -5.878906 6.703125 -5.589844 6.703125 -5.132812 C 6.703125 -4.699219 6.679688 -4.125 6.679688 -3.496094 C 6.679688 -1.609375 6.902344 0.71875 8.707031 0.71875 C 12.726562 0.71875 15.792969 -4.175781 17.035156 -5.984375 L 15.988281 -7.515625 C 14.613281 -5.972656 11.195312 -2.109375 10.160156 -2.109375 C 9.925781 -2.109375 9.769531 -2.332031 9.769531 -2.867188 C 9.769531 -4.320312 10.398438 -5.628906 10.398438 -6.914062 C 10.398438 -8.25 9.085938 -10.214844 7.53125 -10.214844 C 6.664062 -10.214844 4.871094 -8.773438 4.175781 -7.609375 C 4.058594 -8.328125 3.429688 -9.335938 2.632812 -9.335938 C 1.425781 -9.335938 0.132812 -7.582031 -0.445312 -6.640625 L 0.523438 -5.183594 C 0.589844 -5.25 1.453125 -5.996094 1.609375 -5.996094 C 1.664062 -5.996094 1.871094 -5.839844 1.871094 -5.105469 C 1.871094 -4.152344 0.589844 -1.230469 0.3125 -0.511719 Z M 0.3125 -0.511719 "/></g></g></g><g fill="#ff5ebf" fill-opacity="0.4"><g transform="translate(208.825156, 190.731717)"><g><path d="M 0.3125 -0.511719 C 0.5625 -0.105469 1.625 0.300781 2.460938 0.300781 C 4.019531 0.300781 4.949219 -5.449219 6.558594 -5.878906 C 6.679688 -5.878906 6.703125 -5.589844 6.703125 -5.132812 C 6.703125 -4.699219 6.679688 -4.125 6.679688 -3.496094 C 6.679688 -1.609375 6.902344 0.71875 8.707031 0.71875 C 12.726562 0.71875 15.792969 -4.175781 17.035156 -5.984375 L 15.988281 -7.515625 C 14.613281 -5.972656 11.195312 -2.109375 10.160156 -2.109375 C 9.925781 -2.109375 9.769531 -2.332031 9.769531 -2.867188 C 9.769531 -4.320312 10.398438 -5.628906 10.398438 -6.914062 C 10.398438 -8.25 9.085938 -10.214844 7.53125 -10.214844 C 6.664062 -10.214844 4.871094 -8.773438 4.175781 -7.609375 C 4.058594 -8.328125 3.429688 -9.335938 2.632812 -9.335938 C 1.425781 -9.335938 0.132812 -7.582031 -0.445312 -6.640625 L 0.523438 -5.183594 C 0.589844 -5.25 1.453125 -5.996094 1.609375 -5.996094 C 1.664062 -5.996094 1.871094 -5.839844 1.871094 -5.105469 C 1.871094 -4.152344 0.589844 -1.230469 0.3125 -0.511719 Z M 0.3125 -0.511719 "/></g></g></g><g fill="#ff5ebf" fill-opacity="0.4"><g transform="translate(224.60883, 190.731717)"><g><path d="M 9.113281 0.96875 C 10.042969 0.96875 11.039062 0.71875 11.96875 0.222656 C 14.167969 -0.929688 16.105469 -2.59375 17.496094 -4.675781 C 17.664062 -4.921875 17.808594 -5.316406 17.808594 -5.761719 C 17.808594 -6.257812 17.625 -6.847656 17.0625 -7.410156 C 15.148438 -5.394531 10.722656 -1.636719 9.613281 -1.636719 C 9.441406 -1.636719 9.335938 -1.714844 9.335938 -1.910156 C 9.335938 -1.964844 9.347656 -2.015625 9.363281 -2.082031 C 9.664062 -3.507812 10.277344 -4.753906 11.234375 -6.179688 C 11.746094 -6.953125 11.980469 -7.371094 11.980469 -7.738281 C 11.980469 -8.144531 11.695312 -8.511719 11.105469 -9.207031 C 10.816406 -9.546875 10.488281 -9.675781 10.1875 -9.675781 C 9.832031 -9.675781 9.492188 -9.492188 9.285156 -9.257812 C 7.882812 -10.566406 6.574219 -11.167969 5.328125 -11.167969 C 3.851562 -11.167969 2.449219 -10.320312 1.0625 -8.839844 C 0.0507812 -7.75 -0.589844 -6.441406 -0.589844 -4.882812 C -0.589844 -3.835938 -0.300781 -2.683594 0.355469 -1.414062 C 0.535156 -1.074219 1.464844 -0.746094 2.671875 -0.746094 C 3.785156 -0.746094 5.132812 -1.019531 6.324219 -1.820312 C 6.207031 -1.480469 6.074219 -1.125 6.074219 -0.785156 C 6.074219 0.496094 8.132812 0.96875 9.113281 0.96875 Z M 6.863281 -8.800781 C 7.648438 -8.800781 8.511719 -8.238281 8.511719 -7.871094 C 8.511719 -7.84375 8.511719 -7.816406 8.5 -7.792969 C 7.570312 -5.828125 5.917969 -3.285156 3.851562 -3.285156 C 3.40625 -3.285156 3.0625 -3.40625 3.0625 -3.941406 C 3.0625 -5.34375 5.511719 -8.539062 6.535156 -8.761719 C 6.640625 -8.785156 6.742188 -8.800781 6.863281 -8.800781 Z M 6.863281 -8.800781 "/></g></g></g><g fill="#ff5ebf" fill-opacity="1"><g transform="translate(135.473272, 188.694295)"><g><path d="M 5.789062 -8.417969 C 8.394531 -5.472656 7.28125 3.078125 14.824219 3.078125 C 15.269531 3.078125 16.5 2.816406 16.5 2.292969 C 16.5 1.792969 14.769531 0.796875 14.363281 0.378906 C 12.085938 -2.03125 10.632812 -6.3125 9.140625 -8.890625 C 11.128906 -9.285156 16.65625 -11 16.65625 -16 C 16.65625 -19.273438 14.546875 -20.847656 10.804688 -20.847656 C 8.25 -20.847656 3.769531 -19.289062 3.769531 -19.289062 C 3.769531 -19.289062 -1.101562 -4.570312 -1.101562 -1.820312 C -1.101562 -0.234375 0.589844 0.171875 2.015625 0.171875 C 3.117188 -2.683594 3.574219 -5.695312 4.320312 -8.367188 C 4.871094 -8.40625 5.238281 -8.417969 5.789062 -8.417969 Z M 5.183594 -10.882812 C 5.183594 -11.757812 6.3125 -14.691406 6.757812 -16.394531 C 7.398438 -16.722656 8.746094 -16.957031 10.109375 -16.957031 C 11.996094 -16.957031 13.894531 -16.511719 13.894531 -15.230469 C 13.894531 -13.355469 9.363281 -10.855469 5.8125 -10.855469 C 5.605469 -10.855469 5.394531 -10.867188 5.183594 -10.882812 Z M 5.183594 -10.882812 "/></g></g></g><g fill="#ff5ebf" fill-opacity="1"><g transform="translate(150.916664, 188.694295)"><g><path d="M 3.71875 -11.941406 C 3.5625 -12.046875 3.417969 -12.097656 3.273438 -12.097656 C 1.726562 -12.097656 -0.863281 -6.195312 -0.863281 -3.457031 C -0.863281 -2.761719 -0.734375 -2.160156 -0.417969 -1.703125 C -0.078125 -1.203125 2.800781 0.25 3.808594 0.25 C 5.382812 0.25 9.179688 -4.882812 9.976562 -6.585938 C 9.992188 -6.652344 9.390625 -7.070312 8.890625 -7.765625 C 7.398438 -6.285156 4.820312 -3.667969 3.0625 -2.800781 C 3.011719 -2.972656 2.984375 -3.183594 2.984375 -3.40625 C 2.984375 -5.160156 4.453125 -8.300781 5.328125 -9.296875 C 5.015625 -10.382812 4.675781 -11.25 3.71875 -11.941406 Z M 3.5625 -15.058594 C 3.5625 -13.800781 4.792969 -12.859375 6.296875 -12.859375 C 7.085938 -12.859375 7.359375 -13.304688 7.359375 -13.878906 C 7.359375 -15.453125 6.335938 -16.683594 5.578125 -16.683594 C 4.976562 -16.683594 4.085938 -16.605469 4.085938 -16.605469 C 3.757812 -16.105469 3.5625 -15.59375 3.5625 -15.058594 Z M 3.5625 -15.058594 "/></g></g></g><g fill="#ff5ebf" fill-opacity="1"><g transform="translate(159.371272, 188.694295)"><g><path d="M 12.007812 -19.941406 C 11.96875 -20.859375 10.476562 -22.234375 9.507812 -22.234375 C 6.3125 -22.234375 3.222656 -15.777344 2.34375 -13.421875 C 1.664062 -11.574219 0.746094 -9.335938 0.0507812 -7.308594 C -0.472656 -5.761719 -1.308594 -1.636719 -1.492188 -0.523438 C -1.492188 -0.484375 -1.507812 -0.457031 -1.507812 -0.433594 C -1.507812 0.0664062 -0.796875 0.261719 -0.394531 0.261719 C 1.453125 0.261719 2.109375 -1.726562 3.261719 -3.222656 C 4.214844 -4.464844 6.820312 -7.320312 8.445312 -7.347656 C 7.660156 -5.421875 6.050781 -3.601562 5.75 -1.519531 C 5.734375 -1.414062 5.722656 -1.308594 5.722656 -1.21875 C 5.722656 0.40625 7.371094 0.667969 8.707031 0.667969 C 11.195312 0.667969 14.757812 -4.046875 16.199219 -6.246094 L 15.148438 -7.816406 C 12.898438 -5.394531 10.148438 -2.699219 8.785156 -1.820312 C 9.46875 -4.03125 11.796875 -6.390625 11.796875 -8.707031 C 11.796875 -9.625 11.535156 -10.84375 10.867188 -10.84375 C 8.601562 -10.84375 5.472656 -7.4375 4.542969 -7.058594 C 4.53125 -7.058594 4.519531 -7.042969 4.503906 -7.042969 C 4.464844 -7.042969 4.425781 -7.070312 4.398438 -7.085938 C 4.609375 -7.832031 7.476562 -10.332031 8.039062 -11.078125 C 9.652344 -13.210938 12.007812 -17.007812 12.007812 -19.941406 Z M 9.207031 -17.886719 C 9.21875 -17.914062 9.285156 -17.898438 9.441406 -17.914062 C 8.65625 -15.203125 7.816406 -13.644531 4.949219 -10.109375 L 4.949219 -10.1875 C 4.949219 -12.035156 7.871094 -16.261719 9.207031 -17.886719 Z M 9.207031 -17.886719 "/></g></g></g><g fill="#ff5ebf" fill-opacity="1"><g transform="translate(174.055585, 188.694295)"><g><path d="M 9.113281 0.96875 C 10.042969 0.96875 11.039062 0.71875 11.96875 0.222656 C 14.167969 -0.929688 16.105469 -2.59375 17.496094 -4.675781 C 17.664062 -4.921875 17.808594 -5.316406 17.808594 -5.761719 C 17.808594 -6.257812 17.625 -6.847656 17.0625 -7.410156 C 15.148438 -5.394531 10.722656 -1.636719 9.613281 -1.636719 C 9.441406 -1.636719 9.335938 -1.714844 9.335938 -1.910156 C 9.335938 -1.964844 9.347656 -2.015625 9.363281 -2.082031 C 9.664062 -3.507812 10.277344 -4.753906 11.234375 -6.179688 C 11.746094 -6.953125 11.980469 -7.371094 11.980469 -7.738281 C 11.980469 -8.144531 11.695312 -8.511719 11.105469 -9.207031 C 10.816406 -9.546875 10.488281 -9.675781 10.1875 -9.675781 C 9.832031 -9.675781 9.492188 -9.492188 9.285156 -9.257812 C 7.882812 -10.566406 6.574219 -11.167969 5.328125 -11.167969 C 3.851562 -11.167969 2.449219 -10.320312 1.0625 -8.839844 C 0.0507812 -7.75 -0.589844 -6.441406 -0.589844 -4.882812 C -0.589844 -3.835938 -0.300781 -2.683594 0.355469 -1.414062 C 0.535156 -1.074219 1.464844 -0.746094 2.671875 -0.746094 C 3.785156 -0.746094 5.132812 -1.019531 6.324219 -1.820312 C 6.207031 -1.480469 6.074219 -1.125 6.074219 -0.785156 C 6.074219 0.496094 8.132812 0.96875 9.113281 0.96875 Z M 6.863281 -8.800781 C 7.648438 -8.800781 8.511719 -8.238281 8.511719 -7.871094 C 8.511719 -7.84375 8.511719 -7.816406 8.5 -7.792969 C 7.570312 -5.828125 5.917969 -3.285156 3.851562 -3.285156 C 3.40625 -3.285156 3.0625 -3.40625 3.0625 -3.941406 C 3.0625 -5.34375 5.511719 -8.539062 6.535156 -8.761719 C 6.640625 -8.785156 6.742188 -8.800781 6.863281 -8.800781 Z M 6.863281 -8.800781 "/></g></g></g><g fill="#ff5ebf" fill-opacity="1"><g transform="translate(191.004059, 188.694295)"><g><path d="M 0.3125 -0.511719 C 0.5625 -0.105469 1.625 0.300781 2.460938 0.300781 C 4.019531 0.300781 4.949219 -5.449219 6.558594 -5.878906 C 6.679688 -5.878906 6.703125 -5.589844 6.703125 -5.132812 C 6.703125 -4.699219 6.679688 -4.125 6.679688 -3.496094 C 6.679688 -1.609375 6.902344 0.71875 8.707031 0.71875 C 12.726562 0.71875 15.792969 -4.175781 17.035156 -5.984375 L 15.988281 -7.515625 C 14.613281 -5.972656 11.195312 -2.109375 10.160156 -2.109375 C 9.925781 -2.109375 9.769531 -2.332031 9.769531 -2.867188 C 9.769531 -4.320312 10.398438 -5.628906 10.398438 -6.914062 C 10.398438 -8.25 9.085938 -10.214844 7.53125 -10.214844 C 6.664062 -10.214844 4.871094 -8.773438 4.175781 -7.609375 C 4.058594 -8.328125 3.429688 -9.335938 2.632812 -9.335938 C 1.425781 -9.335938 0.132812 -7.582031 -0.445312 -6.640625 L 0.523438 -5.183594 C 0.589844 -5.25 1.453125 -5.996094 1.609375 -5.996094 C 1.664062 -5.996094 1.871094 -5.839844 1.871094 -5.105469 C 1.871094 -4.152344 0.589844 -1.230469 0.3125 -0.511719 Z M 0.3125 -0.511719 "/></g></g></g><g fill="#ff5ebf" fill-opacity="1"><g transform="translate(206.787733, 188.694295)"><g><path d="M 0.3125 -0.511719 C 0.5625 -0.105469 1.625 0.300781 2.460938 0.300781 C 4.019531 0.300781 4.949219 -5.449219 6.558594 -5.878906 C 6.679688 -5.878906 6.703125 -5.589844 6.703125 -5.132812 C 6.703125 -4.699219 6.679688 -4.125 6.679688 -3.496094 C 6.679688 -1.609375 6.902344 0.71875 8.707031 0.71875 C 12.726562 0.71875 15.792969 -4.175781 17.035156 -5.984375 L 15.988281 -7.515625 C 14.613281 -5.972656 11.195312 -2.109375 10.160156 -2.109375 C 9.925781 -2.109375 9.769531 -2.332031 9.769531 -2.867188 C 9.769531 -4.320312 10.398438 -5.628906 10.398438 -6.914062 C 10.398438 -8.25 9.085938 -10.214844 7.53125 -10.214844 C 6.664062 -10.214844 4.871094 -8.773438 4.175781 -7.609375 C 4.058594 -8.328125 3.429688 -9.335938 2.632812 -9.335938 C 1.425781 -9.335938 0.132812 -7.582031 -0.445312 -6.640625 L 0.523438 -5.183594 C 0.589844 -5.25 1.453125 -5.996094 1.609375 -5.996094 C 1.664062 -5.996094 1.871094 -5.839844 1.871094 -5.105469 C 1.871094 -4.152344 0.589844 -1.230469 0.3125 -0.511719 Z M 0.3125 -0.511719 "/></g></g></g><g fill="#ff5ebf" fill-opacity="1"><g transform="translate(222.571408, 188.694295)"><g><path d="M 9.113281 0.96875 C 10.042969 0.96875 11.039062 0.71875 11.96875 0.222656 C 14.167969 -0.929688 16.105469 -2.59375 17.496094 -4.675781 C 17.664062 -4.921875 17.808594 -5.316406 17.808594 -5.761719 C 17.808594 -6.257812 17.625 -6.847656 17.0625 -7.410156 C 15.148438 -5.394531 10.722656 -1.636719 9.613281 -1.636719 C 9.441406 -1.636719 9.335938 -1.714844 9.335938 -1.910156 C 9.335938 -1.964844 9.347656 -2.015625 9.363281 -2.082031 C 9.664062 -3.507812 10.277344 -4.753906 11.234375 -6.179688 C 11.746094 -6.953125 11.980469 -7.371094 11.980469 -7.738281 C 11.980469 -8.144531 11.695312 -8.511719 11.105469 -9.207031 C 10.816406 -9.546875 10.488281 -9.675781 10.1875 -9.675781 C 9.832031 -9.675781 9.492188 -9.492188 9.285156 -9.257812 C 7.882812 -10.566406 6.574219 -11.167969 5.328125 -11.167969 C 3.851562 -11.167969 2.449219 -10.320312 1.0625 -8.839844 C 0.0507812 -7.75 -0.589844 -6.441406 -0.589844 -4.882812 C -0.589844 -3.835938 -0.300781 -2.683594 0.355469 -1.414062 C 0.535156 -1.074219 1.464844 -0.746094 2.671875 -0.746094 C 3.785156 -0.746094 5.132812 -1.019531 6.324219 -1.820312 C 6.207031 -1.480469 6.074219 -1.125 6.074219 -0.785156 C 6.074219 0.496094 8.132812 0.96875 9.113281 0.96875 Z M 6.863281 -8.800781 C 7.648438 -8.800781 8.511719 -8.238281 8.511719 -7.871094 C 8.511719 -7.84375 8.511719 -7.816406 8.5 -7.792969 C 7.570312 -5.828125 5.917969 -3.285156 3.851562 -3.285156 C 3.40625 -3.285156 3.0625 -3.40625 3.0625 -3.941406 C 3.0625 -5.34375 5.511719 -8.539062 6.535156 -8.761719 C 6.640625 -8.785156 6.742188 -8.800781 6.863281 -8.800781 Z M 6.863281 -8.800781 "/></g></g></g></svg>