<svg xmlns="http://www.w3.org/2000/svg" xmlns:xlink="http://www.w3.org/1999/xlink" width="500" zoomAndPan="magnify" viewBox="0 0 375 374.999991" height="500" preserveAspectRatio="xMidYMid meet" version="1.0"><defs><g/><clipPath id="de2da01bc1"><path d="M 37.5 37.5 L 337.5 37.5 L 337.5 337.5 L 37.5 337.5 Z M 37.5 37.5 " clip-rule="nonzero"/></clipPath><clipPath id="0438d35db7"><path d="M 187.5 37.5 C 104.65625 37.5 37.5 104.65625 37.5 187.5 C 37.5 270.34375 104.65625 337.5 187.5 337.5 C 270.34375 337.5 337.5 270.34375 337.5 187.5 C 337.5 104.65625 270.34375 37.5 187.5 37.5 Z M 187.5 37.5 " clip-rule="nonzero"/></clipPath><clipPath id="7261eb304c"><path d="M 91.289062 91.289062 L 283.710938 91.289062 L 283.710938 283.710938 L 91.289062 283.710938 Z M 91.289062 91.289062 " clip-rule="nonzero"/></clipPath><clipPath id="d212a402c6"><path d="M 187.5 91.289062 C 134.363281 91.289062 91.289062 134.363281 91.289062 187.5 C 91.289062 240.636719 134.363281 283.710938 187.5 283.710938 C 240.636719 283.710938 283.710938 240.636719 283.710938 187.5 C 283.710938 134.363281 240.636719 91.289062 187.5 91.289062 Z M 187.5 91.289062 " clip-rule="nonzero"/></clipPath><clipPath id="7df5ecc813"><path d="M 91.289062 91.289062 L 283.699219 91.289062 L 283.699219 283.699219 L 91.289062 283.699219 Z M 91.289062 91.289062 " clip-rule="nonzero"/></clipPath><clipPath id="34464df659"><path d="M 187.496094 91.289062 C 134.363281 91.289062 91.289062 134.363281 91.289062 187.496094 C 91.289062 240.628906 134.363281 283.699219 187.496094 283.699219 C 240.628906 283.699219 283.699219 240.628906 283.699219 187.496094 C 283.699219 134.363281 240.628906 91.289062 187.496094 91.289062 Z M 187.496094 91.289062 " clip-rule="nonzero"/></clipPath><clipPath id="d514d683e7"><path d="M 52.179688 194.597656 L 73.929688 194.597656 L 73.929688 216.347656 L 52.179688 216.347656 Z M 52.179688 194.597656 " clip-rule="nonzero"/></clipPath><clipPath id="a099a1e2ef"><path d="M 300.828125 194.597656 L 322.578125 194.597656 L 322.578125 216.347656 L 300.828125 216.347656 Z M 300.828125 194.597656 " clip-rule="nonzero"/></clipPath><clipPath id="676f06316d"><path d="M 121.46875 159 L 253.523438 159 L 253.523438 245.789062 L 121.46875 245.789062 Z M 121.46875 159 " clip-rule="nonzero"/></clipPath><clipPath id="27b1e93d8b"><path d="M 192.703125 122.25 L 206.558594 150.890625 C 207.613281 153.070312 209.113281 154.882812 211.058594 156.320312 C 213.007812 157.757812 215.175781 158.664062 217.566406 159.027344 L 248.964844 163.835938 C 253.351562 164.507812 255.0625 169.925781 251.863281 173.003906 L 228.953125 195.050781 C 227.207031 196.730469 225.953125 198.71875 225.1875 201.019531 C 224.425781 203.320312 224.238281 205.664062 224.628906 208.058594 L 229.769531 239.460938 C 230.484375 243.847656 225.871094 247.15625 221.960938 245.058594 L 193.957031 230.050781 C 191.824219 228.90625 189.546875 228.328125 187.128906 228.308594 C 184.707031 228.289062 182.425781 228.839844 180.273438 229.949219 L 152.054688 244.542969 C 148.113281 246.585938 143.546875 243.210938 144.328125 238.832031 L 149.925781 207.511719 C 150.351562 205.125 150.203125 202.777344 149.46875 200.464844 C 148.738281 198.15625 147.515625 196.148438 145.792969 194.445312 L 123.214844 172.058594 C 120.058594 168.9375 121.851562 163.539062 126.246094 162.933594 L 157.710938 158.589844 C 160.109375 158.257812 162.292969 157.386719 164.261719 155.976562 C 166.226562 154.566406 167.757812 152.78125 168.84375 150.613281 L 183.105469 122.183594 C 185.097656 118.210938 190.769531 118.25 192.703125 122.25 Z M 192.703125 122.25 " clip-rule="nonzero"/></clipPath><clipPath id="4146dac92c"><path d="M 121.46875 155 L 253.523438 155 L 253.523438 245.789062 L 121.46875 245.789062 Z M 121.46875 155 " clip-rule="nonzero"/></clipPath><clipPath id="fbfb064c35"><path d="M 192.703125 122.25 L 206.558594 150.890625 C 207.613281 153.070312 209.113281 154.882812 211.058594 156.320312 C 213.007812 157.757812 215.175781 158.664062 217.566406 159.027344 L 248.964844 163.835938 C 253.351562 164.507812 255.0625 169.925781 251.863281 173.003906 L 228.953125 195.050781 C 227.207031 196.730469 225.953125 198.71875 225.1875 201.019531 C 224.425781 203.320312 224.238281 205.664062 224.628906 208.058594 L 229.769531 239.460938 C 230.484375 243.847656 225.871094 247.15625 221.960938 245.058594 L 193.957031 230.050781 C 191.824219 228.90625 189.546875 228.328125 187.128906 228.308594 C 184.707031 228.289062 182.425781 228.839844 180.273438 229.949219 L 152.054688 244.542969 C 148.113281 246.585938 143.546875 243.210938 144.328125 238.832031 L 149.925781 207.511719 C 150.351562 205.125 150.203125 202.777344 149.46875 200.464844 C 148.738281 198.15625 147.515625 196.148438 145.792969 194.445312 L 123.214844 172.058594 C 120.058594 168.9375 121.851562 163.539062 126.246094 162.933594 L 157.710938 158.589844 C 160.109375 158.257812 162.292969 157.386719 164.261719 155.976562 C 166.226562 154.566406 167.757812 152.78125 168.84375 150.613281 L 183.105469 122.183594 C 185.097656 118.210938 190.769531 118.25 192.703125 122.25 Z M 192.703125 122.25 " clip-rule="nonzero"/></clipPath></defs><rect x="-37.5" width="450" fill="#ffffff" y="-37.499999" height="449.999989" fill-opacity="1"/><rect x="-37.5" width="450" fill="#1ca499" y="-37.499999" height="449.999989" fill-opacity="1"/><g clip-path="url(#de2da01bc1)"><g clip-path="url(#0438d35db7)"><path fill="#f6f6f6" d="M 37.5 37.5 L 337.5 37.5 L 337.5 337.5 L 37.5 337.5 Z M 37.5 37.5 " fill-opacity="1" fill-rule="nonzero"/><path stroke-linecap="butt" transform="matrix(0.75, 0, 0, 0.75, 37.500002, 37.499998)" fill="none" stroke-linejoin="miter" d="M 200.00001 0.00000328333 C 89.54167 0.00000328333 -0.00000271667 89.541676 -0.00000271667 200.000016 C -0.00000271667 310.458357 89.54167 400.00003 200.00001 400.00003 C 310.458351 400.00003 400.000024 310.458357 400.000024 200.000016 C 400.000024 89.541676 310.458351 0.00000328333 200.00001 0.00000328333 Z M 200.00001 0.00000328333 " stroke="#000000" stroke-width="4" stroke-opacity="1" stroke-miterlimit="4"/></g></g><g clip-path="url(#7261eb304c)"><g clip-path="url(#d212a402c6)"><path fill="#f4c524" d="M 91.289062 91.289062 L 283.710938 91.289062 L 283.710938 283.710938 L 91.289062 283.710938 Z M 91.289062 91.289062 " fill-opacity="1" fill-rule="nonzero"/></g></g><g clip-path="url(#7df5ecc813)"><g clip-path="url(#34464df659)"><path stroke-linecap="butt" transform="matrix(0.75, 0, 0, 0.75, 91.290899, 91.290894)" fill="none" stroke-linejoin="miter" d="M 128.273602 -0.00244201 C 57.429847 -0.00244201 -0.00244801 57.429853 -0.00244801 128.273608 C -0.00244801 199.117363 57.429847 256.54445 128.273602 256.54445 C 199.117357 256.54445 256.544444 199.117363 256.544444 128.273608 C 256.544444 57.429853 199.117357 -0.00244201 128.273602 -0.00244201 Z M 128.273602 -0.00244201 " stroke="#000000" stroke-width="4" stroke-opacity="1" stroke-miterlimit="4"/></g></g><g clip-path="url(#d514d683e7)"><path fill="#000000" d="M 63.171875 194.597656 C 62.101562 203.652344 61.234375 204.519531 52.179688 205.589844 C 52.199219 205.59375 52.21875 205.59375 52.238281 205.597656 C 61.238281 206.664062 62.105469 207.550781 63.171875 216.582031 C 64.246094 207.53125 65.113281 206.660156 74.164062 205.589844 C 65.113281 204.519531 64.246094 203.652344 63.171875 194.597656 Z M 63.171875 194.597656 " fill-opacity="1" fill-rule="nonzero"/></g><g clip-path="url(#a099a1e2ef)"><path fill="#000000" d="M 311.820312 194.597656 C 310.75 203.652344 309.878906 204.519531 300.828125 205.589844 C 300.847656 205.59375 300.867188 205.59375 300.882812 205.597656 C 309.882812 206.664062 310.75 207.550781 311.820312 216.582031 C 312.890625 207.53125 313.761719 206.660156 322.8125 205.589844 C 313.761719 204.519531 312.890625 203.652344 311.820312 194.597656 Z M 311.820312 194.597656 " fill-opacity="1" fill-rule="nonzero"/></g><path fill="#fcca15" d="M 192.703125 122.25 L 206.558594 150.890625 C 207.078125 151.964844 207.71875 152.960938 208.480469 153.878906 C 209.242188 154.796875 210.101562 155.609375 211.058594 156.320312 C 212.019531 157.027344 213.046875 157.613281 214.148438 158.070312 C 215.25 158.527344 216.390625 158.847656 217.566406 159.027344 L 248.964844 163.835938 C 253.351562 164.507812 255.0625 169.925781 251.863281 173.003906 L 228.953125 195.050781 C 228.09375 195.878906 227.34375 196.796875 226.707031 197.808594 C 226.070312 198.816406 225.566406 199.886719 225.1875 201.019531 C 224.8125 202.152344 224.578125 203.3125 224.480469 204.503906 C 224.386719 205.695312 224.4375 206.878906 224.628906 208.058594 L 229.769531 239.460938 C 230.484375 243.847656 225.871094 247.15625 221.960938 245.058594 L 193.957031 230.050781 C 192.90625 229.488281 191.800781 229.058594 190.648438 228.765625 C 189.492188 228.46875 188.320312 228.316406 187.128906 228.308594 C 185.9375 228.300781 184.761719 228.433594 183.601562 228.710938 C 182.441406 228.988281 181.335938 229.402344 180.273438 229.949219 L 152.054688 244.542969 C 148.113281 246.585938 143.546875 243.210938 144.328125 238.832031 L 149.925781 207.511719 C 150.136719 206.335938 150.203125 205.152344 150.125 203.960938 C 150.050781 202.769531 149.832031 201.605469 149.46875 200.464844 C 149.109375 199.328125 148.621094 198.25 147.996094 197.230469 C 147.375 196.210938 146.640625 195.285156 145.792969 194.445312 L 123.214844 172.058594 C 120.058594 168.9375 121.851562 163.539062 126.246094 162.933594 L 157.710938 158.589844 C 158.890625 158.425781 160.035156 158.125 161.144531 157.683594 C 162.25 157.242188 163.289062 156.671875 164.261719 155.976562 C 165.230469 155.285156 166.101562 154.480469 166.878906 153.574219 C 167.652344 152.667969 168.308594 151.679688 168.84375 150.613281 L 183.105469 122.183594 C 185.097656 118.210938 190.769531 118.25 192.703125 122.25 Z M 192.703125 122.25 " fill-opacity="1" fill-rule="nonzero"/><g clip-path="url(#676f06316d)"><g clip-path="url(#27b1e93d8b)"><path fill="#eda20a" d="M 123.460938 160.921875 L 156.234375 192.726562 C 156.773438 193.246094 157.238281 193.828125 157.632812 194.46875 C 158.027344 195.109375 158.335938 195.785156 158.558594 196.503906 C 158.78125 197.222656 158.914062 197.953125 158.957031 198.703125 C 158.996094 199.453125 158.945312 200.199219 158.796875 200.9375 L 152.960938 230.507812 C 152.882812 230.90625 152.917969 231.292969 153.0625 231.667969 C 153.207031 232.046875 153.4375 232.355469 153.761719 232.597656 C 154.082031 232.839844 154.445312 232.980469 154.847656 233.011719 C 155.246094 233.046875 155.628906 232.96875 155.984375 232.78125 L 183.699219 218.390625 C 184.253906 218.101562 184.839844 217.886719 185.449219 217.746094 C 186.0625 217.609375 186.679688 217.550781 187.304688 217.574219 C 187.933594 217.59375 188.546875 217.695312 189.144531 217.875 C 189.746094 218.054688 190.316406 218.304688 190.851562 218.632812 L 217.121094 234.636719 C 217.464844 234.84375 217.839844 234.945312 218.246094 234.9375 C 218.648438 234.925781 219.019531 234.8125 219.359375 234.589844 C 219.695312 234.367188 219.949219 234.070312 220.113281 233.703125 C 220.28125 233.332031 220.335938 232.949219 220.28125 232.546875 L 215.980469 201.328125 C 215.796875 200 215.902344 198.699219 216.300781 197.417969 C 216.699219 196.140625 217.347656 195.007812 218.25 194.019531 L 249.285156 160.015625 C 249.464844 159.816406 249.675781 159.660156 249.917969 159.542969 C 250.160156 159.425781 250.414062 159.355469 250.683594 159.335938 C 250.953125 159.320312 251.214844 159.351562 251.46875 159.429688 C 251.726562 159.511719 251.957031 159.640625 252.164062 159.808594 L 258.417969 164.953125 C 258.636719 165.136719 258.8125 165.351562 258.945312 165.605469 C 259.078125 165.859375 259.152344 166.128906 259.175781 166.410156 C 259.199219 166.695312 259.164062 166.972656 259.074219 167.246094 C 258.984375 167.515625 258.84375 167.757812 258.65625 167.972656 L 231.074219 199.140625 C 230.691406 199.578125 230.515625 200.085938 230.554688 200.667969 L 233.773438 248.949219 C 233.785156 249.128906 233.777344 249.304688 233.742188 249.480469 C 233.710938 249.65625 233.65625 249.824219 233.578125 249.988281 C 233.503906 250.148438 233.40625 250.296875 233.292969 250.433594 C 233.179688 250.570312 233.046875 250.691406 232.902344 250.796875 C 232.757812 250.898438 232.601562 250.984375 232.4375 251.046875 C 232.269531 251.113281 232.097656 251.15625 231.921875 251.175781 C 231.742188 251.195312 231.566406 251.191406 231.390625 251.167969 C 231.214844 251.140625 231.042969 251.09375 230.878906 251.027344 L 188.222656 233.105469 C 187.636719 232.863281 187.0625 232.878906 186.492188 233.15625 C 181.351562 235.660156 154.328125 248.648438 143.203125 250 C 142.886719 250.039062 142.578125 250.003906 142.277344 249.902344 C 141.976562 249.800781 141.714844 249.636719 141.484375 249.414062 C 141.257812 249.191406 141.089844 248.929688 140.980469 248.632812 C 140.875 248.332031 140.835938 248.023438 140.867188 247.707031 L 145.253906 202.300781 C 145.316406 201.699219 145.148438 201.171875 144.75 200.714844 L 117.160156 168.902344 C 116.855469 168.546875 116.683594 168.140625 116.652344 167.675781 C 116.617188 167.210938 116.726562 166.78125 116.976562 166.386719 L 120.234375 161.296875 C 120.40625 161.03125 120.625 160.816406 120.890625 160.648438 C 121.15625 160.480469 121.445312 160.378906 121.757812 160.34375 C 122.070312 160.308594 122.375 160.339844 122.675781 160.441406 C 122.972656 160.542969 123.234375 160.703125 123.460938 160.921875 Z M 123.460938 160.921875 " fill-opacity="1" fill-rule="nonzero"/></g></g><g clip-path="url(#4146dac92c)"><g clip-path="url(#fbfb064c35)"><path fill="#ea850c" d="M 114.410156 157.308594 L 151.609375 193.640625 C 152.21875 194.238281 152.75 194.90625 153.195312 195.636719 C 153.644531 196.367188 153.992188 197.144531 154.246094 197.960938 C 154.5 198.78125 154.652344 199.617188 154.695312 200.476562 C 154.742188 201.332031 154.683594 202.179688 154.519531 203.019531 L 147.898438 236.804688 C 147.511719 238.777344 149.558594 240.320312 151.328125 239.402344 L 182.785156 222.960938 C 183.417969 222.628906 184.078125 222.386719 184.773438 222.230469 C 185.464844 222.070312 186.167969 222.003906 186.878906 222.027344 C 187.589844 222.054688 188.289062 222.167969 188.96875 222.371094 C 189.652344 222.578125 190.296875 222.867188 190.902344 223.238281 L 220.71875 241.511719 C 222.433594 242.558594 224.589844 241.132812 224.316406 239.128906 L 219.425781 203.472656 C 219.21875 201.960938 219.339844 200.472656 219.789062 199.011719 C 220.238281 197.550781 220.976562 196.257812 222 195.125 L 257.226562 156.269531 C 257.429688 156.042969 257.671875 155.863281 257.945312 155.730469 C 258.21875 155.597656 258.507812 155.519531 258.8125 155.496094 C 259.117188 155.476562 259.414062 155.511719 259.703125 155.605469 C 259.996094 155.695312 260.257812 155.839844 260.492188 156.035156 L 267.597656 161.90625 C 267.847656 162.113281 268.046875 162.363281 268.199219 162.652344 C 268.347656 162.941406 268.433594 163.25 268.460938 163.574219 C 268.488281 163.898438 268.449219 164.214844 268.34375 164.523438 C 268.242188 164.835938 268.082031 165.109375 267.867188 165.355469 L 236.566406 200.972656 C 236.125 201.472656 235.929688 202.058594 235.972656 202.722656 L 239.632812 257.890625 C 239.648438 258.097656 239.636719 258.296875 239.597656 258.5 C 239.5625 258.699219 239.5 258.890625 239.414062 259.078125 C 239.328125 259.261719 239.21875 259.433594 239.089844 259.589844 C 238.960938 259.746094 238.8125 259.882812 238.648438 260.003906 C 238.480469 260.121094 238.304688 260.21875 238.113281 260.292969 C 237.925781 260.363281 237.730469 260.414062 237.527344 260.4375 C 237.324219 260.460938 237.121094 260.457031 236.921875 260.429688 C 236.71875 260.398438 236.523438 260.34375 236.335938 260.265625 L 187.917969 239.773438 C 187.253906 239.492188 186.601562 239.511719 185.957031 239.828125 C 180.121094 242.691406 149.445312 257.527344 136.820312 259.082031 C 136.644531 259.101562 136.464844 259.101562 136.289062 259.082031 C 136.109375 259.066406 135.9375 259.027344 135.769531 258.96875 C 135.597656 258.910156 135.4375 258.832031 135.285156 258.738281 C 135.136719 258.644531 134.996094 258.535156 134.867188 258.410156 C 134.742188 258.285156 134.628906 258.148438 134.53125 257.996094 C 134.4375 257.84375 134.359375 257.6875 134.296875 257.519531 C 134.234375 257.347656 134.195312 257.175781 134.171875 257 C 134.152344 256.820312 134.148438 256.644531 134.167969 256.464844 L 139.15625 204.582031 C 139.222656 203.898438 139.03125 203.296875 138.585938 202.777344 L 107.257812 166.421875 C 106.914062 166.019531 106.71875 165.550781 106.683594 165.019531 C 106.644531 164.488281 106.765625 164 107.050781 163.550781 L 110.75 157.734375 C 110.84375 157.585938 110.953125 157.449219 111.078125 157.324219 C 111.203125 157.199219 111.339844 157.089844 111.492188 156.992188 C 111.640625 156.898438 111.796875 156.824219 111.964844 156.765625 C 112.132812 156.707031 112.304688 156.667969 112.476562 156.644531 C 112.652344 156.625 112.828125 156.625 113.003906 156.644531 C 113.179688 156.660156 113.351562 156.699219 113.519531 156.757812 C 113.6875 156.8125 113.84375 156.890625 113.996094 156.980469 C 114.144531 157.074219 114.285156 157.183594 114.410156 157.308594 Z M 114.410156 157.308594 " fill-opacity="1" fill-rule="nonzero"/></g></g><path fill="#ffffff" d="M 179.167969 141.625 C 179.660156 140.070312 180.226562 138.550781 180.792969 137.03125 C 181.359375 135.511719 181.96875 134.007812 182.582031 132.511719 C 183.199219 131.015625 183.832031 129.523438 184.488281 128.042969 L 184.730469 127.488281 L 184.855469 127.207031 L 184.957031 127.007812 L 185.070312 126.808594 C 185.410156 126.273438 185.871094 125.878906 186.453125 125.628906 C 187.027344 125.382812 187.625 125.3125 188.242188 125.417969 C 188.867188 125.523438 189.410156 125.800781 189.867188 126.242188 C 190.085938 126.457031 190.269531 126.699219 190.421875 126.96875 L 190.472656 127.0625 L 190.507812 127.132812 L 190.578125 127.265625 L 190.714844 127.535156 L 191.269531 128.613281 C 191.636719 129.335938 192.007812 130.058594 192.367188 130.78125 C 193.089844 132.230469 193.800781 133.683594 194.5 135.144531 C 195.890625 138.070312 197.246094 141.019531 198.457031 144.035156 C 198.488281 144.113281 198.492188 144.191406 198.460938 144.269531 C 198.433594 144.347656 198.382812 144.40625 198.308594 144.445312 C 198.234375 144.484375 198.15625 144.492188 198.078125 144.46875 C 197.996094 144.449219 197.933594 144.402344 197.890625 144.332031 C 196.117188 141.605469 194.484375 138.808594 192.886719 135.988281 C 192.089844 134.578125 191.308594 133.160156 190.539062 131.734375 C 190.152344 131.023438 189.777344 130.308594 189.398438 129.59375 L 188.832031 128.527344 L 188.691406 128.257812 L 188.621094 128.121094 L 188.585938 128.054688 L 188.566406 128.019531 C 188.515625 127.929688 188.457031 127.851562 188.382812 127.785156 C 188.242188 127.648438 188.074219 127.5625 187.878906 127.527344 C 187.675781 127.492188 187.480469 127.511719 187.292969 127.589844 C 187.109375 127.667969 186.964844 127.789062 186.855469 127.957031 C 186.84375 127.980469 186.832031 128 186.816406 128.023438 C 186.804688 128.042969 186.792969 128.070312 186.78125 128.09375 L 186.65625 128.367188 L 186.394531 128.914062 C 185.710938 130.382812 185 131.835938 184.28125 133.289062 C 183.5625 134.738281 182.816406 136.179688 182.054688 137.609375 C 181.289062 139.042969 180.507812 140.464844 179.664062 141.859375 C 179.582031 142 179.464844 142.039062 179.316406 141.96875 C 179.164062 141.902344 179.117188 141.789062 179.167969 141.632812 Z M 179.167969 141.625 " fill-opacity="1" fill-rule="nonzero"/><path fill="#ffffff" d="M 168.78125 157.855469 C 168.78125 157.921875 168.78125 157.960938 168.78125 158.007812 C 168.78125 158.054688 168.78125 158.105469 168.773438 158.148438 C 168.769531 158.242188 168.753906 158.332031 168.738281 158.421875 C 168.703125 158.601562 168.65625 158.777344 168.59375 158.949219 C 168.464844 159.285156 168.296875 159.601562 168.089844 159.898438 C 167.886719 160.195312 167.65625 160.464844 167.398438 160.710938 C 167.144531 160.957031 166.875 161.183594 166.585938 161.390625 C 165.445312 162.207031 164.160156 162.726562 162.871094 163.113281 C 161.578125 163.484375 160.269531 163.742188 158.9375 163.894531 C 158.605469 163.933594 158.277344 163.960938 157.945312 163.996094 L 156.980469 164.078125 L 155.054688 164.230469 C 152.484375 164.429688 149.914062 164.605469 147.335938 164.730469 C 144.757812 164.855469 142.171875 164.945312 139.574219 164.894531 L 139.503906 164.261719 C 139.820312 164.179688 140.136719 164.109375 140.453125 164.039062 L 141.410156 163.839844 C 142.046875 163.707031 142.683594 163.589844 143.320312 163.476562 C 144.601562 163.25 145.882812 163.054688 147.167969 162.882812 C 149.734375 162.53125 152.3125 162.277344 154.898438 162.105469 C 155.546875 162.058594 156.191406 162.015625 156.839844 161.988281 L 158.75 161.886719 C 159.996094 161.8125 161.230469 161.65625 162.457031 161.429688 C 163.058594 161.3125 163.652344 161.164062 164.242188 160.984375 C 164.820312 160.804688 165.378906 160.582031 165.917969 160.3125 C 166.449219 160.042969 166.933594 159.703125 167.367188 159.292969 C 167.574219 159.09375 167.757812 158.867188 167.914062 158.621094 C 167.992188 158.5 168.058594 158.375 168.117188 158.242188 C 168.148438 158.179688 168.171875 158.113281 168.195312 158.042969 C 168.214844 157.980469 168.234375 157.902344 168.246094 157.863281 Z M 168.78125 157.855469 " fill-opacity="1" fill-rule="nonzero"/><path fill="#ffffff" d="M 206.890625 158.226562 C 206.917969 158.269531 206.960938 158.339844 207.003906 158.398438 C 207.042969 158.453125 207.085938 158.519531 207.132812 158.578125 C 207.222656 158.695312 207.320312 158.808594 207.421875 158.921875 C 207.628906 159.144531 207.847656 159.347656 208.082031 159.539062 C 208.546875 159.917969 209.046875 160.246094 209.578125 160.527344 C 210.660156 161.074219 211.792969 161.464844 212.984375 161.699219 C 214.179688 161.949219 215.390625 162.097656 216.613281 162.148438 L 218.507812 162.210938 C 219.152344 162.226562 219.792969 162.273438 220.4375 162.304688 C 223.007812 162.460938 225.566406 162.734375 228.109375 163.132812 C 229.378906 163.328125 230.644531 163.550781 231.902344 163.8125 C 232.535156 163.941406 233.164062 164.078125 233.789062 164.230469 L 234.726562 164.464844 C 235.03125 164.550781 235.351562 164.628906 235.660156 164.726562 L 235.5625 165.355469 C 232.996094 165.292969 230.449219 165.132812 227.90625 164.96875 L 220.300781 164.433594 L 217.453125 164.246094 C 217.132812 164.226562 216.792969 164.191406 216.464844 164.167969 C 216.136719 164.144531 215.804688 164.101562 215.476562 164.050781 C 215.144531 164.003906 214.816406 163.953125 214.488281 163.882812 C 213.824219 163.761719 213.175781 163.601562 212.53125 163.398438 C 211.21875 163.007812 210.007812 162.414062 208.890625 161.617188 C 208.613281 161.414062 208.351562 161.195312 208.101562 160.964844 C 207.847656 160.730469 207.613281 160.480469 207.394531 160.214844 C 207.175781 159.949219 206.980469 159.667969 206.804688 159.371094 C 206.71875 159.21875 206.640625 159.066406 206.570312 158.914062 C 206.535156 158.835938 206.5 158.761719 206.46875 158.671875 C 206.4375 158.585938 206.414062 158.519531 206.382812 158.410156 Z M 206.890625 158.226562 " fill-opacity="1" fill-rule="nonzero"/><path fill="#000000" d="M 185.207031 179.628906 C 185.207031 180.433594 185.160156 181.226562 185.066406 182.015625 C 184.972656 182.800781 184.832031 183.566406 184.644531 184.308594 C 184.460938 185.050781 184.230469 185.753906 183.960938 186.421875 C 183.691406 187.089844 183.386719 187.707031 183.042969 188.273438 C 182.699219 188.839844 182.324219 189.347656 181.921875 189.792969 C 181.519531 190.238281 181.089844 190.617188 180.644531 190.921875 C 180.195312 191.230469 179.730469 191.460938 179.253906 191.617188 C 178.777344 191.777344 178.296875 191.855469 177.8125 191.855469 C 177.328125 191.855469 176.847656 191.777344 176.371094 191.617188 C 175.894531 191.460938 175.429688 191.230469 174.980469 190.921875 C 174.535156 190.617188 174.109375 190.238281 173.703125 189.792969 C 173.300781 189.347656 172.925781 188.839844 172.582031 188.273438 C 172.238281 187.707031 171.933594 187.089844 171.664062 186.421875 C 171.394531 185.753906 171.164062 185.050781 170.980469 184.308594 C 170.792969 183.566406 170.652344 182.800781 170.558594 182.015625 C 170.464844 181.226562 170.417969 180.433594 170.417969 179.628906 C 170.417969 178.828125 170.464844 178.035156 170.558594 177.246094 C 170.652344 176.460938 170.792969 175.695312 170.980469 174.953125 C 171.164062 174.210938 171.394531 173.507812 171.664062 172.839844 C 171.933594 172.171875 172.238281 171.554688 172.582031 170.988281 C 172.925781 170.421875 173.300781 169.914062 173.703125 169.46875 C 174.109375 169.023438 174.535156 168.644531 174.980469 168.339844 C 175.429688 168.03125 175.894531 167.800781 176.371094 167.640625 C 176.847656 167.484375 177.328125 167.40625 177.8125 167.40625 C 178.296875 167.40625 178.777344 167.484375 179.253906 167.640625 C 179.730469 167.800781 180.195312 168.03125 180.644531 168.339844 C 181.089844 168.644531 181.519531 169.023438 181.921875 169.46875 C 182.324219 169.914062 182.699219 170.421875 183.042969 170.988281 C 183.386719 171.554688 183.691406 172.171875 183.960938 172.839844 C 184.230469 173.507812 184.460938 174.210938 184.644531 174.953125 C 184.832031 175.695312 184.972656 176.460938 185.066406 177.246094 C 185.160156 178.035156 185.207031 178.828125 185.207031 179.628906 Z M 185.207031 179.628906 " fill-opacity="1" fill-rule="nonzero"/><path fill="#ffffff" d="M 178.652344 175.8125 C 178.652344 176.238281 178.578125 176.644531 178.4375 177.039062 C 178.292969 177.433594 178.089844 177.777344 177.824219 178.078125 C 177.558594 178.378906 177.253906 178.613281 176.910156 178.777344 C 176.5625 178.9375 176.203125 179.019531 175.832031 179.019531 C 175.457031 179.019531 175.097656 178.9375 174.75 178.777344 C 174.40625 178.613281 174.101562 178.378906 173.835938 178.078125 C 173.570312 177.777344 173.367188 177.433594 173.222656 177.039062 C 173.082031 176.644531 173.007812 176.238281 173.007812 175.8125 C 173.007812 175.386719 173.082031 174.976562 173.222656 174.582031 C 173.367188 174.191406 173.570312 173.84375 173.835938 173.542969 C 174.101562 173.242188 174.40625 173.007812 174.75 172.847656 C 175.097656 172.683594 175.457031 172.601562 175.832031 172.601562 C 176.203125 172.601562 176.5625 172.683594 176.910156 172.847656 C 177.253906 173.007812 177.558594 173.242188 177.824219 173.542969 C 178.089844 173.84375 178.292969 174.191406 178.4375 174.582031 C 178.578125 174.976562 178.652344 175.386719 178.652344 175.8125 Z M 178.652344 175.8125 " fill-opacity="1" fill-rule="nonzero"/><path fill="#ffffff" d="M 178.195312 183.296875 C 178.195312 183.539062 178.148438 183.773438 178.054688 184 C 177.960938 184.222656 177.828125 184.421875 177.65625 184.59375 C 177.484375 184.765625 177.289062 184.898438 177.0625 184.992188 C 176.839844 185.085938 176.605469 185.132812 176.363281 185.132812 C 176.121094 185.132812 175.886719 185.085938 175.664062 184.992188 C 175.4375 184.898438 175.242188 184.765625 175.070312 184.59375 C 174.898438 184.421875 174.765625 184.222656 174.671875 184 C 174.582031 183.773438 174.535156 183.539062 174.535156 183.296875 C 174.535156 183.054688 174.582031 182.820312 174.671875 182.597656 C 174.765625 182.371094 174.898438 182.171875 175.070312 182 C 175.242188 181.828125 175.4375 181.695312 175.664062 181.605469 C 175.886719 181.511719 176.121094 181.464844 176.363281 181.464844 C 176.605469 181.464844 176.839844 181.511719 177.0625 181.605469 C 177.289062 181.695312 177.484375 181.828125 177.65625 182 C 177.828125 182.171875 177.960938 182.371094 178.054688 182.597656 C 178.148438 182.820312 178.195312 183.054688 178.195312 183.296875 Z M 178.195312 183.296875 " fill-opacity="1" fill-rule="nonzero"/><path fill="#000000" d="M 207.015625 179.628906 C 207.015625 180.433594 206.96875 181.226562 206.871094 182.015625 C 206.777344 182.800781 206.636719 183.566406 206.453125 184.308594 C 206.265625 185.050781 206.039062 185.753906 205.769531 186.421875 C 205.5 187.089844 205.191406 187.707031 204.847656 188.273438 C 204.503906 188.839844 204.132812 189.347656 203.726562 189.792969 C 203.324219 190.238281 202.898438 190.617188 202.449219 190.921875 C 202 191.230469 201.539062 191.460938 201.0625 191.617188 C 200.585938 191.777344 200.105469 191.855469 199.617188 191.855469 C 199.132812 191.855469 198.652344 191.777344 198.175781 191.617188 C 197.699219 191.460938 197.238281 191.230469 196.789062 190.921875 C 196.339844 190.617188 195.914062 190.238281 195.511719 189.792969 C 195.105469 189.347656 194.734375 188.839844 194.390625 188.273438 C 194.046875 187.707031 193.738281 187.089844 193.46875 186.421875 C 193.199219 185.753906 192.972656 185.050781 192.785156 184.308594 C 192.601562 183.566406 192.460938 182.800781 192.363281 182.015625 C 192.269531 181.226562 192.222656 180.433594 192.222656 179.628906 C 192.222656 178.828125 192.269531 178.035156 192.363281 177.246094 C 192.460938 176.460938 192.601562 175.695312 192.785156 174.953125 C 192.972656 174.210938 193.199219 173.507812 193.46875 172.839844 C 193.738281 172.171875 194.046875 171.554688 194.390625 170.988281 C 194.734375 170.421875 195.105469 169.914062 195.511719 169.46875 C 195.914062 169.023438 196.339844 168.644531 196.789062 168.339844 C 197.238281 168.03125 197.699219 167.800781 198.175781 167.640625 C 198.652344 167.484375 199.132812 167.40625 199.617188 167.40625 C 200.105469 167.40625 200.585938 167.484375 201.0625 167.640625 C 201.539062 167.800781 202 168.03125 202.449219 168.339844 C 202.898438 168.644531 203.324219 169.023438 203.726562 169.46875 C 204.132812 169.914062 204.503906 170.421875 204.847656 170.988281 C 205.191406 171.554688 205.5 172.171875 205.769531 172.839844 C 206.039062 173.507812 206.265625 174.210938 206.453125 174.953125 C 206.636719 175.695312 206.777344 176.460938 206.871094 177.246094 C 206.96875 178.035156 207.015625 178.828125 207.015625 179.628906 Z M 207.015625 179.628906 " fill-opacity="1" fill-rule="nonzero"/><path fill="#ffffff" d="M 204.421875 175.8125 C 204.421875 176.238281 204.351562 176.644531 204.207031 177.039062 C 204.0625 177.433594 203.859375 177.777344 203.597656 178.078125 C 203.332031 178.378906 203.027344 178.613281 202.679688 178.777344 C 202.335938 178.9375 201.976562 179.019531 201.601562 179.019531 C 201.226562 179.019531 200.867188 178.9375 200.523438 178.777344 C 200.175781 178.613281 199.871094 178.378906 199.605469 178.078125 C 199.339844 177.777344 199.136719 177.433594 198.996094 177.039062 C 198.851562 176.644531 198.78125 176.238281 198.78125 175.8125 C 198.78125 175.386719 198.851562 174.976562 198.996094 174.582031 C 199.136719 174.191406 199.339844 173.84375 199.605469 173.542969 C 199.871094 173.242188 200.175781 173.007812 200.523438 172.847656 C 200.867188 172.683594 201.226562 172.601562 201.601562 172.601562 C 201.976562 172.601562 202.335938 172.683594 202.679688 172.847656 C 203.027344 173.007812 203.332031 173.242188 203.597656 173.542969 C 203.859375 173.84375 204.0625 174.191406 204.207031 174.582031 C 204.351562 174.976562 204.421875 175.386719 204.421875 175.8125 Z M 204.421875 175.8125 " fill-opacity="1" fill-rule="nonzero"/><path fill="#ffffff" d="M 202.898438 183.296875 C 202.898438 183.539062 202.851562 183.773438 202.757812 184 C 202.664062 184.222656 202.53125 184.421875 202.359375 184.59375 C 202.191406 184.765625 201.992188 184.898438 201.769531 184.992188 C 201.542969 185.085938 201.308594 185.132812 201.066406 185.132812 C 200.824219 185.132812 200.589844 185.085938 200.367188 184.992188 C 200.144531 184.898438 199.945312 184.765625 199.773438 184.59375 C 199.601562 184.421875 199.46875 184.222656 199.375 184 C 199.285156 183.773438 199.238281 183.539062 199.238281 183.296875 C 199.238281 183.054688 199.285156 182.820312 199.375 182.597656 C 199.46875 182.371094 199.601562 182.171875 199.773438 182 C 199.945312 181.828125 200.144531 181.695312 200.367188 181.605469 C 200.589844 181.511719 200.824219 181.464844 201.066406 181.464844 C 201.308594 181.464844 201.542969 181.511719 201.769531 181.605469 C 201.992188 181.695312 202.191406 181.828125 202.359375 182 C 202.53125 182.171875 202.664062 182.371094 202.757812 182.597656 C 202.851562 182.820312 202.898438 183.054688 202.898438 183.296875 Z M 202.898438 183.296875 " fill-opacity="1" fill-rule="nonzero"/><path fill="#d3a105" d="M 171.789062 193.078125 C 172.019531 193.246094 172.257812 193.390625 172.488281 193.535156 C 172.714844 193.679688 172.945312 193.800781 173.1875 193.910156 C 173.640625 194.136719 174.105469 194.324219 174.589844 194.472656 C 175.527344 194.75 176.480469 194.890625 177.457031 194.886719 C 178.429688 194.890625 179.382812 194.753906 180.3125 194.472656 C 180.796875 194.324219 181.265625 194.136719 181.714844 193.910156 C 181.949219 193.796875 182.171875 193.667969 182.417969 193.53125 C 182.660156 193.394531 182.882812 193.246094 183.117188 193.074219 C 182.953125 193.644531 182.671875 194.152344 182.285156 194.601562 C 181.894531 195.066406 181.441406 195.453125 180.925781 195.769531 C 179.855469 196.40625 178.699219 196.722656 177.449219 196.710938 C 176.210938 196.714844 175.054688 196.398438 173.984375 195.765625 C 173.46875 195.449219 173.015625 195.0625 172.625 194.597656 C 172.234375 194.152344 171.953125 193.644531 171.789062 193.078125 Z M 171.789062 193.078125 " fill-opacity="1" fill-rule="nonzero"/><path fill="#d3a105" d="M 193.898438 192.769531 C 194.132812 192.941406 194.371094 193.085938 194.597656 193.230469 C 194.828125 193.371094 195.054688 193.496094 195.296875 193.605469 C 195.75 193.832031 196.21875 194.019531 196.703125 194.167969 C 197.636719 194.445312 198.59375 194.582031 199.570312 194.582031 C 200.542969 194.585938 201.492188 194.449219 202.425781 194.167969 C 202.910156 194.019531 203.375 193.832031 203.828125 193.605469 C 204.0625 193.492188 204.285156 193.363281 204.527344 193.226562 C 204.769531 193.089844 204.992188 192.941406 205.230469 192.769531 C 205.0625 193.339844 204.785156 193.847656 204.394531 194.296875 C 204.007812 194.757812 203.554688 195.148438 203.039062 195.460938 C 201.96875 196.101562 200.808594 196.417969 199.5625 196.40625 C 198.320312 196.40625 197.164062 196.09375 196.097656 195.460938 C 195.578125 195.144531 195.125 194.757812 194.734375 194.292969 C 194.34375 193.847656 194.066406 193.339844 193.898438 192.769531 Z M 193.898438 192.769531 " fill-opacity="1" fill-rule="nonzero"/><g fill="#000000" fill-opacity="1"><g transform="translate(118.350384, 100.537212)"><g><path d="M 16.582031 -17.160156 C 14.707031 -20.261719 12.332031 -20.324219 9.800781 -19.546875 C 12.023438 -21.636719 12.730469 -24.84375 10.898438 -27.882812 C 8.789062 -31.371094 4.988281 -32.339844 0.238281 -29.46875 L -11.105469 -22.617188 L 1.875 -1.132812 L 6.816406 -4.117188 L 1.800781 -12.421875 L 6.230469 -15.097656 C 8.359375 -16.382812 10.441406 -16.226562 11.902344 -13.804688 L 12.585938 -12.675781 C 13.660156 -10.898438 14.523438 -9.832031 15.25 -9.210938 L 20.164062 -12.179688 C 19.3125 -13.074219 18.53125 -13.929688 17.457031 -15.703125 Z M 4.972656 -19.144531 L -0.324219 -15.945312 L -3.859375 -21.792969 L 1.441406 -24.992188 C 3.574219 -26.28125 5.097656 -25.878906 6.1875 -24.066406 C 7.398438 -22.066406 7.203125 -20.492188 4.972656 -19.144531 Z M 4.972656 -19.144531 "/></g></g></g><g fill="#000000" fill-opacity="1"><g transform="translate(138.31189, 88.15531)"><g><path d="M -1.085938 -9.5625 C 1.046875 -3.351562 5.730469 -1.328125 12.835938 -3.765625 C 19.941406 -6.199219 22.351562 -10.699219 20.230469 -16.875 L 15.136719 -31.730469 L 9.746094 -29.878906 L 14.582031 -15.777344 C 16.164062 -11.171875 14.816406 -9.390625 11.316406 -8.191406 C 7.816406 -6.992188 5.664062 -7.570312 4.085938 -12.175781 L -0.753906 -26.28125 L -6.179688 -24.417969 Z M -1.085938 -9.5625 "/></g></g></g><g fill="#000000" fill-opacity="1"><g transform="translate(161.60715, 80.002975)"><g><path d="M 16.894531 -15.023438 C 19.671875 -15.960938 21.765625 -17.878906 21.332031 -21.550781 C 20.9375 -24.925781 18.472656 -27.449219 13.148438 -26.824219 L -0.757812 -25.1875 L 2.175781 -0.253906 L 15.820312 -1.863281 C 21.144531 -2.488281 23.578125 -5.398438 23.082031 -9.59375 C 22.613281 -13.570312 20.0625 -14.902344 16.894531 -15.023438 Z M 11.96875 -22.3125 C 14.332031 -22.589844 15.28125 -21.636719 15.503906 -19.726562 C 15.714844 -17.925781 14.957031 -16.621094 12.484375 -16.332031 L 6.148438 -15.585938 L 5.445312 -21.546875 Z M 14.035156 -6.058594 L 7.359375 -5.273438 L 6.597656 -11.761719 L 12.933594 -12.507812 C 15.671875 -12.828125 16.832031 -11.671875 17.066406 -9.6875 C 17.28125 -7.847656 16.582031 -6.359375 14.035156 -6.058594 Z M 14.035156 -6.058594 "/></g></g></g><g fill="#000000" fill-opacity="1"><g transform="translate(184.974263, 76.977455)"><g><path d="M 2.96875 -9.15625 C 2.339844 -2.617188 5.765625 1.164062 13.242188 1.882812 C 20.71875 2.605469 24.773438 -0.492188 25.402344 -6.992188 L 26.90625 -22.625 L 21.234375 -23.171875 L 19.804688 -8.328125 C 19.335938 -3.480469 17.375 -2.417969 13.691406 -2.773438 C 10.011719 -3.128906 8.289062 -4.546875 8.757812 -9.394531 L 10.1875 -24.234375 L 4.476562 -24.789062 Z M 2.96875 -9.15625 "/></g></g></g><g fill="#000000" fill-opacity="1"><g transform="translate(209.710752, 79.535219)"><g><path d="M 22.292969 -14.917969 L 23.5625 -19.265625 L 9.144531 -23.480469 L 7.871094 -19.132812 L 12.328125 -17.832031 L 7.839844 -2.46875 L 3.382812 -3.769531 L 2.101562 0.613281 L 16.523438 4.828125 L 17.804688 0.445312 L 13.347656 -0.859375 L 17.835938 -16.222656 Z M 22.292969 -14.917969 "/></g></g></g><g fill="#000000" fill-opacity="1"><g transform="translate(226.809823, 84.093764)"><g><path d="M 5.03125 -6.722656 C 3.148438 -2.558594 3.722656 2.59375 11.105469 6.3125 C 18.121094 9.84375 22.292969 8.351562 24.519531 3.933594 C 26.488281 0.0234375 25.28125 -3.289062 20.984375 -6.085938 L 16.585938 -9.019531 C 14.832031 -10.15625 14.550781 -11.523438 15.210938 -12.835938 C 16.09375 -14.589844 18.105469 -14.972656 20.835938 -13.597656 C 23.804688 -12.105469 24.609375 -10.007812 23.824219 -7.78125 L 28.847656 -5.253906 C 30.582031 -9.367188 29.445312 -13.996094 22.738281 -17.375 C 16.433594 -20.550781 11.9375 -19.175781 9.902344 -15.132812 C 8.035156 -11.421875 9.15625 -8.109375 12.898438 -5.636719 L 17.53125 -2.5 C 19.382812 -1.226562 19.953125 0.15625 19.105469 1.84375 C 18.203125 3.628906 16.5 4.25 13.09375 2.535156 C 9.554688 0.753906 8.953125 -1.746094 10.023438 -4.207031 Z M 5.03125 -6.722656 "/></g></g></g><g fill="#000000" fill-opacity="1"><g transform="translate(247.864008, 95.204645)"><g/></g></g><g fill="#000000" fill-opacity="1"><g transform="translate(137.242504, 310.878225)"><g><path d="M 1.125 0.421875 L 5.0625 -10.21875 L 8.5 -8.953125 C 9.320312 -8.640625 9.945312 -8.25 10.375 -7.78125 C 10.8125 -7.3125 11.066406 -6.789062 11.140625 -6.21875 C 11.210938 -5.644531 11.140625 -5.070312 10.921875 -4.5 C 10.679688 -3.832031 10.28125 -3.296875 9.71875 -2.890625 C 9.15625 -2.492188 8.453125 -2.328125 7.609375 -2.390625 L 8.25 3.0625 L 6.734375 2.5 L 6.21875 -2.6875 L 6.125 -2.71875 L 4.03125 -3.5 L 2.40625 0.890625 Z M 4.40625 -4.5 L 6.46875 -3.734375 C 7.289062 -3.429688 7.960938 -3.40625 8.484375 -3.65625 C 9.003906 -3.914062 9.378906 -4.351562 9.609375 -4.96875 C 9.835938 -5.601562 9.832031 -6.171875 9.59375 -6.671875 C 9.363281 -7.179688 8.828125 -7.585938 7.984375 -7.890625 L 5.9375 -8.65625 Z M 4.40625 -4.5 "/></g></g></g><g fill="#000000" fill-opacity="1"><g transform="translate(155.861457, 317.007242)"><g><path d="M 5.15625 1.25 C 4.394531 1.09375 3.734375 0.800781 3.171875 0.375 C 2.609375 -0.0507812 2.207031 -0.617188 1.96875 -1.328125 C 1.738281 -2.035156 1.726562 -2.890625 1.9375 -3.890625 L 3.375 -10.890625 L 4.703125 -10.609375 L 3.265625 -3.59375 C 3.035156 -2.507812 3.128906 -1.671875 3.546875 -1.078125 C 3.960938 -0.484375 4.585938 -0.0976562 5.421875 0.078125 C 6.253906 0.242188 6.972656 0.132812 7.578125 -0.25 C 8.191406 -0.632812 8.613281 -1.367188 8.84375 -2.453125 L 10.28125 -9.46875 L 11.609375 -9.1875 L 10.171875 -2.1875 C 9.960938 -1.1875 9.609375 -0.410156 9.109375 0.140625 C 8.609375 0.691406 8.015625 1.054688 7.328125 1.234375 C 6.648438 1.410156 5.925781 1.414062 5.15625 1.25 Z M 5.15625 1.25 "/></g></g></g><g fill="#000000" fill-opacity="1"><g transform="translate(176.206138, 320.377687)"><g><path d="M 1.203125 0.0625 L 1.765625 -11.265625 L 5.75 -11.0625 C 6.539062 -11.019531 7.191406 -10.859375 7.703125 -10.578125 C 8.210938 -10.296875 8.585938 -9.929688 8.828125 -9.484375 C 9.066406 -9.035156 9.171875 -8.539062 9.140625 -8 C 9.109375 -7.269531 8.882812 -6.707031 8.46875 -6.3125 C 8.050781 -5.914062 7.5625 -5.644531 7 -5.5 C 7.414062 -5.40625 7.789062 -5.21875 8.125 -4.9375 C 8.457031 -4.664062 8.710938 -4.332031 8.890625 -3.9375 C 9.078125 -3.539062 9.160156 -3.109375 9.140625 -2.640625 C 9.109375 -2.066406 8.941406 -1.550781 8.640625 -1.09375 C 8.335938 -0.644531 7.898438 -0.296875 7.328125 -0.046875 C 6.765625 0.203125 6.09375 0.304688 5.3125 0.265625 Z M 2.890625 -6.25 L 5.421875 -6.125 C 6.128906 -6.082031 6.6875 -6.21875 7.09375 -6.53125 C 7.5 -6.851562 7.71875 -7.316406 7.75 -7.921875 C 7.769531 -8.492188 7.597656 -8.960938 7.234375 -9.328125 C 6.867188 -9.691406 6.3125 -9.894531 5.5625 -9.9375 L 3.078125 -10.0625 Z M 2.625 -1.015625 L 5.234375 -0.875 C 5.992188 -0.84375 6.59375 -0.992188 7.03125 -1.328125 C 7.46875 -1.671875 7.703125 -2.164062 7.734375 -2.8125 C 7.765625 -3.445312 7.566406 -3.96875 7.140625 -4.375 C 6.722656 -4.78125 6.144531 -5.003906 5.40625 -5.046875 L 2.828125 -5.171875 Z M 2.625 -1.015625 "/></g></g></g><g fill="#000000" fill-opacity="1"><g transform="translate(195.824455, 320.553563)"><g><path d="M 1.203125 -0.09375 L 0.34375 -11.40625 L 1.703125 -11.5 L 2.5625 -0.1875 Z M 1.203125 -0.09375 "/></g></g></g><g fill="#000000" fill-opacity="1"><g transform="translate(209.401247, 319.10879)"><g><path d="M 5.21875 -0.890625 C 4.445312 -0.734375 3.722656 -0.738281 3.046875 -0.90625 C 2.367188 -1.082031 1.78125 -1.445312 1.28125 -2 C 0.789062 -2.550781 0.445312 -3.320312 0.25 -4.3125 L -1.21875 -11.328125 L 0.109375 -11.609375 L 1.578125 -4.578125 C 1.796875 -3.503906 2.210938 -2.773438 2.828125 -2.390625 C 3.453125 -2.015625 4.179688 -1.910156 5.015625 -2.078125 C 5.847656 -2.253906 6.46875 -2.640625 6.875 -3.234375 C 7.28125 -3.828125 7.375 -4.660156 7.15625 -5.734375 L 5.6875 -12.765625 L 7.015625 -13.046875 L 8.484375 -6.03125 C 8.679688 -5.039062 8.660156 -4.191406 8.421875 -3.484375 C 8.179688 -2.773438 7.78125 -2.203125 7.21875 -1.765625 C 6.65625 -1.335938 5.988281 -1.046875 5.21875 -0.890625 Z M 5.21875 -0.890625 "/></g></g></g><g fill="#000000" fill-opacity="1"><g transform="translate(229.407249, 314.137827)"><g><path d="M 4.578125 -1.5 C 3.796875 -1.207031 3.0625 -1.09375 2.375 -1.15625 C 1.695312 -1.226562 1.109375 -1.457031 0.609375 -1.84375 C 0.109375 -2.238281 -0.265625 -2.769531 -0.515625 -3.4375 L 0.8125 -3.9375 C 0.96875 -3.519531 1.207031 -3.171875 1.53125 -2.890625 C 1.851562 -2.609375 2.238281 -2.429688 2.6875 -2.359375 C 3.132812 -2.296875 3.632812 -2.363281 4.1875 -2.5625 C 4.90625 -2.832031 5.394531 -3.210938 5.65625 -3.703125 C 5.925781 -4.203125 5.96875 -4.707031 5.78125 -5.21875 C 5.625 -5.644531 5.398438 -5.953125 5.109375 -6.140625 C 4.828125 -6.328125 4.503906 -6.441406 4.140625 -6.484375 C 3.773438 -6.535156 3.367188 -6.550781 2.921875 -6.53125 C 2.472656 -6.507812 2 -6.492188 1.5 -6.484375 C 0.582031 -6.460938 -0.144531 -6.585938 -0.6875 -6.859375 C -1.238281 -7.140625 -1.640625 -7.613281 -1.890625 -8.28125 C -2.117188 -8.84375 -2.179688 -9.394531 -2.078125 -9.9375 C -1.972656 -10.488281 -1.710938 -10.976562 -1.296875 -11.40625 C -0.878906 -11.832031 -0.328125 -12.175781 0.359375 -12.4375 C 1.035156 -12.6875 1.671875 -12.773438 2.265625 -12.703125 C 2.867188 -12.640625 3.390625 -12.4375 3.828125 -12.09375 C 4.273438 -11.757812 4.609375 -11.304688 4.828125 -10.734375 L 3.5 -10.25 C 3.394531 -10.550781 3.210938 -10.816406 2.953125 -11.046875 C 2.691406 -11.273438 2.367188 -11.421875 1.984375 -11.484375 C 1.609375 -11.546875 1.1875 -11.492188 0.71875 -11.328125 C 0.125 -11.117188 -0.296875 -10.789062 -0.546875 -10.34375 C -0.796875 -9.90625 -0.820312 -9.425781 -0.625 -8.90625 C -0.445312 -8.445312 -0.1875 -8.144531 0.15625 -8 C 0.507812 -7.851562 0.945312 -7.785156 1.46875 -7.796875 C 1.988281 -7.816406 2.585938 -7.832031 3.265625 -7.84375 C 3.847656 -7.851562 4.382812 -7.8125 4.875 -7.71875 C 5.363281 -7.625 5.796875 -7.425781 6.171875 -7.125 C 6.546875 -6.832031 6.84375 -6.390625 7.0625 -5.796875 C 7.25 -5.285156 7.296875 -4.753906 7.203125 -4.203125 C 7.109375 -3.660156 6.847656 -3.148438 6.421875 -2.671875 C 5.992188 -2.191406 5.378906 -1.800781 4.578125 -1.5 Z M 4.578125 -1.5 "/></g></g></g></svg>