<svg xmlns="http://www.w3.org/2000/svg" xmlns:xlink="http://www.w3.org/1999/xlink" width="500" zoomAndPan="magnify" viewBox="0 0 375 374.999991" height="500" preserveAspectRatio="xMidYMid meet" version="1.0"><defs><g/><clipPath id="a8f8f59ca3"><path d="M 63 63 L 312 63 L 312 312 L 63 312 Z M 63 63 " clip-rule="nonzero"/></clipPath><clipPath id="791945f299"><path d="M 63.710938 62.320312 L 312.679688 63.710938 L 311.289062 312.679688 L 62.320312 311.289062 Z M 63.710938 62.320312 " clip-rule="nonzero"/></clipPath><clipPath id="60875b00bc"><path d="M 188.195312 63.015625 C 119.445312 62.632812 63.402344 118.054688 63.015625 186.804688 C 62.632812 255.554688 118.054688 311.597656 186.804688 311.984375 C 255.554688 312.367188 311.597656 256.945312 311.984375 188.195312 C 312.367188 119.445312 256.945312 63.402344 188.195312 63.015625 Z M 188.195312 63.015625 " clip-rule="nonzero"/></clipPath><clipPath id="6a715d2122"><path d="M 68.78125 68.78125 L 306.214844 68.78125 L 306.214844 306.214844 L 68.78125 306.214844 Z M 68.78125 68.78125 " clip-rule="nonzero"/></clipPath><clipPath id="17531427e2"><path d="M 187.496094 68.78125 C 121.933594 68.78125 68.78125 121.933594 68.78125 187.496094 C 68.78125 253.0625 121.933594 306.214844 187.496094 306.214844 C 253.0625 306.214844 306.214844 253.0625 306.214844 187.496094 C 306.214844 121.933594 253.0625 68.78125 187.496094 68.78125 Z M 187.496094 68.78125 " clip-rule="nonzero"/></clipPath><clipPath id="e1dc87344e"><path d="M 97.484375 97.484375 L 277.484375 97.484375 L 277.484375 277.484375 L 97.484375 277.484375 Z M 97.484375 97.484375 " clip-rule="nonzero"/></clipPath><clipPath id="c6992f35ad"><path d="M 187.496094 97.484375 C 137.785156 97.484375 97.484375 137.785156 97.484375 187.496094 C 97.484375 237.207031 137.785156 277.507812 187.496094 277.507812 C 237.207031 277.507812 277.507812 237.207031 277.507812 187.496094 C 277.507812 137.785156 237.207031 97.484375 187.496094 97.484375 Z M 187.496094 97.484375 " clip-rule="nonzero"/></clipPath><clipPath id="47558f639f"><path d="M 170.015625 117.25 L 204.984375 117.25 L 204.984375 150.578125 L 170.015625 150.578125 Z M 170.015625 117.25 " clip-rule="nonzero"/></clipPath><clipPath id="e066bf35c6"><path d="M 187.5 117.25 L 191.628906 129.980469 L 204.984375 129.980469 L 194.179688 137.847656 L 198.304688 150.578125 L 187.5 142.710938 L 176.695312 150.578125 L 180.820312 137.847656 L 170.015625 129.980469 L 183.371094 129.980469 Z M 187.5 117.25 " clip-rule="nonzero"/></clipPath><clipPath id="05a7e1a8d0"><path d="M 170.015625 214.816406 L 204.984375 214.816406 L 204.984375 248.144531 L 170.015625 248.144531 Z M 170.015625 214.816406 " clip-rule="nonzero"/></clipPath><clipPath id="635c4fc675"><path d="M 187.5 214.816406 L 191.628906 227.546875 L 204.984375 227.546875 L 194.179688 235.414062 L 198.304688 248.144531 L 187.5 240.277344 L 176.695312 248.144531 L 180.820312 235.414062 L 170.015625 227.546875 L 183.371094 227.546875 Z M 187.5 214.816406 " clip-rule="nonzero"/></clipPath></defs><rect x="-37.5" width="450" fill="#ffffff" y="-37.499999" height="449.999989" fill-opacity="1"/><rect x="-37.5" width="450" fill="#ff88f7" y="-37.499999" height="449.999989" fill-opacity="1"/><g clip-path="url(#a8f8f59ca3)"><g clip-path="url(#791945f299)"><g clip-path="url(#60875b00bc)"><path fill="#f6f5f2" d="M 63.710938 62.320312 L 312.679688 63.710938 L 311.289062 312.679688 L 62.320312 311.289062 Z M 63.710938 62.320312 " fill-opacity="1" fill-rule="nonzero"/></g></g></g><g clip-path="url(#6a715d2122)"><g clip-path="url(#17531427e2)"><path fill="#e485be" d="M 177.449219 74.46875 C 175.777344 74.617188 174.113281 74.800781 172.453125 75.019531 L 171.074219 64.609375 C 172.886719 64.371094 174.707031 64.167969 176.53125 64.007812 Z M 167.496094 75.785156 C 165.851562 76.078125 164.210938 76.410156 162.582031 76.773438 L 160.289062 66.527344 C 162.070312 66.128906 163.859375 65.769531 165.660156 65.449219 Z M 157.707031 77.980469 C 156.097656 78.417969 154.496094 78.890625 152.90625 79.398438 L 149.710938 69.398438 C 151.445312 68.839844 153.195312 68.324219 154.957031 67.847656 Z M 148.152344 81.035156 C 146.589844 81.613281 145.039062 82.226562 143.5 82.875 L 139.425781 73.199219 C 141.105469 72.488281 142.800781 71.820312 144.511719 71.1875 Z M 138.910156 84.929688 C 137.402344 85.644531 135.90625 86.394531 134.429688 87.179688 L 129.511719 77.902344 C 131.128906 77.046875 132.757812 76.226562 134.410156 75.441406 Z M 130.046875 89.628906 C 128.605469 90.476562 127.183594 91.355469 125.78125 92.265625 L 120.0625 83.460938 C 121.59375 82.464844 123.148438 81.503906 124.722656 80.578125 Z M 121.632812 95.09375 C 120.269531 96.066406 118.929688 97.066406 117.613281 98.097656 L 111.140625 89.832031 C 112.578125 88.703125 114.042969 87.609375 115.53125 86.546875 Z M 113.730469 101.277344 C 112.457031 102.367188 111.210938 103.484375 109.988281 104.628906 L 102.816406 96.960938 C 104.152344 95.710938 105.511719 94.492188 106.898438 93.304688 Z M 106.402344 108.136719 C 105.230469 109.332031 104.085938 110.554688 102.96875 111.800781 L 95.148438 104.792969 C 96.371094 103.433594 97.617188 102.097656 98.898438 100.792969 Z M 99.699219 115.613281 C 98.640625 116.90625 97.609375 118.222656 96.605469 119.5625 L 88.199219 113.269531 C 89.296875 111.808594 90.421875 110.371094 91.582031 108.957031 Z M 93.683594 123.648438 C 92.742188 125.03125 91.832031 126.433594 90.953125 127.851562 L 82.023438 122.324219 C 82.984375 120.773438 83.980469 119.242188 85.011719 117.734375 Z M 88.402344 132.179688 C 87.585938 133.640625 86.804688 135.117188 86.054688 136.609375 L 76.671875 131.894531 C 77.492188 130.261719 78.347656 128.648438 79.242188 127.054688 Z M 83.898438 141.144531 C 83.214844 142.667969 82.566406 144.210938 81.949219 145.765625 L 72.1875 141.902344 C 72.859375 140.203125 73.570312 138.515625 74.316406 136.847656 Z M 80.207031 150.46875 C 79.664062 152.050781 79.152344 153.644531 78.675781 155.25 L 68.609375 152.269531 C 69.128906 150.515625 69.6875 148.773438 70.285156 147.042969 Z M 77.363281 160.082031 C 76.960938 161.710938 76.59375 163.347656 76.261719 164.992188 L 65.96875 162.921875 C 66.328125 161.125 66.730469 159.335938 67.171875 157.554688 Z M 75.382812 169.914062 C 75.125 171.570312 74.90625 173.234375 74.722656 174.90625 L 64.285156 173.753906 C 64.484375 171.929688 64.726562 170.109375 65.007812 168.300781 Z M 74.28125 179.886719 C 74.171875 181.558594 74.097656 183.230469 74.058594 184.910156 L 63.5625 184.675781 C 63.601562 182.84375 63.683594 181.015625 63.804688 179.191406 Z M 74.058594 189.976562 C 74.09375 191.65625 74.164062 193.332031 74.273438 195 L 63.796875 195.683594 C 63.679688 193.863281 63.597656 192.035156 63.558594 190.203125 Z M 74.710938 199.984375 C 74.890625 201.652344 75.113281 203.316406 75.367188 204.976562 L 64.992188 206.578125 C 64.710938 204.769531 64.472656 202.949219 64.273438 201.125 Z M 76.242188 209.898438 C 76.570312 211.542969 76.9375 213.179688 77.339844 214.808594 L 67.144531 217.328125 C 66.703125 215.546875 66.304688 213.757812 65.945312 211.957031 Z M 78.648438 219.644531 C 79.121094 221.25 79.628906 222.84375 80.175781 224.425781 L 70.246094 227.839844 C 69.648438 226.109375 69.09375 224.367188 68.574219 222.613281 Z M 81.910156 229.132812 C 82.523438 230.6875 83.171875 232.226562 83.855469 233.753906 L 74.269531 238.039062 C 73.523438 236.371094 72.816406 234.6875 72.144531 232.984375 Z M 86.003906 238.289062 C 86.753906 239.785156 87.535156 241.261719 88.351562 242.722656 L 79.183594 247.839844 C 78.292969 246.242188 77.4375 244.628906 76.621094 242.996094 Z M 90.894531 247.050781 C 91.773438 248.472656 92.683594 249.875 93.625 251.257812 L 84.945312 257.164062 C 83.917969 255.65625 82.921875 254.121094 81.964844 252.570312 Z M 96.542969 255.347656 C 97.542969 256.6875 98.574219 258.003906 99.632812 259.296875 L 91.507812 265.949219 C 90.351562 264.535156 89.222656 263.09375 88.132812 261.632812 Z M 102.898438 263.113281 C 104.011719 264.359375 105.15625 265.582031 106.324219 266.78125 L 98.816406 274.117188 C 97.539062 272.8125 96.289062 271.476562 95.070312 270.113281 Z M 109.910156 270.292969 C 111.132812 271.4375 112.378906 272.554688 113.648438 273.644531 L 106.8125 281.613281 C 105.425781 280.425781 104.0625 279.203125 102.730469 277.953125 Z M 117.527344 276.828125 C 118.847656 277.863281 120.183594 278.867188 121.546875 279.839844 L 115.433594 288.378906 C 113.949219 287.316406 112.488281 286.21875 111.046875 285.089844 Z M 125.691406 282.671875 C 127.09375 283.582031 128.515625 284.464844 129.957031 285.3125 L 124.621094 294.359375 C 123.046875 293.429688 121.496094 292.46875 119.964844 291.46875 Z M 134.335938 287.765625 C 135.8125 288.550781 137.304688 289.300781 138.8125 290.019531 L 134.304688 299.503906 C 132.65625 298.71875 131.023438 297.898438 129.410156 297.039062 Z M 143.402344 292.078125 C 144.9375 292.726562 146.488281 293.34375 148.054688 293.921875 L 144.402344 303.765625 C 142.691406 303.132812 140.996094 302.460938 139.316406 301.75 Z M 152.804688 295.5625 C 154.394531 296.074219 155.992188 296.546875 157.601562 296.988281 L 154.84375 307.117188 C 153.082031 306.636719 151.335938 306.121094 149.597656 305.5625 Z M 162.476562 298.199219 C 164.109375 298.566406 165.746094 298.894531 167.390625 299.1875 L 165.542969 309.527344 C 163.746094 309.203125 161.953125 308.84375 160.171875 308.441406 Z M 172.347656 299.960938 C 174.007812 300.183594 175.671875 300.367188 177.34375 300.515625 L 176.417969 310.976562 C 174.589844 310.8125 172.773438 310.613281 170.957031 310.371094 Z M 182.335938 300.847656 C 184.019531 300.925781 185.703125 300.960938 187.390625 300.964844 L 187.378906 311.464844 C 185.539062 311.460938 183.703125 311.421875 181.867188 311.339844 Z M 192.441406 300.859375 C 194.113281 300.785156 195.777344 300.679688 197.4375 300.535156 L 198.347656 310.996094 C 196.53125 311.152344 194.714844 311.269531 192.890625 311.347656 Z M 202.433594 299.992188 C 204.09375 299.773438 205.746094 299.519531 207.394531 299.226562 L 209.222656 309.566406 C 207.421875 309.882812 205.617188 310.164062 203.804688 310.402344 Z M 212.308594 298.246094 C 213.941406 297.878906 215.566406 297.480469 217.183594 297.042969 L 219.925781 307.179688 C 218.15625 307.65625 216.378906 308.09375 214.59375 308.492188 Z M 221.984375 295.628906 C 223.582031 295.121094 225.167969 294.578125 226.742188 293.996094 L 230.371094 303.847656 C 228.652344 304.480469 226.917969 305.078125 225.171875 305.632812 Z M 231.398438 292.160156 C 232.941406 291.511719 234.472656 290.828125 235.988281 290.113281 L 240.480469 299.601562 C 238.824219 300.386719 237.152344 301.132812 235.464844 301.84375 Z M 240.46875 287.867188 C 241.949219 287.085938 243.410156 286.269531 244.855469 285.421875 L 250.171875 294.476562 C 248.59375 295.402344 246.996094 296.292969 245.378906 297.148438 Z M 249.125 282.785156 C 250.527344 281.875 251.910156 280.9375 253.273438 279.964844 L 259.367188 288.515625 C 257.878906 289.578125 256.367188 290.605469 254.835938 291.597656 Z M 257.296875 276.960938 C 258.617188 275.933594 259.910156 274.871094 261.183594 273.785156 L 268.007812 281.765625 C 266.617188 282.953125 265.203125 284.109375 263.761719 285.234375 Z M 264.925781 270.441406 C 266.152344 269.296875 267.347656 268.128906 268.519531 266.933594 L 276.015625 274.285156 C 274.738281 275.589844 273.429688 276.867188 272.09375 278.113281 Z M 271.953125 263.273438 C 273.074219 262.027344 274.164062 260.757812 275.226562 259.464844 L 283.339844 266.128906 C 282.179688 267.542969 280.988281 268.929688 279.765625 270.289062 Z M 278.324219 255.519531 C 279.328125 254.179688 280.304688 252.816406 281.25 251.433594 L 289.917969 257.359375 C 288.886719 258.867188 287.820312 260.355469 286.722656 261.820312 Z M 283.984375 247.234375 C 284.871094 245.808594 285.71875 244.367188 286.539062 242.90625 L 295.699219 248.042969 C 294.804688 249.640625 293.875 251.214844 292.910156 252.769531 Z M 288.894531 238.480469 C 289.648438 236.988281 290.367188 235.476562 291.050781 233.949219 L 300.628906 238.253906 C 299.878906 239.921875 299.09375 241.570312 298.269531 243.207031 Z M 293.003906 229.332031 C 293.621094 227.777344 294.203125 226.207031 294.75 224.628906 L 304.671875 228.0625 C 304.074219 229.792969 303.4375 231.503906 302.765625 233.203125 Z M 296.289062 219.847656 C 296.761719 218.246094 297.203125 216.636719 297.605469 215.015625 L 307.792969 217.554688 C 307.351562 219.328125 306.871094 221.085938 306.351562 222.835938 Z M 298.710938 210.105469 C 299.042969 208.472656 299.335938 206.835938 299.59375 205.1875 L 309.96875 206.8125 C 309.6875 208.609375 309.363281 210.402344 309.003906 212.1875 Z M 300.261719 200.199219 C 300.445312 198.542969 300.59375 196.882812 300.707031 195.214844 L 311.183594 195.917969 C 311.058594 197.738281 310.898438 199.550781 310.699219 201.359375 Z M 300.933594 190.191406 C 300.953125 189.296875 300.964844 188.398438 300.964844 187.496094 C 300.964844 186.707031 300.957031 185.917969 300.941406 185.125 L 311.4375 184.910156 C 311.457031 185.773438 311.464844 186.632812 311.464844 187.496094 C 311.464844 188.480469 311.453125 189.457031 311.429688 190.4375 Z M 300.726562 180.101562 C 300.621094 178.433594 300.476562 176.773438 300.296875 175.121094 L 310.734375 173.988281 C 310.933594 175.796875 311.089844 177.609375 311.207031 179.425781 Z M 299.644531 170.125 C 299.390625 168.476562 299.101562 166.835938 298.777344 165.203125 L 309.074219 163.148438 C 309.429688 164.9375 309.746094 166.730469 310.023438 168.53125 Z M 297.683594 160.289062 C 297.285156 158.667969 296.847656 157.054688 296.378906 155.453125 L 306.453125 152.496094 C 306.96875 154.246094 307.441406 156.007812 307.878906 157.78125 Z M 294.855469 150.671875 C 294.3125 149.089844 293.734375 147.519531 293.125 145.964844 L 302.894531 142.117188 C 303.5625 143.820312 304.195312 145.535156 304.789062 147.265625 Z M 291.183594 141.339844 C 290.503906 139.8125 289.785156 138.296875 289.039062 136.800781 L 298.429688 132.101562 C 299.246094 133.738281 300.027344 135.394531 300.773438 137.0625 Z M 286.695312 132.367188 C 285.882812 130.90625 285.035156 129.460938 284.15625 128.035156 L 293.09375 122.523438 C 294.054688 124.082031 294.980469 125.660156 295.871094 127.257812 Z M 281.429688 123.828125 C 280.488281 122.441406 279.519531 121.078125 278.515625 119.734375 L 286.933594 113.457031 C 288.027344 114.925781 289.089844 116.414062 290.117188 117.925781 Z M 275.429688 115.78125 C 274.371094 114.484375 273.285156 113.210938 272.167969 111.960938 L 280 104.96875 C 281.21875 106.332031 282.40625 107.722656 283.5625 109.136719 Z M 268.746094 108.289062 C 267.574219 107.09375 266.382812 105.921875 265.160156 104.773438 L 272.351562 97.121094 C 273.683594 98.371094 274.984375 99.652344 276.261719 100.960938 Z M 261.429688 101.417969 C 260.160156 100.328125 258.867188 99.265625 257.550781 98.230469 L 264.039062 89.976562 C 265.476562 91.105469 266.886719 92.265625 268.273438 93.457031 Z M 253.535156 95.21875 C 252.175781 94.242188 250.796875 93.296875 249.394531 92.382812 L 255.128906 83.589844 C 256.660156 84.585938 258.167969 85.617188 259.65625 86.683594 Z M 245.132812 89.738281 C 243.691406 88.882812 242.230469 88.066406 240.753906 87.277344 L 245.6875 78.011719 C 247.300781 78.871094 248.898438 79.765625 250.472656 80.695312 Z M 236.277344 85.019531 C 234.765625 84.300781 233.234375 83.613281 231.691406 82.957031 L 235.785156 73.289062 C 237.472656 74.003906 239.144531 74.753906 240.796875 75.542969 Z M 227.042969 81.109375 C 225.472656 80.527344 223.886719 79.976562 222.292969 79.464844 L 225.511719 69.46875 C 227.253906 70.03125 228.984375 70.628906 230.703125 71.269531 Z M 217.496094 78.035156 C 215.878906 77.59375 214.257812 77.191406 212.621094 76.820312 L 214.9375 66.578125 C 216.722656 66.984375 218.5 67.425781 220.265625 67.910156 Z M 207.710938 75.824219 C 206.0625 75.527344 204.414062 75.269531 202.753906 75.046875 L 204.152344 64.640625 C 205.964844 64.882812 207.769531 65.167969 209.566406 65.488281 Z M 197.757812 74.488281 C 196.097656 74.339844 194.433594 74.226562 192.765625 74.152344 L 193.242188 63.660156 C 195.066406 63.746094 196.882812 63.867188 198.695312 64.03125 Z M 187.71875 74.03125 L 187.492188 74.03125 C 185.808594 74.03125 184.125 74.066406 182.445312 74.140625 L 181.984375 63.652344 C 183.820312 63.570312 185.660156 63.53125 187.503906 63.53125 L 187.730469 63.53125 Z M 187.71875 74.03125 " fill-opacity="1" fill-rule="nonzero"/></g></g><g clip-path="url(#e1dc87344e)"><g clip-path="url(#c6992f35ad)"><path fill="#ff5ebf" d="M 160.269531 119.996094 C 155.957031 121.734375 151.84375 123.878906 147.929688 126.421875 L 129.136719 97.488281 C 134.910156 93.738281 140.984375 90.578125 147.355469 88.003906 Z M 137.015625 135.09375 C 133.648438 138.335938 130.625 141.867188 127.941406 145.683594 L 99.726562 125.828125 C 103.675781 120.210938 108.125 115.019531 113.074219 110.253906 Z M 121.054688 157.78125 C 119.152344 162.03125 117.671875 166.421875 116.621094 170.953125 L 83.015625 163.148438 C 84.570312 156.445312 86.757812 149.953125 89.570312 143.671875 Z M 114.785156 184.753906 C 114.75 185.667969 114.734375 186.582031 114.734375 187.496094 C 114.734375 191.28125 115.019531 195.023438 115.59375 198.726562 L 81.5 204 C 80.65625 198.550781 80.234375 193.046875 80.234375 187.496094 C 80.234375 186.15625 80.257812 184.820312 80.308594 183.484375 Z M 119.03125 212.195312 C 120.609375 216.570312 122.59375 220.761719 124.988281 224.765625 L 95.375 242.46875 C 91.84375 236.558594 88.910156 230.371094 86.578125 223.90625 Z M 133.246094 235.988281 C 136.363281 239.46875 139.777344 242.625 143.492188 245.449219 L 122.601562 272.90625 C 117.136719 268.75 112.117188 264.113281 107.535156 258.992188 Z M 155.328125 252.785156 C 159.507812 254.847656 163.839844 256.488281 168.328125 257.710938 L 159.265625 291 C 152.628906 289.191406 146.226562 286.765625 140.050781 283.71875 Z M 182.042969 260.058594 C 183.855469 260.191406 185.671875 260.257812 187.496094 260.257812 C 190.363281 260.257812 193.210938 260.09375 196.035156 259.765625 L 200.027344 294.03125 C 195.875 294.515625 191.699219 294.757812 187.496094 294.757812 C 184.824219 294.757812 182.160156 294.660156 179.503906 294.464844 Z M 209.628906 256.835938 C 214.058594 255.421875 218.320312 253.59375 222.410156 251.355469 L 238.992188 281.605469 C 232.953125 284.917969 226.660156 287.617188 220.109375 289.707031 Z M 233.929688 243.519531 C 237.523438 240.535156 240.804688 237.238281 243.765625 233.628906 L 270.433594 255.519531 C 266.074219 260.828125 261.25 265.675781 255.964844 270.0625 Z M 251.542969 222.066406 C 253.761719 217.964844 255.566406 213.695312 256.953125 209.253906 L 289.878906 219.554688 C 287.828125 226.117188 285.160156 232.425781 281.882812 238.484375 Z M 259.808594 195.640625 C 260.109375 192.945312 260.257812 190.230469 260.257812 187.496094 C 260.257812 185.539062 260.179688 183.59375 260.027344 181.65625 L 294.421875 178.933594 C 294.644531 181.777344 294.757812 184.632812 294.757812 187.496094 C 294.757812 191.503906 294.539062 195.488281 294.097656 199.449219 Z M 257.609375 167.949219 C 256.363281 163.46875 254.695312 159.144531 252.609375 154.976562 L 283.460938 139.535156 C 286.542969 145.691406 289.003906 152.082031 290.847656 158.707031 Z M 245.210938 143.179688 C 242.363281 139.480469 239.191406 136.082031 235.695312 132.988281 L 258.558594 107.152344 C 263.703125 111.703125 268.371094 116.703125 272.554688 122.144531 Z M 224.425781 124.789062 C 220.410156 122.414062 216.210938 120.453125 211.828125 118.898438 L 223.363281 86.382812 C 229.839844 88.679688 236.039062 91.578125 241.96875 95.082031 Z M 198.339844 115.535156 C 194.761719 115 191.148438 114.734375 187.496094 114.734375 C 182.796875 114.734375 178.167969 115.175781 173.605469 116.054688 L 167.066406 82.179688 C 173.789062 80.882812 180.597656 80.234375 187.496094 80.234375 C 192.855469 80.234375 198.164062 80.628906 203.429688 81.414062 Z M 198.339844 115.535156 " fill-opacity="1" fill-rule="nonzero"/></g></g><g fill="#c48593" fill-opacity="1"><g transform="translate(122.560047, 111.634176)"><g><path d="M 2.8125 -2.203125 C 2.34375 -1.804688 1.832031 -1.503906 1.28125 -1.296875 C 0.726562 -1.085938 0.222656 -0.988281 -0.234375 -1 L -0.46875 -1.984375 C -0.0507812 -1.953125 0.394531 -2.023438 0.875 -2.203125 C 1.363281 -2.390625 1.800781 -2.644531 2.1875 -2.96875 C 2.707031 -3.394531 3.019531 -3.800781 3.125 -4.1875 C 3.238281 -4.582031 3.175781 -4.925781 2.9375 -5.21875 C 2.75 -5.425781 2.53125 -5.535156 2.28125 -5.546875 C 2.03125 -5.566406 1.773438 -5.53125 1.515625 -5.4375 C 1.253906 -5.34375 0.898438 -5.179688 0.453125 -4.953125 C -0.109375 -4.679688 -0.582031 -4.476562 -0.96875 -4.34375 C -1.351562 -4.21875 -1.742188 -4.1875 -2.140625 -4.25 C -2.535156 -4.320312 -2.898438 -4.554688 -3.234375 -4.953125 C -3.503906 -5.285156 -3.660156 -5.660156 -3.703125 -6.078125 C -3.753906 -6.492188 -3.664062 -6.929688 -3.4375 -7.390625 C -3.21875 -7.847656 -2.847656 -8.296875 -2.328125 -8.734375 C -1.953125 -9.046875 -1.546875 -9.296875 -1.109375 -9.484375 C -0.671875 -9.679688 -0.253906 -9.796875 0.140625 -9.828125 L 0.453125 -8.875 C 0.046875 -8.820312 -0.34375 -8.71875 -0.71875 -8.5625 C -1.09375 -8.40625 -1.421875 -8.207031 -1.703125 -7.96875 C -2.203125 -7.550781 -2.5 -7.144531 -2.59375 -6.75 C -2.695312 -6.363281 -2.628906 -6.019531 -2.390625 -5.71875 C -2.210938 -5.507812 -1.992188 -5.394531 -1.734375 -5.375 C -1.484375 -5.351562 -1.222656 -5.394531 -0.953125 -5.5 C -0.679688 -5.601562 -0.328125 -5.757812 0.109375 -5.96875 C 0.671875 -6.25 1.140625 -6.453125 1.515625 -6.578125 C 1.898438 -6.703125 2.289062 -6.726562 2.6875 -6.65625 C 3.082031 -6.59375 3.4375 -6.367188 3.75 -5.984375 C 4.03125 -5.660156 4.191406 -5.285156 4.234375 -4.859375 C 4.285156 -4.429688 4.191406 -3.988281 3.953125 -3.53125 C 3.722656 -3.082031 3.34375 -2.640625 2.8125 -2.203125 Z M 2.8125 -2.203125 "/></g></g></g><g fill="#c48593" fill-opacity="1"><g transform="translate(131.484386, 104.558803)"><g><path d="M 5.421875 -4.671875 L 5.96875 -3.828125 L 1.03125 -0.65625 L -3.359375 -7.484375 L 1.453125 -10.578125 L 2.015625 -9.71875 L -1.828125 -7.25 L -0.484375 -5.15625 L 2.9375 -7.359375 L 3.46875 -6.53125 L 0.046875 -4.328125 L 1.453125 -2.125 Z M 5.421875 -4.671875 "/></g></g></g><g fill="#c48593" fill-opacity="1"><g transform="translate(141.691963, 98.32631)"><g><path d="M -2.453125 -7.828125 L -1.40625 -8.328125 L 1.703125 -1.9375 L 5.640625 -3.859375 L 6.078125 -2.953125 L 1.09375 -0.53125 Z M -2.453125 -7.828125 "/></g></g></g><g fill="#c48593" fill-opacity="1"><g transform="translate(151.754241, 93.680467)"><g><path d="M 6.375 -3.265625 L 6.703125 -2.328125 L 1.15625 -0.40625 L -1.5 -8.0625 L 3.890625 -9.9375 L 4.21875 -8.984375 L -0.078125 -7.484375 L 0.734375 -5.140625 L 4.5625 -6.46875 L 4.890625 -5.53125 L 1.0625 -4.203125 L 1.921875 -1.71875 Z M 6.375 -3.265625 "/></g></g></g><g fill="#c48593" fill-opacity="1"><g transform="translate(163.085566, 89.977689)"><g><path d="M 6.375 -9.59375 L 8.015625 -1.65625 L 7.078125 -1.453125 L 1.109375 -6.40625 L 2.328125 -0.484375 L 1.1875 -0.25 L -0.453125 -8.1875 L 0.484375 -8.375 L 6.46875 -3.4375 L 5.25 -9.359375 Z M 6.375 -9.59375 "/></g></g></g><g fill="#c48593" fill-opacity="1"><g transform="translate(176.413247, 87.548525)"><g><path d="M 6.21875 -2.46875 L 1.9375 -2.171875 L 1.1875 -0.078125 L -0.015625 0 L 3.078125 -8.34375 L 4.234375 -8.421875 L 8.46875 -0.578125 L 7.25 -0.5 Z M 5.75 -3.359375 L 3.734375 -7.203125 L 2.28125 -3.125 Z M 5.75 -3.359375 "/></g></g></g><g fill="#c48593" fill-opacity="1"><g transform="translate(189.128609, 87.033407)"><g/></g></g><g fill="#c48593" fill-opacity="1"><g transform="translate(196.494402, 87.36104)"><g><path d="M 7.34375 -3.09375 L 8.4375 -2.9375 L 7.984375 0.1875 C 7.546875 0.457031 7.050781 0.644531 6.5 0.75 C 5.945312 0.851562 5.382812 0.863281 4.8125 0.78125 C 4 0.664062 3.289062 0.382812 2.6875 -0.0625 C 2.09375 -0.507812 1.65625 -1.070312 1.375 -1.75 C 1.101562 -2.425781 1.019531 -3.148438 1.125 -3.921875 C 1.238281 -4.710938 1.519531 -5.394531 1.96875 -5.96875 C 2.425781 -6.539062 3.003906 -6.957031 3.703125 -7.21875 C 4.410156 -7.476562 5.171875 -7.550781 5.984375 -7.4375 C 6.628906 -7.34375 7.195312 -7.148438 7.6875 -6.859375 C 8.1875 -6.578125 8.59375 -6.210938 8.90625 -5.765625 L 8.09375 -5.15625 C 7.539062 -5.851562 6.804688 -6.269531 5.890625 -6.40625 C 5.273438 -6.488281 4.707031 -6.429688 4.1875 -6.234375 C 3.664062 -6.046875 3.234375 -5.734375 2.890625 -5.296875 C 2.554688 -4.867188 2.347656 -4.359375 2.265625 -3.765625 C 2.179688 -3.191406 2.242188 -2.648438 2.453125 -2.140625 C 2.660156 -1.628906 2.984375 -1.203125 3.421875 -0.859375 C 3.867188 -0.523438 4.398438 -0.316406 5.015625 -0.234375 C 5.722656 -0.128906 6.375 -0.210938 6.96875 -0.484375 Z M 7.34375 -3.09375 "/></g></g></g><g fill="#c48593" fill-opacity="1"><g transform="translate(209.401365, 89.446621)"><g><path d="M 4.65625 1.4375 C 3.863281 1.207031 3.203125 0.828125 2.671875 0.296875 C 2.140625 -0.234375 1.785156 -0.851562 1.609375 -1.5625 C 1.429688 -2.269531 1.445312 -2.992188 1.65625 -3.734375 C 1.875 -4.484375 2.25 -5.113281 2.78125 -5.625 C 3.3125 -6.132812 3.941406 -6.472656 4.671875 -6.640625 C 5.398438 -6.804688 6.160156 -6.773438 6.953125 -6.546875 C 7.734375 -6.328125 8.390625 -5.953125 8.921875 -5.421875 C 9.453125 -4.890625 9.804688 -4.269531 9.984375 -3.5625 C 10.160156 -2.851562 10.140625 -2.117188 9.921875 -1.359375 C 9.710938 -0.609375 9.34375 0.015625 8.8125 0.515625 C 8.28125 1.015625 7.648438 1.347656 6.921875 1.515625 C 6.191406 1.679688 5.4375 1.65625 4.65625 1.4375 Z M 4.953125 0.4375 C 5.523438 0.601562 6.070312 0.617188 6.59375 0.484375 C 7.125 0.359375 7.585938 0.109375 7.984375 -0.265625 C 8.378906 -0.648438 8.65625 -1.125 8.8125 -1.6875 C 8.976562 -2.257812 8.992188 -2.804688 8.859375 -3.328125 C 8.722656 -3.859375 8.460938 -4.316406 8.078125 -4.703125 C 7.703125 -5.097656 7.226562 -5.378906 6.65625 -5.546875 C 6.082031 -5.710938 5.523438 -5.726562 4.984375 -5.59375 C 4.453125 -5.46875 3.988281 -5.21875 3.59375 -4.84375 C 3.207031 -4.46875 2.929688 -3.992188 2.765625 -3.421875 C 2.609375 -2.859375 2.59375 -2.3125 2.71875 -1.78125 C 2.851562 -1.25 3.113281 -0.785156 3.5 -0.390625 C 3.894531 -0.00390625 4.378906 0.269531 4.953125 0.4375 Z M 4.953125 0.4375 "/></g></g></g><g fill="#c48593" fill-opacity="1"><g transform="translate(222.621608, 93.499957)"><g><path d="M 7.953125 3.625 L 10.390625 -1.75 L 5.671875 1.515625 L 5.1875 1.28125 L 4.5625 -4.375 L 2.125 0.96875 L 1.109375 0.5 L 4.46875 -6.875 L 5.328125 -6.46875 L 6.046875 0.109375 L 11.4375 -3.6875 L 12.296875 -3.296875 L 8.953125 4.078125 Z M 7.953125 3.625 "/></g></g></g><g fill="#c48593" fill-opacity="1"><g transform="translate(236.263095, 100.161854)"><g><path d="M 6.515625 2.96875 L 5.984375 3.8125 L 1.03125 0.65625 L 5.390625 -6.1875 L 10.21875 -3.125 L 9.671875 -2.265625 L 5.8125 -4.703125 L 4.46875 -2.609375 L 7.90625 -0.4375 L 7.390625 0.390625 L 3.953125 -1.78125 L 2.53125 0.4375 Z M 6.515625 2.96875 "/></g></g></g><g fill="#c48593" fill-opacity="1"><g transform="translate(246.198955, 106.798619)"><g><path d="M 6.25 3.859375 L 5.609375 4.625 L 0.390625 0.3125 L 0.890625 -0.296875 L 8.828125 -1.90625 L 4.96875 -5.09375 L 5.609375 -5.890625 L 10.65625 -1.734375 L 10.15625 -1.109375 L 2.21875 0.53125 Z M 6.25 3.859375 "/></g></g></g><g fill="#c48593" fill-opacity="1"><g transform="translate(118.025604, 268.597468)"><g><path d="M 2.6875 2.359375 C 2.21875 1.960938 1.828125 1.515625 1.515625 1.015625 C 1.203125 0.515625 1.015625 0.0390625 0.953125 -0.40625 L 1.875 -0.828125 C 1.914062 -0.421875 2.066406 0 2.328125 0.4375 C 2.597656 0.882812 2.925781 1.269531 3.3125 1.59375 C 3.832031 2.019531 4.289062 2.25 4.6875 2.28125 C 5.09375 2.320312 5.414062 2.195312 5.65625 1.90625 C 5.84375 1.695312 5.921875 1.460938 5.890625 1.203125 C 5.859375 0.953125 5.769531 0.707031 5.625 0.46875 C 5.476562 0.226562 5.253906 -0.0859375 4.953125 -0.484375 C 4.578125 -0.984375 4.289062 -1.40625 4.09375 -1.75 C 3.894531 -2.101562 3.789062 -2.484375 3.78125 -2.890625 C 3.769531 -3.304688 3.929688 -3.710938 4.265625 -4.109375 C 4.535156 -4.441406 4.867188 -4.671875 5.265625 -4.796875 C 5.671875 -4.921875 6.117188 -4.914062 6.609375 -4.78125 C 7.109375 -4.644531 7.617188 -4.359375 8.140625 -3.921875 C 8.515625 -3.609375 8.835938 -3.253906 9.109375 -2.859375 C 9.378906 -2.472656 9.566406 -2.085938 9.671875 -1.703125 L 8.796875 -1.21875 C 8.660156 -1.601562 8.484375 -1.960938 8.265625 -2.296875 C 8.046875 -2.628906 7.796875 -2.914062 7.515625 -3.15625 C 7.015625 -3.570312 6.554688 -3.789062 6.140625 -3.8125 C 5.734375 -3.84375 5.410156 -3.707031 5.171875 -3.40625 C 4.992188 -3.195312 4.914062 -2.96875 4.9375 -2.71875 C 4.96875 -2.46875 5.0625 -2.21875 5.21875 -1.96875 C 5.375 -1.71875 5.597656 -1.394531 5.890625 -1 C 6.265625 -0.507812 6.546875 -0.0859375 6.734375 0.265625 C 6.929688 0.617188 7.035156 0.992188 7.046875 1.390625 C 7.054688 1.796875 6.90625 2.191406 6.59375 2.578125 C 6.3125 2.898438 5.96875 3.125 5.5625 3.25 C 5.164062 3.375 4.71875 3.363281 4.21875 3.21875 C 3.726562 3.082031 3.21875 2.796875 2.6875 2.359375 Z M 2.6875 2.359375 "/></g></g></g><g fill="#c48593" fill-opacity="1"><g transform="translate(127.638849, 276.176362)"><g><path d="M 6.515625 2.984375 L 5.96875 3.828125 L 1.03125 0.65625 L 5.421875 -6.171875 L 10.234375 -3.078125 L 9.671875 -2.21875 L 5.828125 -4.6875 L 4.484375 -2.59375 L 7.90625 -0.390625 L 7.375 0.4375 L 3.953125 -1.765625 L 2.546875 0.4375 Z M 6.515625 2.984375 "/></g></g></g><g fill="#c48593" fill-opacity="1"><g transform="translate(138.580772, 282.821493)"><g><path d="M 4.640625 -6.765625 L 5.6875 -6.265625 L 2.578125 0.125 L 6.515625 2.046875 L 6.078125 2.953125 L 1.09375 0.53125 Z M 4.640625 -6.765625 "/></g></g></g><g fill="#c48593" fill-opacity="1"><g transform="translate(149.420992, 287.790246)"><g><path d="M 7.03125 1.390625 L 6.703125 2.328125 L 1.15625 0.40625 L 3.8125 -7.25 L 9.203125 -5.375 L 8.875 -4.421875 L 4.578125 -5.921875 L 3.765625 -3.578125 L 7.59375 -2.25 L 7.265625 -1.3125 L 3.4375 -2.640625 L 2.578125 -0.15625 Z M 7.03125 1.390625 "/></g></g></g><g fill="#c48593" fill-opacity="1"><g transform="translate(161.650036, 291.740223)"><g><path d="M 9.65625 -6.28125 L 8.015625 1.65625 L 7.078125 1.453125 L 3.546875 -5.4375 L 2.328125 0.484375 L 1.1875 0.25 L 2.828125 -7.6875 L 3.765625 -7.5 L 7.3125 -0.59375 L 8.53125 -6.515625 Z M 9.65625 -6.28125 "/></g></g></g><g fill="#c48593" fill-opacity="1"><g transform="translate(175.925283, 294.298977)"><g><path d="M 6.5 -1.59375 L 2.21875 -1.890625 L 1.1875 0.078125 L -0.015625 0 L 4.203125 -7.84375 L 5.359375 -7.765625 L 8.46875 0.578125 L 7.25 0.5 Z M 6.15625 -2.546875 L 4.671875 -6.609375 L 2.6875 -2.78125 Z M 6.15625 -2.546875 "/></g></g></g><g fill="#c48593" fill-opacity="1"><g transform="translate(189.375677, 294.826555)"><g/></g></g><g fill="#c48593" fill-opacity="1"><g transform="translate(197.49003, 294.433192)"><g><path d="M 6.1875 -5 L 7.28125 -5.15625 L 7.734375 -2.03125 C 7.378906 -1.65625 6.953125 -1.34375 6.453125 -1.09375 C 5.953125 -0.84375 5.414062 -0.675781 4.84375 -0.59375 C 4.03125 -0.476562 3.269531 -0.550781 2.5625 -0.8125 C 1.863281 -1.070312 1.285156 -1.488281 0.828125 -2.0625 C 0.378906 -2.632812 0.101562 -3.304688 0 -4.078125 C -0.113281 -4.867188 -0.0351562 -5.601562 0.234375 -6.28125 C 0.515625 -6.957031 0.957031 -7.519531 1.5625 -7.96875 C 2.175781 -8.414062 2.890625 -8.695312 3.703125 -8.8125 C 4.347656 -8.90625 4.941406 -8.878906 5.484375 -8.734375 C 6.035156 -8.597656 6.53125 -8.359375 6.96875 -8.015625 L 6.34375 -7.1875 C 5.625 -7.71875 4.804688 -7.914062 3.890625 -7.78125 C 3.273438 -7.695312 2.742188 -7.488281 2.296875 -7.15625 C 1.847656 -6.832031 1.519531 -6.410156 1.3125 -5.890625 C 1.113281 -5.378906 1.054688 -4.828125 1.140625 -4.234375 C 1.222656 -3.660156 1.429688 -3.160156 1.765625 -2.734375 C 2.097656 -2.304688 2.523438 -1.988281 3.046875 -1.78125 C 3.578125 -1.582031 4.148438 -1.523438 4.765625 -1.609375 C 5.472656 -1.710938 6.070312 -1.972656 6.5625 -2.390625 Z M 6.1875 -5 "/></g></g></g><g fill="#c48593" fill-opacity="1"><g transform="translate(211.3595, 292.142788)"><g><path d="M 4.71875 -1.25 C 3.925781 -1.019531 3.164062 -0.988281 2.4375 -1.15625 C 1.707031 -1.320312 1.078125 -1.660156 0.546875 -2.171875 C 0.015625 -2.679688 -0.351562 -3.304688 -0.5625 -4.046875 C -0.78125 -4.796875 -0.800781 -5.523438 -0.625 -6.234375 C -0.445312 -6.941406 -0.09375 -7.5625 0.4375 -8.09375 C 0.96875 -8.625 1.628906 -9.003906 2.421875 -9.234375 C 3.203125 -9.453125 3.957031 -9.476562 4.6875 -9.3125 C 5.414062 -9.144531 6.046875 -8.8125 6.578125 -8.3125 C 7.109375 -7.8125 7.484375 -7.179688 7.703125 -6.421875 C 7.910156 -5.671875 7.925781 -4.941406 7.75 -4.234375 C 7.570312 -3.523438 7.21875 -2.90625 6.6875 -2.375 C 6.15625 -1.84375 5.5 -1.46875 4.71875 -1.25 Z M 4.421875 -2.25 C 4.992188 -2.414062 5.46875 -2.691406 5.84375 -3.078125 C 6.226562 -3.472656 6.488281 -3.929688 6.625 -4.453125 C 6.757812 -4.984375 6.75 -5.53125 6.59375 -6.09375 C 6.425781 -6.664062 6.144531 -7.140625 5.75 -7.515625 C 5.351562 -7.898438 4.890625 -8.15625 4.359375 -8.28125 C 3.835938 -8.414062 3.289062 -8.398438 2.71875 -8.234375 C 2.144531 -8.066406 1.660156 -7.785156 1.265625 -7.390625 C 0.878906 -7.003906 0.617188 -6.546875 0.484375 -6.015625 C 0.359375 -5.484375 0.378906 -4.929688 0.546875 -4.359375 C 0.703125 -3.796875 0.972656 -3.328125 1.359375 -2.953125 C 1.753906 -2.578125 2.21875 -2.320312 2.75 -2.1875 C 3.289062 -2.0625 3.847656 -2.082031 4.421875 -2.25 Z M 4.421875 -2.25 "/></g></g></g><g fill="#c48593" fill-opacity="1"><g transform="translate(225.57291, 287.723153)"><g><path d="M 7.953125 -3.625 L 5.484375 -9 L 4.859375 -3.296875 L 4.375 -3.0625 L -0.3125 -6.3125 L 2.125 -0.96875 L 1.109375 -0.5 L -2.25 -7.875 L -1.390625 -8.28125 L 4.046875 -4.484375 L 4.71875 -11.0625 L 5.578125 -11.453125 L 8.953125 -4.078125 Z M 7.953125 -3.625 "/></g></g></g><g fill="#c48593" fill-opacity="1"><g transform="translate(240.083901, 280.589145)"><g><path d="M 5.453125 -4.65625 L 5.984375 -3.8125 L 1.03125 -0.65625 L -3.328125 -7.5 L 1.5 -10.5625 L 2.046875 -9.703125 L -1.8125 -7.265625 L -0.46875 -5.171875 L 2.96875 -7.34375 L 3.484375 -6.515625 L 0.046875 -4.34375 L 1.46875 -2.125 Z M 5.453125 -4.65625 "/></g></g></g><g fill="#c48593" fill-opacity="1"><g transform="translate(250.722063, 273.442361)"><g><path d="M 4.96875 -5.390625 L 5.609375 -4.625 L 0.390625 -0.3125 L -0.109375 -0.921875 L -0.203125 -9.03125 L -4.0625 -5.84375 L -4.703125 -6.640625 L 0.34375 -10.796875 L 0.84375 -10.171875 L 0.9375 -2.0625 Z M 4.96875 -5.390625 "/></g></g></g><g clip-path="url(#47558f639f)"><g clip-path="url(#e066bf35c6)"><path fill="#ff009a" d="M 170.015625 117.25 L 204.984375 117.25 L 204.984375 150.578125 L 170.015625 150.578125 Z M 170.015625 117.25 " fill-opacity="1" fill-rule="nonzero"/></g></g><g clip-path="url(#05a7e1a8d0)"><g clip-path="url(#635c4fc675)"><path fill="#ff009a" d="M 170.015625 214.816406 L 204.984375 214.816406 L 204.984375 248.144531 L 170.015625 248.144531 Z M 170.015625 214.816406 " fill-opacity="1" fill-rule="nonzero"/></g></g><g fill="#ff5ebf" fill-opacity="1"><g transform="translate(149.27197, 176.652363)"><g><path d="M 5.914062 0.511719 C 9.949219 0.511719 14.664062 -1.839844 15.300781 -6.828125 C 15.324219 -6.984375 15.324219 -7.144531 15.324219 -7.300781 C 15.324219 -10.351562 10.726562 -12.238281 7.582031 -13.996094 C 8.59375 -15.1875 11.652344 -14.835938 14.152344 -15.105469 C 14.175781 -15.273438 14.175781 -15.433594 14.175781 -15.589844 C 14.175781 -17.308594 12.921875 -18.003906 11.128906 -18.003906 C 8.996094 -18.003906 3.753906 -16.335938 3.753906 -13.554688 C 3.753906 -10.386719 11.238281 -8.421875 11.238281 -6.535156 L 11.238281 -6.4375 C 10.863281 -3.644531 6.828125 -2.035156 4.804688 -2.035156 C 2.597656 -2.035156 1.683594 -3.4375 0.511719 -3.4375 C -0.730469 -3.4375 -0.964844 -2.816406 -0.964844 -2.425781 C -0.964844 -1.449219 1.753906 0.511719 5.914062 0.511719 Z M 5.914062 0.511719 "/></g></g></g><g fill="#ff5ebf" fill-opacity="1"><g transform="translate(165.160072, 176.652363)"><g><path d="M 9.628906 -6.070312 C 8.289062 -4.753906 5.949219 -2.5 4.082031 -2.5 C 3.15625 -2.5 2.949219 -2.890625 2.949219 -3.523438 C 2.949219 -4.121094 3.085938 -4.402344 3.339844 -4.839844 C 5.460938 -5.707031 8.558594 -6.9375 8.558594 -9.667969 C 8.558594 -11.191406 7.667969 -11.984375 5.996094 -11.984375 C 2.828125 -11.984375 -0.476562 -7.703125 -0.476562 -4.597656 C -0.476562 -2.988281 0.378906 -1.914062 1.621094 -1.195312 C 2.242188 -0.828125 4.449219 0.121094 4.875 0.121094 C 6.789062 0.121094 10.679688 -3.5 11.738281 -5.011719 C 12.140625 -5.582031 12.445312 -6.265625 12.445312 -7.035156 C 12.445312 -7.472656 12.238281 -7.535156 12.007812 -7.535156 C 11.910156 -7.535156 11.8125 -7.523438 11.726562 -7.523438 C 10.875 -7.523438 9.984375 -6.425781 9.628906 -6.070312 Z M 6.753906 -9.984375 C 6.300781 -9.070312 5.386719 -7.9375 4.375 -7.851562 C 4.644531 -8.667969 5.460938 -9.949219 6.546875 -10.082031 C 6.605469 -10.082031 6.667969 -10.019531 6.753906 -9.984375 Z M 6.753906 -9.984375 "/></g></g></g><g fill="#ff5ebf" fill-opacity="1"><g transform="translate(175.504404, 176.652363)"><g><path d="M 4.402344 0.316406 C 6.398438 0.316406 10.703125 -4.949219 10.703125 -6.632812 C 10.703125 -6.984375 10.519531 -7.289062 10.191406 -7.289062 C 10.046875 -7.289062 9.835938 -7.253906 9.65625 -7.082031 C 7.875 -5.472656 5.402344 -2.78125 4.023438 -2.78125 C 3.328125 -2.78125 3.085938 -4.5 3.085938 -4.742188 C 6.71875 -7.082031 12.679688 -13.59375 12.75 -18.726562 C 12.75 -19.054688 11.203125 -22.136719 9.910156 -22.136719 C 7.839844 -22.136719 5.828125 -19.394531 4.960938 -17.773438 C 2.558594 -13.3125 -0.511719 -8.191406 -0.511719 -2.839844 C -0.511719 -2.109375 3.15625 0.316406 4.402344 0.316406 Z M 4.195312 -8.421875 C 4.109375 -8.421875 4.097656 -8.460938 4.082031 -8.558594 C 6.460938 -13.3125 8.3125 -16.628906 10.570312 -19.308594 C 10.65625 -19.417969 10.835938 -19.433594 10.996094 -19.492188 C 10.886719 -17.992188 9.8125 -16.105469 9.09375 -14.507812 C 8.253906 -12.640625 6.023438 -9.546875 4.195312 -8.421875 Z M 4.195312 -8.421875 "/></g></g></g><g fill="#ff5ebf" fill-opacity="1"><g transform="translate(184.874001, 176.652363)"><g><path d="M 9.628906 -6.070312 C 8.289062 -4.753906 5.949219 -2.5 4.082031 -2.5 C 3.15625 -2.5 2.949219 -2.890625 2.949219 -3.523438 C 2.949219 -4.121094 3.085938 -4.402344 3.339844 -4.839844 C 5.460938 -5.707031 8.558594 -6.9375 8.558594 -9.667969 C 8.558594 -11.191406 7.667969 -11.984375 5.996094 -11.984375 C 2.828125 -11.984375 -0.476562 -7.703125 -0.476562 -4.597656 C -0.476562 -2.988281 0.378906 -1.914062 1.621094 -1.195312 C 2.242188 -0.828125 4.449219 0.121094 4.875 0.121094 C 6.789062 0.121094 10.679688 -3.5 11.738281 -5.011719 C 12.140625 -5.582031 12.445312 -6.265625 12.445312 -7.035156 C 12.445312 -7.472656 12.238281 -7.535156 12.007812 -7.535156 C 11.910156 -7.535156 11.8125 -7.523438 11.726562 -7.523438 C 10.875 -7.523438 9.984375 -6.425781 9.628906 -6.070312 Z M 6.753906 -9.984375 C 6.300781 -9.070312 5.386719 -7.9375 4.375 -7.851562 C 4.644531 -8.667969 5.460938 -9.949219 6.546875 -10.082031 C 6.605469 -10.082031 6.667969 -10.019531 6.753906 -9.984375 Z M 6.753906 -9.984375 "/></g></g></g><g fill="#ff5ebf" fill-opacity="1"><g transform="translate(195.218333, 176.652363)"><g><path d="M 0.292969 -0.476562 C 0.523438 -0.0976562 1.511719 0.28125 2.292969 0.28125 C 3.742188 0.28125 4.609375 -5.070312 6.109375 -5.472656 C 6.21875 -5.472656 6.242188 -5.207031 6.242188 -4.777344 C 6.242188 -4.375 6.21875 -3.839844 6.21875 -3.253906 C 6.21875 -1.5 6.425781 0.671875 8.105469 0.671875 C 11.847656 0.671875 14.703125 -3.890625 15.859375 -5.570312 L 14.882812 -6.996094 C 13.605469 -5.558594 10.421875 -1.960938 9.460938 -1.960938 C 9.242188 -1.960938 9.09375 -2.167969 9.09375 -2.667969 C 9.09375 -4.023438 9.679688 -5.242188 9.679688 -6.4375 C 9.679688 -7.679688 8.460938 -9.507812 7.007812 -9.507812 C 6.203125 -9.507812 4.535156 -8.167969 3.890625 -7.082031 C 3.777344 -7.753906 3.195312 -8.691406 2.449219 -8.691406 C 1.328125 -8.691406 0.121094 -7.058594 -0.414062 -6.179688 L 0.488281 -4.828125 C 0.546875 -4.886719 1.351562 -5.582031 1.5 -5.582031 C 1.546875 -5.582031 1.742188 -5.4375 1.742188 -4.753906 C 1.742188 -3.863281 0.546875 -1.144531 0.292969 -0.476562 Z M 0.292969 -0.476562 "/></g></g></g><g fill="#ff5ebf" fill-opacity="1"><g transform="translate(209.912392, 176.652363)"><g><path d="M 8.484375 0.902344 C 9.351562 0.902344 10.277344 0.671875 11.140625 0.207031 C 13.191406 -0.867188 14.996094 -2.414062 16.285156 -4.351562 C 16.445312 -4.582031 16.578125 -4.949219 16.578125 -5.363281 C 16.578125 -5.828125 16.410156 -6.375 15.882812 -6.898438 C 14.105469 -5.023438 9.984375 -1.523438 8.949219 -1.523438 C 8.789062 -1.523438 8.691406 -1.597656 8.691406 -1.78125 C 8.691406 -1.828125 8.703125 -1.878906 8.714844 -1.9375 C 8.996094 -3.265625 9.570312 -4.425781 10.460938 -5.753906 C 10.933594 -6.472656 11.15625 -6.863281 11.15625 -7.203125 C 11.15625 -7.582031 10.886719 -7.925781 10.335938 -8.570312 C 10.070312 -8.886719 9.765625 -9.007812 9.484375 -9.007812 C 9.15625 -9.007812 8.839844 -8.839844 8.644531 -8.617188 C 7.339844 -9.835938 6.121094 -10.398438 4.960938 -10.398438 C 3.585938 -10.398438 2.28125 -9.605469 0.988281 -8.230469 C 0.046875 -7.214844 -0.546875 -5.996094 -0.546875 -4.546875 C -0.546875 -3.570312 -0.28125 -2.5 0.328125 -1.316406 C 0.5 -1 1.367188 -0.695312 2.488281 -0.695312 C 3.523438 -0.695312 4.777344 -0.949219 5.886719 -1.695312 C 5.777344 -1.378906 5.65625 -1.046875 5.65625 -0.730469 C 5.65625 0.464844 7.570312 0.902344 8.484375 0.902344 Z M 6.386719 -8.191406 C 7.121094 -8.191406 7.925781 -7.667969 7.925781 -7.328125 C 7.925781 -7.300781 7.925781 -7.277344 7.910156 -7.253906 C 7.046875 -5.425781 5.511719 -3.058594 3.585938 -3.058594 C 3.167969 -3.058594 2.851562 -3.167969 2.851562 -3.667969 C 2.851562 -4.972656 5.132812 -7.949219 6.082031 -8.15625 C 6.179688 -8.179688 6.277344 -8.191406 6.386719 -8.191406 Z M 6.386719 -8.191406 "/></g></g></g><g fill="#ff5ebf" fill-opacity="1"><g transform="translate(146.655348, 210.145124)"><g/></g></g><g fill="#ff5ebf" fill-opacity="1"><g transform="translate(154.290516, 210.145124)"><g><path d="M 15.628906 -18.226562 C 11.179688 -18.226562 4.789062 -15.46875 1.949219 -13.152344 C 0.160156 -11.691406 -0.683594 -7.910156 -0.683594 -5.691406 C -0.683594 -4.875 -0.511719 -4.167969 -0.0976562 -3.667969 C 0.730469 -2.644531 3.144531 0.476562 4.730469 0.476562 C 7.265625 0.476562 16.945312 -3.71875 16.945312 -6.898438 C 16.945312 -7.425781 16.824219 -7.679688 16.371094 -8.375 L 17.601562 -8.535156 C 17.566406 -9.253906 17.492188 -10.363281 17.433594 -11.058594 C 17.394531 -11.472656 17.019531 -11.59375 16.371094 -11.59375 C 13.226562 -11.59375 10.300781 -10.496094 6.910156 -9.449219 C 7.121094 -8.144531 7.679688 -6.789062 8.519531 -6.789062 C 8.617188 -6.789062 8.726562 -6.800781 8.839844 -6.828125 C 11.472656 -7.472656 12.277344 -8.058594 14.300781 -8.058594 C 14.664062 -8.058594 14.871094 -7.179688 14.871094 -6.789062 C 14.871094 -5.449219 7.765625 -2.265625 6.289062 -2.109375 C 5.71875 -2.109375 3.167969 -4.304688 3.144531 -5.789062 C 3.144531 -7.691406 4.511719 -10.605469 5.375 -11.226562 C 9.09375 -13.921875 13.519531 -14.300781 17.835938 -16.007812 C 17.089844 -17.6875 16.421875 -18.226562 15.628906 -18.226562 Z M 15.628906 -18.226562 "/></g></g></g><g fill="#ff5ebf" fill-opacity="1"><g transform="translate(171.896577, 210.145124)"><g><path d="M 8.898438 -6.632812 C 8.996094 -6.863281 9.058594 -7.375 9.058594 -7.65625 C 9.058594 -9.046875 7.472656 -11.238281 5.828125 -11.238281 C 4.292969 -11.238281 2.207031 -9.910156 1.378906 -8.824219 C 0.367188 -7.617188 -0.851562 -5.667969 -0.851562 -4.023438 C -0.851562 -3.71875 -0.78125 -2.925781 -0.671875 -2.4375 C 0.0117188 -1.839844 2.460938 0.414062 3.597656 0.414062 C 3.695312 0.414062 3.792969 0.402344 3.875 0.355469 C 5.875 -0.753906 7.425781 -1.976562 8.351562 -4.21875 C 8.644531 -4.035156 8.984375 -3.949219 9.351562 -3.949219 C 10.53125 -3.949219 11.910156 -4.816406 12.410156 -6.058594 L 11.128906 -7.351562 C 10.484375 -6.558594 9.949219 -6.507812 9.449219 -6.507812 C 8.996094 -6.507812 9.03125 -6.546875 8.898438 -6.632812 Z M 2.71875 -3.4375 C 2.71875 -4.753906 3.679688 -6.414062 4.886719 -7.679688 C 5.035156 -7.828125 5.230469 -7.9375 5.425781 -7.9375 C 5.535156 -7.9375 5.65625 -7.898438 5.765625 -7.828125 C 5.789062 -7.265625 5.691406 -6.765625 6.21875 -6.328125 C 5.925781 -5.753906 5.609375 -5.253906 5.191406 -4.753906 C 4.691406 -4.167969 3.585938 -3.132812 3.046875 -3.132812 C 2.863281 -3.132812 2.71875 -3.253906 2.71875 -3.4375 Z M 2.71875 -3.4375 "/></g></g></g><g fill="#ff5ebf" fill-opacity="1"><g transform="translate(182.472405, 210.145124)"><g><path d="M 10.191406 0.4375 C 10.863281 -0.914062 11.386719 -2.390625 12.179688 -3.777344 C 12.507812 -4.363281 13.910156 -7.449219 14.714844 -7.449219 C 14.8125 -7.449219 14.980469 -7.351562 14.980469 -7.214844 C 14.980469 -5.898438 13.738281 -3.925781 13.738281 -2.328125 C 13.738281 -1 14.933594 -0.0117188 16.273438 -0.0117188 C 19.054688 -0.0117188 21.675781 -4.277344 22.675781 -6.300781 L 21.234375 -7.070312 C 20.675781 -6.386719 17.566406 -2.570312 16.617188 -2.570312 C 16.46875 -2.570312 16.421875 -2.742188 16.421875 -2.890625 C 16.421875 -3.777344 17.90625 -5.511719 17.90625 -6.816406 C 17.90625 -8.4375 16.261719 -10.046875 15.078125 -10.472656 C 13.859375 -10.410156 13.191406 -9.875 12.261719 -9.070312 C 12.203125 -10.410156 10.886719 -11.007812 9.921875 -11.007812 C 8.875 -11.007812 8.132812 -10.289062 7.8125 -9.644531 C 7.570312 -11.03125 6.328125 -11.765625 5.230469 -11.765625 C 2.390625 -11.765625 0.355469 -7.179688 -0.742188 -5.609375 C -0.304688 -5.058594 0.0351562 -4.949219 0.390625 -4.949219 C 1.253906 -4.949219 2.292969 -7.449219 4.742188 -8.484375 C 4.765625 -8.277344 4.777344 -8.082031 4.777344 -7.886719 C 4.777344 -5.109375 2.132812 -2.804688 2.132812 -0.109375 C 2.597656 0.464844 3.046875 0.742188 3.960938 1 C 4.972656 0.0742188 7.800781 -7.242188 9.617188 -7.242188 C 9.800781 -7.242188 9.960938 -7.214844 9.960938 -6.960938 C 9.960938 -4.777344 8.253906 -2.476562 8.117188 -0.609375 C 8.777344 -0.046875 9.375 0.144531 10.191406 0.4375 Z M 10.191406 0.4375 "/></g></g></g><g fill="#ff5ebf" fill-opacity="1"><g transform="translate(203.477845, 210.145124)"><g><path d="M 9.628906 -6.070312 C 8.289062 -4.753906 5.949219 -2.5 4.082031 -2.5 C 3.15625 -2.5 2.949219 -2.890625 2.949219 -3.523438 C 2.949219 -4.121094 3.085938 -4.402344 3.339844 -4.839844 C 5.460938 -5.707031 8.558594 -6.9375 8.558594 -9.667969 C 8.558594 -11.191406 7.667969 -11.984375 5.996094 -11.984375 C 2.828125 -11.984375 -0.476562 -7.703125 -0.476562 -4.597656 C -0.476562 -2.988281 0.378906 -1.914062 1.621094 -1.195312 C 2.242188 -0.828125 4.449219 0.121094 4.875 0.121094 C 6.789062 0.121094 10.679688 -3.5 11.738281 -5.011719 C 12.140625 -5.582031 12.445312 -6.265625 12.445312 -7.035156 C 12.445312 -7.472656 12.238281 -7.535156 12.007812 -7.535156 C 11.910156 -7.535156 11.8125 -7.523438 11.726562 -7.523438 C 10.875 -7.523438 9.984375 -6.425781 9.628906 -6.070312 Z M 6.753906 -9.984375 C 6.300781 -9.070312 5.386719 -7.9375 4.375 -7.851562 C 4.644531 -8.667969 5.460938 -9.949219 6.546875 -10.082031 C 6.605469 -10.082031 6.667969 -10.019531 6.753906 -9.984375 Z M 6.753906 -9.984375 "/></g></g></g><g fill="#ff5ebf" fill-opacity="1"><g transform="translate(213.822177, 210.145124)"><g><path d="M 4.351562 -0.476562 C 5.765625 -0.476562 7.546875 0.304688 9.253906 0.304688 C 9.933594 0.304688 10.628906 0.183594 11.265625 -0.183594 C 13.347656 -1.378906 15.53125 -5.046875 16.25 -6.535156 C 15.75 -6.984375 15.53125 -7.484375 15.261719 -7.484375 C 15.175781 -7.484375 15.078125 -7.4375 14.980469 -7.328125 C 13.359375 -5.582031 11.386719 -2.988281 8.972656 -2.988281 C 7.605469 -2.988281 6.191406 -3.523438 4.546875 -3.546875 C 5.582031 -4.730469 6.328125 -5.375 7.035156 -6.265625 C 7.351562 -6.316406 9.582031 -6.328125 9.582031 -6.828125 C 9.582031 -7.144531 8.898438 -7.179688 8.300781 -7.179688 L 7.753906 -7.179688 C 9.046875 -9.09375 10.714844 -10.640625 12.117188 -12.664062 C 12.167969 -12.738281 12.191406 -12.835938 12.191406 -12.945312 C 12.191406 -13.46875 11.667969 -14.3125 11.167969 -14.3125 C 11.007812 -14.3125 10.886719 -14.214844 10.726562 -14.042969 C 8.984375 -12.167969 5.265625 -10.703125 3.277344 -10.703125 C 2.707031 -10.703125 2.363281 -11.070312 2 -11.519531 L 1.960938 -11.519531 C 1.304688 -11.519531 1.035156 -11.226562 0.839844 -10.738281 C 1.023438 -10.519531 1.183594 -10.300781 1.351562 -10.058594 C 1.351562 -8.714844 0.316406 -6.960938 -0.816406 -5.914062 C -0.816406 -5.914062 -0.585938 -5.546875 -0.0351562 -5.546875 C 0.304688 -5.546875 0.769531 -5.679688 1.367188 -6.15625 L 1.449219 -6.21875 L 3.535156 -6.253906 C 2.253906 -4.742188 1.046875 -3.449219 -0.402344 -1.816406 C -1.269531 -0.839844 -1.816406 -0.195312 -1.816406 0.339844 C -1.816406 0.949219 -1.121094 1.425781 0.585938 2.058594 C 1.78125 1.011719 2.449219 -0.476562 4.351562 -0.476562 Z M 1.816406 -6.523438 C 2.390625 -7.046875 2.621094 -7.484375 2.960938 -8.4375 C 3.679688 -8.4375 4.949219 -8.65625 5.65625 -8.898438 C 5.121094 -8.203125 4.632812 -7.570312 4.144531 -6.984375 C 2.902344 -6.875 2.304688 -6.753906 2.304688 -6.753906 Z M 1.816406 -6.523438 "/></g></g></g></svg>