<svg xmlns="http://www.w3.org/2000/svg" xmlns:xlink="http://www.w3.org/1999/xlink" width="500" zoomAndPan="magnify" viewBox="0 0 375 374.999991" height="500" preserveAspectRatio="xMidYMid meet" version="1.0"><defs><g/><clipPath id="1b36e2709f"><path d="M 37.5 37.5 L 337.5 37.5 L 337.5 337.5 L 37.5 337.5 Z M 37.5 37.5 " clip-rule="nonzero"/></clipPath><clipPath id="9df30cdda1"><path d="M 187.5 37.5 C 104.65625 37.5 37.5 104.65625 37.5 187.5 C 37.5 270.34375 104.65625 337.5 187.5 337.5 C 270.34375 337.5 337.5 270.34375 337.5 187.5 C 337.5 104.65625 270.34375 37.5 187.5 37.5 Z M 187.5 37.5 " clip-rule="nonzero"/></clipPath><clipPath id="73ecb96097"><path d="M 91.289062 91.289062 L 283.710938 91.289062 L 283.710938 283.710938 L 91.289062 283.710938 Z M 91.289062 91.289062 " clip-rule="nonzero"/></clipPath><clipPath id="2c69f568be"><path d="M 187.5 91.289062 C 134.363281 91.289062 91.289062 134.363281 91.289062 187.5 C 91.289062 240.636719 134.363281 283.710938 187.5 283.710938 C 240.636719 283.710938 283.710938 240.636719 283.710938 187.5 C 283.710938 134.363281 240.636719 91.289062 187.5 91.289062 Z M 187.5 91.289062 " clip-rule="nonzero"/></clipPath><clipPath id="69802205ef"><path d="M 91.289062 91.289062 L 283.699219 91.289062 L 283.699219 283.699219 L 91.289062 283.699219 Z M 91.289062 91.289062 " clip-rule="nonzero"/></clipPath><clipPath id="ef607c6b4a"><path d="M 187.496094 91.289062 C 134.363281 91.289062 91.289062 134.363281 91.289062 187.496094 C 91.289062 240.628906 134.363281 283.699219 187.496094 283.699219 C 240.628906 283.699219 283.699219 240.628906 283.699219 187.496094 C 283.699219 134.363281 240.628906 91.289062 187.496094 91.289062 Z M 187.496094 91.289062 " clip-rule="nonzero"/></clipPath><clipPath id="c0fc7735e3"><path d="M 52.179688 194.597656 L 73.929688 194.597656 L 73.929688 216.347656 L 52.179688 216.347656 Z M 52.179688 194.597656 " clip-rule="nonzero"/></clipPath><clipPath id="06319c06da"><path d="M 300.828125 194.597656 L 322.578125 194.597656 L 322.578125 216.347656 L 300.828125 216.347656 Z M 300.828125 194.597656 " clip-rule="nonzero"/></clipPath><clipPath id="5c761efcb7"><path d="M 123.253906 128.160156 L 251.503906 128.160156 L 251.503906 246.660156 L 123.253906 246.660156 Z M 123.253906 128.160156 " clip-rule="nonzero"/></clipPath><clipPath id="605575feb0"><path d="M 142 128.160156 L 153 128.160156 L 153 139 L 142 139 Z M 142 128.160156 " clip-rule="nonzero"/></clipPath><clipPath id="849959fd6a"><path d="M 123.253906 147 L 134 147 L 134 188 L 123.253906 188 Z M 123.253906 147 " clip-rule="nonzero"/></clipPath><clipPath id="fad0b9f065"><path d="M 182 236 L 193 236 L 193 246.660156 L 182 246.660156 Z M 182 236 " clip-rule="nonzero"/></clipPath><clipPath id="b8c2faa1bb"><path d="M 202 128.160156 L 213 128.160156 L 213 139 L 202 139 Z M 202 128.160156 " clip-rule="nonzero"/></clipPath></defs><rect x="-37.5" width="450" fill="#ffffff" y="-37.499999" height="449.999989" fill-opacity="1"/><rect x="-37.5" width="450" fill="#1ca499" y="-37.499999" height="449.999989" fill-opacity="1"/><g clip-path="url(#1b36e2709f)"><g clip-path="url(#9df30cdda1)"><path fill="#f6f6f6" d="M 37.5 37.5 L 337.5 37.5 L 337.5 337.5 L 37.5 337.5 Z M 37.5 37.5 " fill-opacity="1" fill-rule="nonzero"/><path stroke-linecap="butt" transform="matrix(0.75, 0, 0, 0.75, 37.500002, 37.499998)" fill="none" stroke-linejoin="miter" d="M 200.00001 0.00000328333 C 89.54167 0.00000328333 -0.00000271667 89.541676 -0.00000271667 200.000016 C -0.00000271667 310.458357 89.54167 400.00003 200.00001 400.00003 C 310.458351 400.00003 400.000024 310.458357 400.000024 200.000016 C 400.000024 89.541676 310.458351 0.00000328333 200.00001 0.00000328333 Z M 200.00001 0.00000328333 " stroke="#000000" stroke-width="4" stroke-opacity="1" stroke-miterlimit="4"/></g></g><g clip-path="url(#73ecb96097)"><g clip-path="url(#2c69f568be)"><path fill="#f4c524" d="M 91.289062 91.289062 L 283.710938 91.289062 L 283.710938 283.710938 L 91.289062 283.710938 Z M 91.289062 91.289062 " fill-opacity="1" fill-rule="nonzero"/></g></g><g clip-path="url(#69802205ef)"><g clip-path="url(#ef607c6b4a)"><path stroke-linecap="butt" transform="matrix(0.75, 0, 0, 0.75, 91.290899, 91.290894)" fill="none" stroke-linejoin="miter" d="M 128.273602 -0.00244201 C 57.429847 -0.00244201 -0.00244801 57.429853 -0.00244801 128.273608 C -0.00244801 199.117363 57.429847 256.54445 128.273602 256.54445 C 199.117357 256.54445 256.544444 199.117363 256.544444 128.273608 C 256.544444 57.429853 199.117357 -0.00244201 128.273602 -0.00244201 Z M 128.273602 -0.00244201 " stroke="#000000" stroke-width="4" stroke-opacity="1" stroke-miterlimit="4"/></g></g><g clip-path="url(#c0fc7735e3)"><path fill="#000000" d="M 63.171875 194.597656 C 62.101562 203.652344 61.234375 204.519531 52.179688 205.589844 C 52.199219 205.59375 52.21875 205.59375 52.238281 205.597656 C 61.238281 206.664062 62.105469 207.550781 63.171875 216.582031 C 64.246094 207.53125 65.113281 206.660156 74.164062 205.589844 C 65.113281 204.519531 64.246094 203.652344 63.171875 194.597656 Z M 63.171875 194.597656 " fill-opacity="1" fill-rule="nonzero"/></g><g clip-path="url(#06319c06da)"><path fill="#000000" d="M 311.820312 194.597656 C 310.75 203.652344 309.878906 204.519531 300.828125 205.589844 C 300.847656 205.59375 300.867188 205.59375 300.882812 205.597656 C 309.882812 206.664062 310.75 207.550781 311.820312 216.582031 C 312.890625 207.53125 313.761719 206.660156 322.8125 205.589844 C 313.761719 204.519531 312.890625 203.652344 311.820312 194.597656 Z M 311.820312 194.597656 " fill-opacity="1" fill-rule="nonzero"/></g><g clip-path="url(#5c761efcb7)"><path fill="#2e1b5b" d="M 241.636719 147.933594 L 241.636719 138.066406 L 231.773438 138.066406 L 231.773438 128.195312 L 202.175781 128.195312 L 202.175781 138.066406 L 192.308594 138.066406 L 192.308594 147.933594 L 182.445312 147.933594 L 182.445312 138.066406 L 172.578125 138.066406 L 172.578125 128.195312 L 142.984375 128.195312 L 142.984375 138.066406 L 133.117188 138.066406 L 133.117188 147.933594 L 123.253906 147.933594 L 123.253906 187.410156 L 133.117188 187.410156 L 133.117188 197.277344 L 142.984375 197.277344 L 142.984375 207.144531 L 152.847656 207.144531 L 152.847656 217.015625 L 162.714844 217.015625 L 162.714844 226.882812 L 172.578125 226.882812 L 172.578125 236.753906 L 182.445312 236.753906 L 182.445312 246.621094 L 192.308594 246.621094 L 192.308594 236.753906 L 202.175781 236.753906 L 202.175781 226.882812 L 212.039062 226.882812 L 212.039062 217.015625 L 221.90625 217.015625 L 221.90625 207.144531 L 231.773438 207.144531 L 231.773438 197.277344 L 241.636719 197.277344 L 241.636719 187.410156 L 251.503906 187.410156 L 251.503906 147.933594 Z M 241.636719 147.933594 " fill-opacity="1" fill-rule="nonzero"/><path fill="#ff0000" d="M 241.636719 147.933594 L 241.636719 138.066406 L 231.773438 138.066406 L 231.773438 128.195312 L 202.175781 128.195312 L 202.175781 138.066406 L 192.308594 138.066406 L 192.308594 147.933594 L 182.445312 147.933594 L 182.445312 138.066406 L 172.578125 138.066406 L 172.578125 128.195312 L 142.984375 128.195312 L 142.984375 138.066406 L 133.117188 138.066406 L 133.117188 147.933594 L 123.253906 147.933594 L 123.253906 187.410156 L 133.117188 187.410156 L 133.117188 197.277344 L 142.984375 197.277344 L 142.984375 207.144531 L 152.847656 207.144531 L 152.847656 217.015625 L 162.714844 217.015625 L 162.714844 226.882812 L 172.578125 226.882812 L 172.578125 236.753906 L 182.445312 236.753906 L 182.445312 246.621094 L 192.308594 246.621094 L 192.308594 236.753906 L 202.175781 236.753906 L 202.175781 226.882812 L 212.039062 226.882812 L 212.039062 217.015625 L 221.90625 217.015625 L 221.90625 207.144531 L 231.773438 207.144531 L 231.773438 197.277344 L 241.636719 197.277344 L 241.636719 187.410156 L 251.503906 187.410156 L 251.503906 147.933594 Z M 241.636719 147.933594 " fill-opacity="1" fill-rule="nonzero"/></g><g clip-path="url(#605575feb0)"><path fill="#2e1b5b" d="M 142.984375 128.195312 L 152.847656 128.195312 L 152.847656 138.066406 L 142.984375 138.066406 Z M 142.984375 128.195312 " fill-opacity="1" fill-rule="nonzero"/></g><path fill="#2e1b5b" d="M 133.117188 138.066406 L 142.984375 138.066406 L 142.984375 147.933594 L 133.117188 147.933594 Z M 133.117188 138.066406 " fill-opacity="1" fill-rule="nonzero"/><g clip-path="url(#849959fd6a)"><path fill="#2e1b5b" d="M 123.253906 147.933594 L 133.117188 147.933594 L 133.117188 187.410156 L 123.253906 187.410156 Z M 123.253906 147.933594 " fill-opacity="1" fill-rule="nonzero"/></g><path fill="#2e1b5b" d="M 133.117188 187.410156 L 142.984375 187.410156 L 142.984375 197.277344 L 133.117188 197.277344 Z M 133.117188 187.410156 " fill-opacity="1" fill-rule="nonzero"/><path fill="#2e1b5b" d="M 142.984375 197.277344 L 152.847656 197.277344 L 152.847656 207.144531 L 142.984375 207.144531 Z M 142.984375 197.277344 " fill-opacity="1" fill-rule="nonzero"/><path fill="#2e1b5b" d="M 152.847656 207.144531 L 162.714844 207.144531 L 162.714844 217.015625 L 152.847656 217.015625 Z M 152.847656 207.144531 " fill-opacity="1" fill-rule="nonzero"/><path fill="#2e1b5b" d="M 162.714844 217.015625 L 172.578125 217.015625 L 172.578125 226.882812 L 162.714844 226.882812 Z M 162.714844 217.015625 " fill-opacity="1" fill-rule="nonzero"/><path fill="#2e1b5b" d="M 172.578125 226.882812 L 182.445312 226.882812 L 182.445312 236.753906 L 172.578125 236.753906 Z M 172.578125 226.882812 " fill-opacity="1" fill-rule="nonzero"/><g clip-path="url(#fad0b9f065)"><path fill="#2e1b5b" d="M 182.445312 236.753906 L 192.308594 236.753906 L 192.308594 246.621094 L 182.445312 246.621094 Z M 182.445312 236.753906 " fill-opacity="1" fill-rule="nonzero"/></g><path fill="#2e1b5b" d="M 192.308594 138.066406 L 202.175781 138.066406 L 202.175781 147.933594 L 192.308594 147.933594 Z M 192.308594 138.066406 " fill-opacity="1" fill-rule="nonzero"/><g clip-path="url(#b8c2faa1bb)"><path fill="#2e1b5b" d="M 202.175781 128.195312 L 212.039062 128.195312 L 212.039062 138.066406 L 202.175781 138.066406 Z M 202.175781 128.195312 " fill-opacity="1" fill-rule="nonzero"/></g><path fill="#c30000" d="M 152.847656 197.277344 L 162.714844 197.277344 L 162.714844 207.144531 L 152.847656 207.144531 Z M 152.847656 197.277344 " fill-opacity="1" fill-rule="nonzero"/><path fill="#c30000" d="M 162.714844 207.144531 L 172.578125 207.144531 L 172.578125 217.015625 L 162.714844 217.015625 Z M 162.714844 207.144531 " fill-opacity="1" fill-rule="nonzero"/><path fill="#c30000" d="M 172.578125 217.015625 L 182.445312 217.015625 L 182.445312 226.882812 L 172.578125 226.882812 Z M 172.578125 217.015625 " fill-opacity="1" fill-rule="nonzero"/><path fill="#c30000" d="M 182.445312 226.882812 L 192.308594 226.882812 L 192.308594 236.753906 L 182.445312 236.753906 Z M 182.445312 226.882812 " fill-opacity="1" fill-rule="nonzero"/><path fill="#c30000" d="M 142.984375 138.066406 L 152.847656 138.066406 L 152.847656 147.933594 L 142.984375 147.933594 Z M 142.984375 138.066406 " fill-opacity="1" fill-rule="nonzero"/><path fill="#c30000" d="M 152.847656 167.671875 L 152.847656 157.800781 L 142.984375 157.800781 L 142.984375 147.933594 L 133.117188 147.933594 L 133.117188 187.410156 L 142.984375 187.410156 L 142.984375 197.277344 L 152.847656 197.277344 L 152.847656 177.539062 L 142.984375 177.539062 L 142.984375 167.671875 Z M 152.847656 167.671875 " fill-opacity="1" fill-rule="nonzero"/><path fill="#c30000" d="M 162.714844 187.410156 L 172.578125 187.410156 L 172.578125 197.277344 L 162.714844 197.277344 Z M 162.714844 187.410156 " fill-opacity="1" fill-rule="nonzero"/><path fill="#c30000" d="M 172.578125 177.539062 L 182.445312 177.539062 L 182.445312 187.410156 L 172.578125 187.410156 Z M 172.578125 177.539062 " fill-opacity="1" fill-rule="nonzero"/><path fill="#c30000" d="M 182.445312 207.144531 L 192.308594 207.144531 L 192.308594 217.015625 L 182.445312 217.015625 Z M 182.445312 207.144531 " fill-opacity="1" fill-rule="nonzero"/><path fill="#c30000" d="M 172.578125 197.277344 L 182.445312 197.277344 L 182.445312 207.144531 L 172.578125 207.144531 Z M 172.578125 197.277344 " fill-opacity="1" fill-rule="nonzero"/><path fill="#c30000" d="M 202.175781 197.277344 L 212.039062 197.277344 L 212.039062 207.144531 L 202.175781 207.144531 Z M 202.175781 197.277344 " fill-opacity="1" fill-rule="nonzero"/><path fill="#c30000" d="M 192.308594 217.015625 L 202.175781 217.015625 L 202.175781 226.882812 L 192.308594 226.882812 Z M 192.308594 217.015625 " fill-opacity="1" fill-rule="nonzero"/><path fill="#f8fffb" d="M 152.847656 157.800781 L 162.714844 157.800781 L 162.714844 167.671875 L 152.847656 167.671875 Z M 152.847656 157.800781 " fill-opacity="1" fill-rule="nonzero"/><path fill="#f8fffb" d="M 142.984375 167.671875 L 152.847656 167.671875 L 152.847656 177.539062 L 142.984375 177.539062 Z M 142.984375 167.671875 " fill-opacity="1" fill-rule="nonzero"/><path fill="#f8fffb" d="M 142.984375 147.933594 L 152.847656 147.933594 L 152.847656 157.800781 L 142.984375 157.800781 Z M 142.984375 147.933594 " fill-opacity="1" fill-rule="nonzero"/><path fill="#ff4d4d" d="M 152.847656 147.933594 L 172.578125 147.933594 L 172.578125 157.800781 L 152.847656 157.800781 Z M 152.847656 147.933594 " fill-opacity="1" fill-rule="nonzero"/><path fill="#ff4d4d" d="M 142.984375 157.800781 L 152.847656 157.800781 L 152.847656 167.671875 L 142.984375 167.671875 Z M 142.984375 157.800781 " fill-opacity="1" fill-rule="nonzero"/><path fill="#ff4d4d" d="M 152.847656 187.410156 L 172.578125 187.410156 L 172.578125 177.539062 L 162.714844 177.539062 L 162.714844 167.671875 L 152.847656 167.671875 Z M 152.847656 187.410156 " fill-opacity="1" fill-rule="nonzero"/><g fill="#000000" fill-opacity="1"><g transform="translate(133.218861, 90.582548)"><g><path d="M 25.9375 -10.054688 L 12.15625 -18.355469 L 16.441406 -33.296875 L 10.074219 -30.828125 L 7.515625 -21.132812 L -1.261719 -26.433594 L -7.808594 -23.894531 L 5.621094 -15.78125 L 1.195312 -0.464844 L 7.707031 -2.988281 L 10.289062 -12.9375 L 19.289062 -7.476562 Z M 25.9375 -10.054688 "/></g></g></g><g fill="#000000" fill-opacity="1"><g transform="translate(158.065759, 80.651667)"><g><path d="M 14.789062 -1.320312 C 23.582031 -2.492188 26.558594 -6.46875 26.125 -13.722656 L 20.25 -12.941406 C 20.46875 -9.007812 18.882812 -6.625 14.09375 -5.988281 C 9.117188 -5.328125 6.710938 -7.9375 5.980469 -13.4375 C 5.238281 -19.015625 7.023438 -22.183594 12.039062 -22.851562 C 16.640625 -23.464844 18.675781 -21.605469 19.503906 -17.980469 L 25.339844 -18.757812 C 23.871094 -25.496094 19.914062 -28.621094 11.34375 -27.480469 C 1.988281 -26.238281 -0.886719 -19.53125 0.03125 -12.648438 C 0.960938 -5.648438 5.433594 -0.078125 14.789062 -1.320312 Z M 14.789062 -1.320312 "/></g></g></g><g fill="#000000" fill-opacity="1"><g transform="translate(184.934907, 77.046706)"><g><path d="M 23.523438 -3.996094 C 23.851562 -7.605469 21.976562 -9.0625 19.480469 -9.9375 C 22.507812 -10.304688 24.980469 -12.46875 25.300781 -16 C 25.671875 -20.0625 23.179688 -23.09375 17.65625 -23.597656 L 4.460938 -24.800781 L 2.179688 0.199219 L 7.933594 0.722656 L 8.8125 -8.9375 L 13.960938 -8.46875 C 16.445312 -8.242188 18.027344 -6.886719 17.769531 -4.066406 L 17.648438 -2.75 C 17.460938 -0.683594 17.523438 0.6875 17.742188 1.617188 L 23.457031 2.140625 C 23.304688 0.910156 23.179688 -0.238281 23.371094 -2.304688 Z M 15.351562 -12.472656 L 9.1875 -13.035156 L 9.808594 -19.839844 L 15.972656 -19.277344 C 18.453125 -19.050781 19.441406 -17.824219 19.25 -15.71875 C 19.035156 -13.386719 17.945312 -12.238281 15.351562 -12.472656 Z M 15.351562 -12.472656 "/></g></g></g><g fill="#000000" fill-opacity="1"><g transform="translate(208.358926, 78.923672)"><g><path d="M 25.746094 -18.261719 L 19.1875 -11.175781 C 18.15625 -10.03125 17.175781 -8.914062 16.183594 -7.761719 C 16.09375 -9.253906 15.921875 -10.730469 15.761719 -12.242188 L 14.433594 -21.792969 L 8.308594 -23.703125 L 12.132812 -4.160156 L 9.875 3.082031 L 15.351562 4.789062 L 17.609375 -2.453125 L 31.835938 -16.359375 Z M 25.746094 -18.261719 "/></g></g></g><g fill="#000000" fill-opacity="1"><g transform="translate(231.963565, 86.823739)"><g/></g></g><g fill="#000000" fill-opacity="1"><g transform="translate(152.683724, 316.256959)"><g><path d="M 0.59375 0.140625 L 5.265625 -4.640625 L 3.171875 -10.90625 L 4.671875 -10.5625 L 6.359375 -5.515625 L 9.96875 -9.328125 L 11.46875 -8.96875 L 6.796875 -4.234375 L 8.90625 2.078125 L 7.390625 1.71875 L 5.703125 -3.328125 L 2.09375 0.484375 Z M 0.59375 0.140625 "/></g></g></g><g fill="#000000" fill-opacity="1"><g transform="translate(172.086404, 320.054821)"><g><path d="M 6.140625 0.640625 C 5.023438 0.554688 4.085938 0.242188 3.328125 -0.296875 C 2.566406 -0.847656 1.992188 -1.578125 1.609375 -2.484375 C 1.234375 -3.390625 1.085938 -4.425781 1.171875 -5.59375 C 1.253906 -6.75 1.550781 -7.75 2.0625 -8.59375 C 2.570312 -9.4375 3.238281 -10.078125 4.0625 -10.515625 C 4.894531 -10.953125 5.867188 -11.128906 6.984375 -11.046875 C 8.285156 -10.953125 9.316406 -10.566406 10.078125 -9.890625 C 10.847656 -9.210938 11.304688 -8.3125 11.453125 -7.1875 L 9.9375 -7.296875 C 9.820312 -8.015625 9.515625 -8.601562 9.015625 -9.0625 C 8.515625 -9.53125 7.8125 -9.796875 6.90625 -9.859375 C 6.09375 -9.921875 5.367188 -9.785156 4.734375 -9.453125 C 4.109375 -9.117188 3.609375 -8.617188 3.234375 -7.953125 C 2.859375 -7.285156 2.632812 -6.46875 2.5625 -5.5 C 2.5 -4.53125 2.601562 -3.6875 2.875 -2.96875 C 3.144531 -2.25 3.566406 -1.679688 4.140625 -1.265625 C 4.722656 -0.847656 5.421875 -0.609375 6.234375 -0.546875 C 7.140625 -0.484375 7.867188 -0.640625 8.421875 -1.015625 C 8.984375 -1.398438 9.375 -1.925781 9.59375 -2.59375 L 11.109375 -2.484375 C 10.804688 -1.421875 10.226562 -0.609375 9.375 -0.046875 C 8.519531 0.503906 7.441406 0.734375 6.140625 0.640625 Z M 6.140625 0.640625 "/></g></g></g><g fill="#000000" fill-opacity="1"><g transform="translate(193.74773, 320.765975)"><g><path d="M 1.203125 -0.09375 L 0.25 -11.390625 L 3.890625 -11.703125 C 4.773438 -11.773438 5.507812 -11.691406 6.09375 -11.453125 C 6.675781 -11.210938 7.125 -10.847656 7.4375 -10.359375 C 7.75 -9.867188 7.929688 -9.316406 7.984375 -8.703125 C 8.046875 -7.992188 7.90625 -7.335938 7.5625 -6.734375 C 7.226562 -6.140625 6.671875 -5.691406 5.890625 -5.390625 L 8.765625 -0.734375 L 7.15625 -0.59375 L 4.484375 -5.078125 L 4.390625 -5.078125 L 2.15625 -4.890625 L 2.546875 -0.21875 Z M 2.0625 -5.953125 L 4.265625 -6.125 C 5.140625 -6.195312 5.757812 -6.457031 6.125 -6.90625 C 6.488281 -7.363281 6.640625 -7.921875 6.578125 -8.578125 C 6.523438 -9.253906 6.285156 -9.769531 5.859375 -10.125 C 5.441406 -10.488281 4.785156 -10.628906 3.890625 -10.546875 L 1.703125 -10.375 Z M 2.0625 -5.953125 "/></g></g></g><g fill="#000000" fill-opacity="1"><g transform="translate(213.180679, 318.394731)"><g><path d="M 3.90625 -0.921875 L 2.921875 -5.125 L -2.28125 -11.125 L -0.78125 -11.46875 L 3.296875 -6.53125 L 4.734375 -12.765625 L 6.234375 -13.125 L 4.25 -5.4375 L 5.234375 -1.234375 Z M 3.90625 -0.921875 "/></g></g></g></svg>